<svg version="1.1" xmlns="http://www.w3.org/2000/svg">
  <symbol id="checklist-incomplete" viewBox="0 0 16 16"><path d="M3.1 2.3c0-.4.3-.8.8-.8h5.7l3.2 2.8v9.4c0 .4-.3.8-.8.8H3.9c-.4 0-.8-.3-.8-.8V2.3z"/><path fill="#fff" d="M9.6 1.5v2c0 .4.3.8.8.8h2.4L9.6 1.5zm-4 8.5l-.8-.7V9c.1-.1.2-.1.3 0l.4.5.9-1.1c.1-.1.2-.1.3 0 .1.1.1.2 0 .3.1 0-1.1 1.3-1.1 1.3zm0 2.6l-.7-.7c-.1-.1-.1-.2 0-.3.1-.1.2-.1.3 0l.4.5.9-1.1c.1-.1.2-.1.3 0 .1.1.1.2 0 .3l-1.2 1.3zM6 6.5l.6-.5c.1-.1.1-.2 0-.3-.1-.1-.2-.1-.2 0l-.6.5-.6-.6h-.3c-.1.1-.1.3 0 .4l.6.6-.6.5c-.1.1-.1.2 0 .2.1.1.2.1.3 0l.6-.6.6.6s.1.1.2.1.1 0 .2-.1 0-.2 0-.3c-.1.1-.8-.5-.8-.5zm4.9-.3h-3c-.1 0-.2-.1-.2-.2s.1-.2.2-.2H11c.1 0 .2.1.2.2-.1.1-.2.2-.3.2zm-1.3 1H7.8c-.1 0-.1-.1-.1-.2v-.1c0-.1.1-.1.1-.1h1.8c.1 0 .1.1.1.1V7c.1.1 0 .2-.1.2zm1.3 1.6h-3c-.1 0-.2-.1-.2-.2s.1-.2.2-.2H11c.1 0 .2.1.2.2-.1.1-.2.2-.3.2zm-1.3 1H7.8c-.1 0-.1-.1-.1-.1v-.2c0-.1.1-.1.1-.1h1.8c.1 0 .1.1.1.1v.1c.1.1 0 .2-.1.2zm1.3 1.6h-3c-.1 0-.2-.1-.2-.2s.1-.2.2-.2H11c.1 0 .2.1.2.2-.1.1-.2.2-.3.2zm-1.3 1H7.8c-.1 0-.1-.1-.1-.1v-.1c0-.1.1-.1.1-.1h1.8c.1 0 .1.1.1.1v.1c.1 0 0 .1-.1.1z"/></symbol>
  <symbol id="search" viewBox="0 0 16 16"><path d="M14.8 12.8l-3.5-3.5c.9-1.6 1.1-3.6 0-5.6C10.5 2 8.7 1 6.8 1 4.1 1 1.7 2.8 1.1 5.4c-.7 3.6 2 6.7 5.4 6.7 1 0 2-.3 2.8-.8l3.4 3.4.1.1c.3.3.7.3.9 0l1.1-1.1c.3-.2.3-.7 0-.9zm-8.3-2.1c-2.9 0-5-2.9-3.7-5.9.6-1.5 2.2-2.4 3.7-2.4 1.1 0 2.1.4 2.9 1.2.8.8 1.2 1.8 1.2 2.9 0 1.1-.4 2.1-1.2 2.9-.7.9-1.8 1.3-2.9 1.3z"/></symbol>
  <symbol id="cancel" viewBox="0 0 16 16"><path d="M4.1 4.1c-2.2 2.2-2.2 5.7 0 7.9s5.7 2.2 7.9 0 2.2-5.7 0-7.9-5.9-2.3-7.9 0zm5.2 3.8l2.1 2.1-1.4 1.4-2-2.1-2.1 2.1L4.5 10l2.1-2.1-2.1-2.1 1.4-1.4L8 6.6l2.1-2.1 1.4 1.4-2.2 2z"/></symbol>
  <symbol id="list" viewBox="0 0 16 16"><path d="M14.4 13H5.6c-.3 0-.6.2-.6.5s.3.5.6.5h8.8c.3 0 .6-.2.6-.5s-.3-.5-.6-.5zm0-5H5.6c-.3 0-.6.2-.6.5s.3.5.6.5h8.8c.3 0 .6-.2.6-.5s-.3-.5-.6-.5zM5.6 4h8.8c.3 0 .6-.2.6-.5s-.3-.5-.6-.5H5.6c-.3 0-.6.2-.6.5s.3.5.6.5zM3.2 2H1.6c-.3 0-.6.3-.6.6v1.6c0 .4.3.6.6.6h1.6c.3 0 .6-.3.6-.6V2.6c0-.3-.3-.6-.6-.6zm0 5H1.6c-.3 0-.6.3-.6.6v1.6c0 .4.3.6.6.6h1.6c.3 0 .6-.3.6-.6V7.6c0-.3-.3-.6-.6-.6zm0 5H1.6c-.3 0-.6.3-.6.6v1.6c0 .4.3.6.6.6h1.6c.3 0 .6-.3.6-.6v-1.6c0-.3-.3-.6-.6-.6z" fill="#505359"/></symbol>
  <symbol id="calendar" viewBox="0 0 50 50"><path d="M40.5 4h-3.7v3.3c0 1.3-1 2.3-2.3 2.3-1.3 0-2.3-1-2.3-2.3V4H17.8v3.3c0 1.3-1 2.3-2.3 2.3s-2.3-1-2.3-2.3V4H9.5C7 4 5 6 5 8.5v35.9c0 2.5 2 4.4 4.5 4.4h31c2.5 0 4.5-2 4.5-4.4V8.5C45 6 43 4 40.5 4zm1.6 40.3c0 .9-.7 1.6-1.6 1.6h-31c-.9 0-1.6-.7-1.6-1.6V15.1H42v29.2z" fill="#757982"/><path d="M15.5 8.2c.5 0 .9-.4.9-.8V2c0-.5-.4-.8-.9-.8s-.9.4-.9.8v5.3c.1.5.4.9.9.9zm19 0c.5 0 .9-.4.9-.8V2c0-.5-.4-.8-.9-.8s-.9.4-.9.8v5.3c0 .5.4.9.9.9zM37 20h3v3h-3zm-4.5 0h3v3h-3zM28 20h3v3h-3zm-4.5 0h3v3h-3zM19 20h3v3h-3zm18 6h3v3h-3zm-4.5 0h3v3h-3zM28 26h3v3h-3zm-4.5 0h3v3h-3zM19 26h3v3h-3zm-4.5 0h3v3h-3zM10 26h3v3h-3zm27 6h3v3h-3zm-4.5 0h3v3h-3zM28 32h3v3h-3zm-4.5 0h3v3h-3zM19 32h3v3h-3zm-4.5 0h3v3h-3zM10 32h3v3h-3zm18 6h3v3h-3zm-4.5 0h3v3h-3zM19 38h3v3h-3zm-4.5 0h3v3h-3zM10 38h3v3h-3z" fill="#757982"/></symbol>
  <symbol id="arrow-bracket" viewBox="0 0 16 16"><path d="M11 3L8.1 8l2.9 5H8.4L5 8.1v-.2L8.4 3H11z"/></symbol>
  <symbol id='caret-down' viewBox='0 0 16 16'><path d='M8.3 11.3L12 5.1c.1-.2.1-.4-.1-.5-.1 0-.1-.1-.2-.1H4.4c-.2 0-.4.1-.4.4v.2l3.6 6.2c.1.2.3.3.5.1.2 0 .2 0 .2-.1z'/></symbol>
  <symbol id='contributors' viewBox='0 0 512 512'><path d="M451.72 237.26c-17.422-8.71-50.087-8.811-51.469-8.811a7.5 7.5 0 000 15c8.429.001 32.902 1.299 44.761 7.228a7.502 7.502 0 006.708-13.417z"/><path d="M489.112 344.041l-30.975-8.85a3.145 3.145 0 01-2.271-3.011v-10.339a56.368 56.368 0 007.171-5.881c10.89-10.568 16.887-24.743 16.887-39.915v-14.267l2.995-5.989a47.846 47.846 0 005.024-21.286v-38.65a7.5 7.5 0 00-7.5-7.5H408.27c-26.244 0-47.596 21.352-47.596 47.596v.447a39.78 39.78 0 004.178 17.699l3.841 7.682v12.25c0 19.414 9.567 36.833 24.058 47.315l.002 10.836c0 1.671 0 2.363-6.193 4.133l-15.114 4.318-43.721-15.898a7.491 7.491 0 00-2.044-5.742l-13.971-14.678v-24.64a90.427 90.427 0 004.344-3.789c17.625-16.52 27.733-39.844 27.733-63.991v-19.678c5.322-11.581 8.019-23.836 8.019-36.457v-80.19a7.5 7.5 0 00-7.5-7.5H232.037c-39.51 0-71.653 32.144-71.653 71.653v16.039c0 12.621 2.697 24.876 8.019 36.457v16.931c0 28.036 12.466 53.294 32.077 69.946v25.22l-13.971 14.678a7.491 7.491 0 00-2.044 5.742l-46.145 16.779a39.33 39.33 0 00-9.272 4.858l-7.246-3.623c21.57-9.389 28.403-22.594 28.731-23.25a7.498 7.498 0 000-6.708c-5.407-10.814-6.062-30.635-6.588-46.561-.175-5.302-.341-10.311-.658-14.771-2.557-35.974-29.905-63.103-63.615-63.103s-61.059 27.128-63.615 63.103c-.317 4.461-.483 9.47-.658 14.773-.526 15.925-1.182 35.744-6.588 46.558a7.498 7.498 0 000 6.708c.328.656 7.147 13.834 28.76 23.234l-20.127 10.063C6.684 358.176 0 368.991 0 381.02v55.409a7.5 7.5 0 0015 0V381.02c0-6.312 3.507-11.987 9.152-14.81l25.063-12.531 8.718 8.285a31.466 31.466 0 0021.739 8.688 31.475 31.475 0 0021.739-8.688l8.717-8.284 8.172 4.086c-3.848 6.157-6.032 13.377-6.032 20.94v57.725a7.5 7.5 0 0015 0v-57.725c0-10.296 6.501-19.578 16.178-23.097l48.652-17.691 20.253 30.381a15.462 15.462 0 0011.383 6.835 15.458 15.458 0 0012.504-4.47l12.356-12.356v78.124a7.5 7.5 0 0015 0v-78.124l12.356 12.356a15.452 15.452 0 0010.957 4.547c.513 0 1.029-.025 1.546-.076a15.462 15.462 0 0011.384-6.835l20.254-30.38 48.651 17.691c9.676 3.519 16.178 12.801 16.178 23.097v57.725a7.5 7.5 0 0015 0v-57.725c0-10.428-4.143-20.208-11.093-27.441l1.853-.529c1.869-.534 4.419-1.265 6.979-2.52l19.149 19.149v69.066a7.5 7.5 0 0015 0v-69.066l19.016-19.016c1.011.514 2.073.948 3.191 1.267l30.976 8.85c7.07 2.02 12.009 8.567 12.009 15.921v62.044a7.5 7.5 0 0015 0v-62.044c0-14.018-9.412-26.497-22.888-30.348zM48.115 330.794c-14.029-5.048-21.066-11.778-24.07-15.453 2.048-5.354 3.376-11.486 4.275-17.959 4.136 9.917 11.063 18.383 19.795 24.423v8.989zm42.965 20.298c-6.397 6.078-16.418 6.077-22.813-.001l-6.975-6.628a15.518 15.518 0 001.824-7.324v-7.994a55.427 55.427 0 0016.558 2.517c5.757 0 11.316-.886 16.557-2.512l-.001 7.988c0 2.62.646 5.121 1.824 7.327l-6.974 6.627zm-11.404-34.43c-22.396 0-40.615-18.22-40.615-40.615a7.5 7.5 0 00-7.5-7.5c-.42 0-.83.043-1.231.11l.065-1.93c.167-5.157.328-10.028.625-14.206.958-13.476 6.343-25.894 15.163-34.968 8.899-9.156 20.793-14.198 33.491-14.198s24.591 5.042 33.491 14.198c8.82 9.074 14.205 21.492 15.163 34.968.296 4.177.458 9.047.628 14.203l.045 1.338c-8.16-12.572-20.762-21.837-37.045-27.069-15.043-4.833-27.981-4.534-28.527-4.52a7.5 7.5 0 00-5.191 2.291l-13.532 14.034a7.5 7.5 0 1010.798 10.412l11.26-11.677c9.697.474 40.894 4.102 53.027 30.819-3.053 19.688-19.975 34.31-40.115 34.31zm31.553 14.157l.001-8.945a55.477 55.477 0 0019.801-24.449c.899 6.458 2.226 12.576 4.27 17.918-2.987 3.64-10.057 10.43-24.072 15.476zm72.174-121.674v-18.608a7.501 7.501 0 00-.746-3.261c-4.826-9.994-7.273-20.598-7.273-31.518V139.72c0-31.239 25.415-56.653 56.653-56.653h104.769v72.692c0 10.92-2.447 21.524-7.273 31.518a7.501 7.501 0 00-.746 3.261v21.355c0 20.311-8.165 39.15-22.991 53.047a74.636 74.636 0 01-5.758 4.875c-.044.03-.086.063-.129.094-13.889 10.545-30.901 15.67-48.667 14.519-38.041-2.463-67.839-35.531-67.839-75.283zm42.229 150.911c-.052.052-.173.175-.418.149a.477.477 0 01-.381-.229l-23.325-34.988 7.506-7.887 35.385 24.187-18.767 18.768zm30.463-28.943l-40.615-27.762v-14c10.509 5.681 22.276 9.234 34.791 10.044 1.977.128 3.942.191 5.901.191 14.341 0 28.143-3.428 40.538-9.935v13.7l-40.615 27.762zm31.262 28.865a.477.477 0 01-.381.229c-.245.031-.365-.098-.418-.149l-18.767-18.767 35.385-24.188 7.507 7.887-23.326 34.988zm136.951-6.328l-17.02-17.019c.297-1.349.465-2.826.464-4.455l-.001-3.165a52.589 52.589 0 0016.579 2.65 55.71 55.71 0 0016.536-2.501v3.02c0 1.496.188 2.962.542 4.371l-17.1 17.099zm28.283-48.454c-7.949 7.714-18.45 11.788-29.537 11.446-21.704-.651-39.361-19.768-39.361-42.613v-14.021a7.493 7.493 0 00-.792-3.354l-4.633-9.266a24.706 24.706 0 01-2.594-10.991v-.447c0-17.974 14.623-32.596 32.596-32.596h64.673v31.15a32.77 32.77 0 01-3.441 14.578l-3.786 7.572a7.496 7.496 0 00-.792 3.354v16.038c0 11.08-4.38 21.432-12.333 29.15z"/><path d="M472.423 380.814a7.5 7.5 0 00-7.5 7.5v48.115a7.5 7.5 0 0015 0v-48.115a7.5 7.5 0 00-7.5-7.5zM39.577 390.728a7.5 7.5 0 00-7.5 7.5v38.201a7.5 7.5 0 0015 0v-38.201a7.5 7.5 0 00-7.5-7.5zM317.532 158.475c-28.366-28.366-87.715-22.943-111.917-19.295-7.623 1.149-13.155 7.6-13.155 15.339v17.278a7.5 7.5 0 0015 0v-17.279c0-.255.168-.473.392-.507 9.667-1.457 28.85-3.705 48.725-2.38 23.388 1.557 40.328 7.428 50.349 17.45a7.5 7.5 0 0010.606 0 7.5 7.5 0 000-10.606zM167.884 396.853a7.5 7.5 0 00-7.5 7.5v32.077a7.5 7.5 0 0015 0v-32.077a7.5 7.5 0 00-7.5-7.5zM344.306 396.853a7.5 7.5 0 00-7.5 7.5v32.077a7.5 7.5 0 0015 0v-32.077a7.5 7.5 0 00-7.5-7.5z"/></symbol>
  <symbol id='code-guide' viewBox="0 0 141.7 141.7"><path class="st0" fill="#333" d="M105.1 31.4H34.2c-2.8 0-5.1 2.3-5.1 5.1v70.8c0 2.8 2.3 5.1 5.1 5.1H105c2.8 0 5.1-2.3 5.1-5.1V36.4c0-2.7-2.3-5-5-5zm-70.9 3.4H105c.9 0 1.7.8 1.7 1.7v8.4H32.5v-8.4c0-1 .8-1.7 1.7-1.7zm70.9 74.2H34.2c-.9 0-1.7-.8-1.7-1.7v-59h74.2v59c0 .9-.7 1.7-1.6 1.7z"/><path class="st0" fill="#333" d="M36.4 41c.3.3.8.5 1.2.5.2 0 .4-.1.6-.1.2-.1.4-.2.5-.4.2-.2.3-.3.4-.5.1-.2.1-.4.1-.6 0-.5-.2-.9-.5-1.2-.6-.6-1.8-.6-2.4 0-.3.3-.5.8-.5 1.2 0 .2 0 .4.1.6l.5.5zM44.3 41.5c.2 0 .4-.1.6-.1.2-.1.4-.2.5-.4.2-.2.3-.3.4-.5.2-.2.2-.5.2-.7 0-.4-.2-.9-.5-1.2-.6-.6-1.8-.6-2.4 0-.3.3-.5.8-.5 1.2 0 .4.2.9.5 1.2.4.3.8.5 1.2.5zM50.4 41.4c.2.1.4.1.6.1.2 0 .4 0 .6-.1.2-.1.4-.2.5-.4.3-.3.5-.7.5-1.2s-.2-.9-.5-1.2c-.6-.6-1.8-.6-2.4 0-.3.3-.5.7-.5 1.2 0 .4.2.8.5 1.2.3.2.5.3.7.4zM75.1 61.7c-.9-.3-1.8.2-2.1 1.1L62.9 96.6c-.3.9.2 1.8 1.1 2.1.2 0 .3.1.5.1.7 0 1.4-.5 1.6-1.2l10.1-33.7c.3-1-.2-1.9-1.1-2.2zM82.7 65.9c-.6-.7-1.6-.9-2.4-.3-.7.6-.9 1.6-.3 2.4l9.4 12.4L80 92.7c-.6.7-.4 1.8.3 2.4.3.2.7.3 1 .3.5 0 1-.2 1.3-.7l10.2-13.4c.5-.6.5-1.4 0-2L82.7 65.9zM58.9 65.5c-.7-.6-1.8-.4-2.4.3L46.4 79.3c-.5.6-.5 1.4 0 2l10.2 13.4c.3.4.8.7 1.3.7.4 0 .7-.1 1-.3.7-.6.9-1.6.3-2.4l-9.4-12.4 9.4-12.4c.6-.7.5-1.8-.3-2.4z"/></symbol>
  <symbol id='design-guide' viewBox="0 0 141.7 141.7"><path class="st0" fill="#333" d="M92 66c-.7-.3-1.4-.1-1.9.4L64.2 92.6c-.5.5-.6 1.3-.4 1.9.3.7.9 1.1 1.6 1.1h25.9c1 0 1.8-.8 1.8-1.8V67.7c0-.8-.4-1.4-1.1-1.7zm-2.4 26.1h-20l19.9-20.2v20.2z"/><path class="st0" fill="#333" d="M106.1 25.6c-.7-.3-1.4-.1-1.9.4l-80 80.8c-.5.5-.6 1.3-.4 1.9.3.7.9 1.1 1.6 1.1h80c1 0 1.8-.8 1.8-1.8V27.2c0-.7-.4-1.3-1.1-1.6zm-2.4 80.6H29.6l15.9-16 6.2 6.2c.3.3.8.5 1.2.5s.9-.2 1.2-.5c.7-.7.7-1.8 0-2.5L48 87.7l4.1-4.1 2.8 2.8c.3.3.8.5 1.2.5.5 0 .9-.2 1.2-.5.7-.7.7-1.8 0-2.5L54.6 81l4.1-4.1 6.3 6.3c.3.3.8.5 1.2.5.5 0 .9-.2 1.2-.5.7-.7.7-1.8 0-2.5l-6.3-6.3 4.1-4.1 2.9 2.9c.3.3.8.5 1.2.5.5 0 .9-.2 1.2-.5.7-.7.7-1.8 0-2.5l-2.9-2.9 4.1-4.1L78 70c.3.3.8.5 1.2.5.5 0 .9-.2 1.2-.5.7-.7.7-1.8 0-2.5l-6.3-6.3 4.1-4.1 3 3c.3.3.8.5 1.2.5.5 0 .9-.2 1.2-.5.7-.7.7-1.8 0-2.5l-3-3 4.1-4.1 6.4 6.4c.3.3.8.5 1.2.5s.9-.2 1.2-.5c.7-.7.7-1.8 0-2.5L87.1 48l16.1-16.3v74.5z"/></symbol>
  <symbol id='logo' viewBox="0 0 141.7 141.7"><path fill="#333" d="M24 82.6H13.4l-1.9 6H3.3l11.8-32.1h7.3l11.9 32.1H26l-2-6zm-8.7-5.9h6.9l-3.5-11.1-3.4 11.1zM34.1 76.5c0-1.8.2-3.5.6-5 .4-1.5 1-2.8 1.8-3.9s1.7-1.9 2.9-2.5c1.2-.6 2.5-.9 4-.9 1.1 0 2.1.2 3 .7.9.4 1.7 1.1 2.4 1.9v-12h7.5v33.9h-6.7l-.4-2.6c-.7.9-1.5 1.7-2.5 2.2-1 .5-2.1.8-3.3.8-1.5 0-2.8-.3-4-.9-1.1-.6-2.1-1.5-2.9-2.5s-1.4-2.3-1.8-3.8-.6-3.1-.6-4.8v-.6zm7.5.5c0 .9.1 1.7.2 2.5s.3 1.4.6 2 .7 1 1.1 1.3c.5.3 1.1.5 1.8.5.8 0 1.6-.2 2.1-.5s1.1-.9 1.4-1.5v-9.1c-.7-1.4-1.8-2.1-3.5-2.1-.7 0-1.3.2-1.8.5s-.9.8-1.2 1.4c-.3.6-.5 1.3-.6 2.1s-.2 1.6-.2 2.6v.3zM71.9 81.9c0-.3-.1-.6-.2-.8-.1-.2-.4-.5-.7-.7-.4-.2-.8-.4-1.4-.6-.6-.2-1.4-.4-2.3-.6-1.2-.2-2.3-.6-3.3-1s-1.9-.9-2.7-1.5c-.8-.6-1.4-1.3-1.8-2.1-.4-.8-.7-1.7-.7-2.8 0-1 .2-2 .7-2.9.4-.9 1.1-1.7 1.9-2.4.8-.7 1.9-1.2 3.1-1.6 1.2-.4 2.6-.6 4.2-.6s3.1.2 4.3.6c1.3.4 2.4.9 3.3 1.6.9.7 1.6 1.5 2.1 2.4.5.9.7 2 .7 3.1h-7.5c0-.9-.2-1.6-.7-2.1-.5-.5-1.2-.8-2.3-.8-.4 0-.7.1-1.1.2-.3.1-.6.3-.9.5-.2.2-.4.4-.6.7-.1.3-.2.6-.2.9 0 .6.3 1.2.9 1.6.6.4 1.6.8 3 1 1.2.2 2.4.5 3.5.8 1.1.3 2.1.8 2.9 1.4.9.6 1.5 1.3 2 2.2.5.9.8 1.9.8 3.2 0 1.1-.2 2-.7 2.9-.5.9-1.2 1.7-2.1 2.3s-2 1.2-3.3 1.5-2.7.6-4.3.6c-1.7 0-3.2-.2-4.6-.7-1.3-.5-2.4-1.1-3.3-1.9-.9-.8-1.6-1.6-2-2.6-.5-1-.7-1.9-.7-2.9H65c0 1.1.4 1.9 1.1 2.4.7.5 1.6.8 2.7.8 1 0 1.8-.2 2.3-.6.5-.3.8-.8.8-1.5zM89.2 88.6h-7.5V54.8h7.5v33.8zM91.7 76.5c0-1.7.2-3.3.8-4.8.5-1.5 1.2-2.8 2.2-3.9 1-1.1 2.2-1.9 3.6-2.5 1.4-.6 3.1-.9 4.9-.9 1.9 0 3.5.3 5 .9 1.4.6 2.6 1.5 3.6 2.5 1 1.1 1.7 2.4 2.2 3.9.5 1.5.8 3.1.8 4.8v.5c0 1.8-.2 3.4-.7 4.8s-1.2 2.8-2.2 3.8c-1 1.1-2.2 1.9-3.6 2.5-1.4.6-3.1.9-5 .9s-3.5-.3-5-.9c-1.4-.6-2.6-1.5-3.6-2.5-1-1.1-1.7-2.4-2.2-3.8s-.8-3.1-.8-4.8v-.5zm7.5.4c0 .9.1 1.7.2 2.5s.3 1.5.7 2 .7 1 1.3 1.4 1.2.5 2 .5 1.4-.2 2-.5c.5-.3.9-.8 1.2-1.4.3-.6.5-1.2.7-2 .1-.8.2-1.6.2-2.5v-.5c0-.9-.1-1.7-.2-2.5s-.3-1.5-.7-2c-.3-.6-.7-1-1.3-1.4-.5-.3-1.2-.5-2-.5s-1.4.2-2 .5c-.5.3-.9.8-1.2 1.4-.3.6-.5 1.3-.7 2-.1.8-.2 1.6-.2 2.5v.5zM125.5 58.8v5.9h3.9v5.2h-3.9v10.9c0 .5 0 .9.1 1.2s.2.6.4.7c.2.2.4.3.7.4s.7.1 1.1.1h1.1c.3 0 .5-.1.8-.1v5.3c-.6.2-1.3.4-2 .5-.7.1-1.4.2-2.2.2-1.2 0-2.3-.1-3.2-.4-.9-.3-1.7-.7-2.4-1.3s-1.1-1.3-1.5-2.3c-.3-.9-.5-2-.5-3.3V69.9h-3v-5.2h3v-5.9h7.6zM131.8 85.1c0-.5.1-1 .3-1.5s.5-.8.8-1.2c.4-.3.8-.6 1.3-.8.5-.2 1.1-.3 1.7-.3.6 0 1.2.1 1.7.3.5.2.9.5 1.3.8.4.3.6.7.8 1.2s.3.9.3 1.5-.1 1-.3 1.5-.5.8-.8 1.2-.8.6-1.3.8c-.5.2-1.1.3-1.7.3-.6 0-1.2-.1-1.7-.3-.5-.2-.9-.5-1.3-.8s-.6-.7-.8-1.2-.3-.9-.3-1.5z"/></symbol>
  <symbol id='not-found' viewBox="0 0 512 512" ><path d="m480.683594 472.382812h-449.367188c-13.152344 0-23.816406-10.664062-23.816406-23.816406v-417.25c0-13.15625 10.664062-23.816406 23.816406-23.816406h449.367188c13.15625 0 23.816406 10.660156 23.816406 23.816406v417.25c0 13.152344-10.664062 23.816406-23.816406 23.816406zm0 0" fill="#f4f4f4"/><path d="m480.683594 7.5h-35c13.152344 0 23.816406 10.660156 23.816406 23.816406v417.25c0 13.152344-10.664062 23.816406-23.816406 23.816406h35c13.152344 0 23.816406-10.664062 23.816406-23.816406v-417.25c0-13.15625-10.664062-23.816406-23.816406-23.816406zm0 0" fill="#E6EDF2"/><path d="m7.5 96.964844h497v-65.648438c0-13.15625-10.664062-23.816406-23.816406-23.816406h-449.367188c-13.152344 0-23.816406 10.660156-23.816406 23.816406zm0 0" fill="#fa5d72"/><path d="m480.683594 7.5h-35c13.152344 0 23.816406 10.660156 23.816406 23.816406v65.648438h35v-65.648438c0-13.15625-10.664062-23.816406-23.816406-23.816406zm0 0" fill="#e35567"/><path d="m84.808594 52.230469c0 9.75-7.902344 17.65625-17.652344 17.65625s-17.65625-7.90625-17.65625-17.65625 7.90625-17.652344 17.65625-17.652344 17.652344 7.902344 17.652344 17.652344zm0 0" fill="#2cab72"/><path d="m144.570312 52.230469c0 9.75-7.90625 17.65625-17.65625 17.65625s-17.652343-7.90625-17.652343-17.65625 7.902343-17.652344 17.652343-17.652344 17.65625 7.902344 17.65625 17.652344zm0 0" fill="#f6d867"/><path d="m204.328125 52.230469c0 9.75-7.902344 17.65625-17.652344 17.65625s-17.65625-7.90625-17.65625-17.65625 7.90625-17.652344 17.65625-17.652344 17.652344 7.902344 17.652344 17.652344zm0 0" fill="#5994ce"/><path d="m358.957031 422.046875h-205.914062c-22.390625 0-40.542969-18.152344-40.542969-40.542969v-155.105468c0-22.390626 18.152344-40.542969 40.542969-40.542969h205.914062c22.390625 0 40.542969 18.152343 40.542969 40.542969v155.105468c0 22.390625-18.152344 40.542969-40.542969 40.542969zm0 0" fill="#9c9a9b"/><path d="m358.957031 185.855469h-38.5c22.390625 0 40.542969 18.152343 40.542969 40.542969v155.105468c0 22.390625-18.152344 40.542969-40.542969 40.542969h38.5c22.390625 0 40.542969-18.152344 40.542969-40.542969v-155.105468c0-22.390626-18.152344-40.542969-40.542969-40.542969zm0 0" fill="#858384"/><path d="m331 185.855469h-150v-22.375c0-9.644531 7.816406-17.464844 17.460938-17.464844h115.074218c9.644532 0 17.464844 7.820313 17.464844 17.464844zm0 0" fill="#495663"/><path d="m313.539062 146.015625h-30.667968c9.644531 0 17.460937 7.820313 17.460937 17.460937v22.378907h30.667969v-22.378907c0-9.640624-7.816406-17.460937-17.460938-17.460937zm0 0" fill="#3a444f"/><path d="m92.308594 52.230469c0-13.871094-11.28125-25.152344-25.152344-25.152344s-25.15625 11.28125-25.15625 25.152344c0 13.871093 11.285156 25.15625 25.152344 25.15625 13.871094 0 25.15625-11.285157 25.15625-25.15625zm-25.152344 10.15625c-5.601562 0-10.15625-4.558594-10.15625-10.15625 0-5.597657 4.554688-10.152344 10.152344-10.152344 5.601562 0 10.15625 4.554687 10.15625 10.152344 0 5.597656-4.554688 10.15625-10.152344 10.15625zm0 0"/><path d="m126.914062 77.386719c13.871094 0 25.15625-11.285157 25.15625-25.15625 0-13.871094-11.285156-25.152344-25.15625-25.152344-13.867187 0-25.152343 11.28125-25.152343 25.152344 0 13.871093 11.28125 25.15625 25.152343 25.15625zm0-35.308594c5.601563 0 10.15625 4.554687 10.15625 10.152344 0 5.597656-4.554687 10.15625-10.15625 10.15625-5.597656 0-10.152343-4.558594-10.152343-10.15625 0-5.597657 4.554687-10.152344 10.152343-10.152344zm0 0"/><path d="m186.675781 77.386719c13.867188 0 25.152344-11.285157 25.152344-25.15625 0-13.871094-11.285156-25.152344-25.152344-25.152344-13.871093 0-25.15625 11.28125-25.15625 25.152344 0 13.871093 11.285157 25.15625 25.15625 25.15625zm0-35.308594c5.597657 0 10.152344 4.554687 10.152344 10.152344 0 5.597656-4.554687 10.15625-10.152344 10.15625-5.601562 0-10.15625-4.558594-10.15625-10.15625 0-5.597657 4.554688-10.152344 10.15625-10.152344zm0 0"/><path d="m269.667969 59.730469h182.667969c4.140624 0 7.5-3.355469 7.5-7.5 0-4.140625-3.359376-7.5-7.5-7.5h-182.667969c-4.144531 0-7.5 3.359375-7.5 7.5 0 4.144531 3.355469 7.5 7.5 7.5zm0 0"/><path d="m511.578125 26.164062c-.042969-.257812-.089844-.511718-.140625-.769531-.023438-.125-.046875-.253906-.074219-.382812-2.925781-14.253907-15.570312-25.011719-30.679687-25.011719h-449.367188c-17.265625 0-31.316406 14.046875-31.316406 31.316406v417.25c0 17.269532 14.050781 31.316406 31.316406 31.316406h449.367188c17.265625 0 31.316406-14.050781 31.316406-31.316406v-417.25c0-1.753906-.144531-3.472656-.421875-5.152344zm-30.894531 438.71875h-449.367188c-8.996094 0-16.316406-7.320312-16.316406-16.316406v-344.101562h41.808594c4.144531 0 7.5-3.359375 7.5-7.5 0-4.144532-3.355469-7.5-7.5-7.5h-41.808594v-58.148438c0-8.996094 7.320312-16.316406 16.316406-16.316406h449.367188c7.308594 0 13.511718 4.832031 15.582031 11.46875.019531.066406.039063.128906.058594.191406.058593.195313.109375.386719.160156.582032.019531.066406.035156.132812.050781.199218.046875.195313.09375.394532.132813.589844.082031.398438.148437.804688.199219 1.210938.019531.136718.035156.273437.046874.410156.058594.546875.085938 1.101562.085938 1.664062v58.148438h-412.191406c-4.140625 0-7.5 3.355468-7.5 7.5 0 4.140625 3.359375 7.5 7.5 7.5h412.191406v344.101562c0 8.996094-7.320312 16.316406-16.316406 16.316406zm0 0"/><path d="m166.363281 298.246094c2.929688 2.929687 7.675781 2.925781 10.605469 0l14.695312-14.699219 14.699219 14.699219c2.929688 2.929687 7.675781 2.925781 10.605469 0 2.929688-2.929688 2.929688-7.679688 0-10.609375l-14.695312-14.695313 14.695312-14.695312c2.929688-2.929688 2.929688-7.679688 0-10.609375-2.929688-2.925781-7.679688-2.925781-10.605469 0l-14.699219 14.699219-14.695312-14.699219c-2.929688-2.925781-7.679688-2.925781-10.605469 0-2.929687 2.929687-2.929687 7.679687 0 10.609375l14.695313 14.695312-14.695313 14.695313c-2.929687 2.929687-2.929687 7.679687 0 10.609375zm0 0"/><path d="m295.03125 298.246094c2.929688 2.929687 7.675781 2.925781 10.605469 0l14.695312-14.699219 14.699219 14.699219c2.929688 2.929687 7.675781 2.925781 10.605469 0 2.929687-2.929688 2.929687-7.679688 0-10.609375l-14.695313-14.695313 14.695313-14.695312c2.929687-2.929688 2.929687-7.679688 0-10.609375-2.929688-2.925781-7.679688-2.925781-10.605469 0l-14.699219 14.699219-14.695312-14.699219c-2.929688-2.925781-7.679688-2.925781-10.605469 0-2.929688 2.929687-2.929688 7.679687 0 10.609375l14.695312 14.695312-14.695312 14.695313c-2.929688 2.929687-2.929688 7.679687 0 10.609375zm0 0"/><path d="m187.503906 359.773438h136.992188c4.140625 0 7.5-3.355469 7.5-7.5 0-4.140626-3.359375-7.5-7.5-7.5h-136.992188c-4.140625 0-7.5 3.359374-7.5 7.5 0 4.144531 3.359375 7.5 7.5 7.5zm0 0"/><path d="m358.957031 178.355469h-20.457031v-14.875c0-13.765625-11.199219-24.964844-24.960938-24.964844h-115.078124c-13.761719 0-24.960938 11.199219-24.960938 24.964844v14.875h-20.457031c-26.492188 0-48.042969 21.554687-48.042969 48.042969v155.105468c0 26.488282 21.550781 48.042969 48.042969 48.042969h133.292969c4.140624 0 7.5-3.359375 7.5-7.5 0-4.144531-3.359376-7.5-7.5-7.5h-133.292969c-18.21875 0-33.042969-14.824219-33.042969-33.042969v-155.105468c0-18.21875 14.824219-33.042969 33.042969-33.042969h205.914062c18.21875 0 33.042969 14.824219 33.042969 33.042969v155.105468c0 18.21875-14.824219 33.042969-33.042969 33.042969h-44.625c-4.140625 0-7.5 3.355469-7.5 7.5 0 4.140625 3.359375 7.5 7.5 7.5h44.625c26.492188 0 48.042969-21.554687 48.042969-48.042969v-155.105468c0-26.488282-21.550781-48.042969-48.042969-48.042969zm-170.457031 0v-14.875c0-5.496094 4.46875-9.964844 9.960938-9.964844h115.074218c5.496094 0 9.964844 4.46875 9.964844 9.964844v14.875zm0 0"/></symbol>
</svg>
