<svg version="1.1" xmlns="http://www.w3.org/2000/svg">
  <symbol id="logo" viewBox="0 0 130 25"><path fill="#424143" d="M28.1 17.7v-11h3.7c.5 0 1 .1 1.6.2.3.1.7.2 1 .5 1.7 1.2 1 3.8-.6 4.6.9.3 1.5.9 1.9 1.8.8 2.3-1.5 4.1-3.6 4.1h-4v-.2zm1.5-6.3h2.2c.5 0 1.1-.1 1.5-.4.7-.3.6-1.5.4-2.1-.3-.8-1.1-1-1.9-1h-2.2v3.5zm0 1.1v4H32c1 0 2-.4 2.2-1.5.2-1-.2-1.9-1.1-2.3-.3-.1-.6-.1-.9-.1-.1-.1-2.6-.1-2.6-.1zm9.8 3.1l1.9-6.2h1.5L39.4 19l-.3.6c-.6.7-1.2 1.4-2.2 1.4h-.7v-1.1h.4c.4 0 .8-.1 1.1-.3.1-.1.3-.2.4-.4l.3-.6.3-.8-2.9-8.2h1.6c0-.1 2 6 2 6zm13.1-.8h-4.6l-1 2.9h-1.5l4.2-11.1h1.3l4.2 11.1h-1.5c-.1 0-1.1-2.9-1.1-2.9zm-4.2-1.1h3.8l-1.9-5.1c0-.1-1.9 5.1-1.9 5.1zm6.8-.1c0-1.2.3-2 .8-3 1-1.3 3.7-1.7 4.7-.2V6H62v11.7h-1.3l-.1-.8c-.3.3-.6.6-.9.7-1.4.7-2.7.2-3.8-.8-.6-.8-.8-2-.8-3v-.2zm1.4.1c0 .9.2 2.2 1.1 2.7.3.1 1.2.4 1.6.1.2-.1.4-.1.5-.2.3-.2.6-.6.7-.9v-3.8c-.1-.2-.2-.3-.3-.4l-.4-.4c-.2-.1-.3-.2-.5-.2-.4-.2-1.1-.1-1.6.1-.3.2-.5.4-.6.6-.4.6-.5 1.3-.5 2.1v.3zm11.6 1.8c0-.1 0-.3-.1-.4 0-.1-.1-.2-.3-.4-.4-.4-1-.5-1.5-.6l-1.3-.3s-.6-.3-.9-.5l-.6-.6c-.6-1.3.5-2.6 1.7-3 1.8-.5 4.4 0 4.4 2.4H68c0-.4-.2-.7-.4-.9-.7-.7-2.3-.5-2.8.4-.2.2-.2.7 0 .8 0 .3.7.6.9.6.2.1.5.2.9.2.5.1.9.2 1.3.4.4.1.6.3.9.5.7.7 1 1.5.5 2.4-.6 1.9-4.3 1.8-5.4.6-.5-.4-.8-1.1-.8-1.8h1.4c0 1.6 2.7 2.2 3.4.8.2-.2.2-.5.2-.6zm3.9 2.2h-1.4V6H72v11.7zm1.1-4.1c0-2.2 1.2-4.1 3.5-4.2 2.5-.1 3.8 1.9 3.8 4.2v.2c0 .6-.1 1.1-.2 1.7-.5 1.2-1.2 2.1-2.6 2.4-1.3.3-2.6-.1-3.6-1.1-.7-.9-.9-1.9-.9-3v-.2zm1.4.1c0 .6 0 1.6.5 2.1.2.3.4.5.7.6.6.4 1.5.2 2.1 0 .3-.2.5-.4.7-.6.4-.6.5-1.3.5-2.1v-.2c0-.4 0-.8-.1-1.1-.1-.4-.2-.7-.4-.9-.2-.3-.4-.5-.7-.6-.6-.4-1.5-.2-2.1 0-.6.4-.9.9-1.1 1.6-.1.4-.1.7-.1 1.2 0-.1 0 0 0 0zm8.9-6.2v2H85v1h-1.6v5.1c0 .2 0 .4.1.5 0 .2.3.4.5.4h.7c.1 0 .2 0 .3-.1v1.1c-.6 0-1.1.3-1.7.1-.5-.2-.9-.6-1.2-1.1-.1-.3-.1-.6-.1-1v-5.1h-1.5v-1H82v-2h1.4v.1z"/><path d="M13.1 6.8v7.5c0 1.1-.4 2.2-1.2 3-.4.3-.8.6-1.4.8-1.1.4-2.4.4-3.5 0-.5-.2-1-.4-1.4-.8-.4-.3-.7-.8-.9-1.3-.2-.5-.3-1.1-.3-1.7V6.8h2.3v7.5c0 .7.2 1.3.5 1.6.6.6 1.7.7 2.4.3.8-.4 1-1.1 1-2V6.8h2.5zm4.4 11.4h-2.3V6.8h2.3v11.4zm2.2-1.1c0-.2 0-.3.1-.5.1-.1.1-.3.3-.4.4-.4 1-.4 1.5-.3.2.1.3.1.4.3.1.1.2.2.3.4.1.3.1.7 0 1-.1.1-.1.3-.3.4-.1.1-.2.2-.4.2-.5.2-1.1.1-1.5-.2-.1-.1-.2-.2-.3-.4-.1-.2-.1-.4-.1-.5z" fill="#6C217F"/></symbol>
  <symbol id="checklist-incomplete" viewBox="0 0 16 16"><path d="M3.1 2.3c0-.4.3-.8.8-.8h5.7l3.2 2.8v9.4c0 .4-.3.8-.8.8H3.9c-.4 0-.8-.3-.8-.8V2.3z"/><path fill="#fff" d="M9.6 1.5v2c0 .4.3.8.8.8h2.4L9.6 1.5zm-4 8.5l-.8-.7V9c.1-.1.2-.1.3 0l.4.5.9-1.1c.1-.1.2-.1.3 0 .1.1.1.2 0 .3.1 0-1.1 1.3-1.1 1.3zm0 2.6l-.7-.7c-.1-.1-.1-.2 0-.3.1-.1.2-.1.3 0l.4.5.9-1.1c.1-.1.2-.1.3 0 .1.1.1.2 0 .3l-1.2 1.3zM6 6.5l.6-.5c.1-.1.1-.2 0-.3-.1-.1-.2-.1-.2 0l-.6.5-.6-.6h-.3c-.1.1-.1.3 0 .4l.6.6-.6.5c-.1.1-.1.2 0 .2.1.1.2.1.3 0l.6-.6.6.6s.1.1.2.1.1 0 .2-.1 0-.2 0-.3c-.1.1-.8-.5-.8-.5zm4.9-.3h-3c-.1 0-.2-.1-.2-.2s.1-.2.2-.2H11c.1 0 .2.1.2.2-.1.1-.2.2-.3.2zm-1.3 1H7.8c-.1 0-.1-.1-.1-.2v-.1c0-.1.1-.1.1-.1h1.8c.1 0 .1.1.1.1V7c.1.1 0 .2-.1.2zm1.3 1.6h-3c-.1 0-.2-.1-.2-.2s.1-.2.2-.2H11c.1 0 .2.1.2.2-.1.1-.2.2-.3.2zm-1.3 1H7.8c-.1 0-.1-.1-.1-.1v-.2c0-.1.1-.1.1-.1h1.8c.1 0 .1.1.1.1v.1c.1.1 0 .2-.1.2zm1.3 1.6h-3c-.1 0-.2-.1-.2-.2s.1-.2.2-.2H11c.1 0 .2.1.2.2-.1.1-.2.2-.3.2zm-1.3 1H7.8c-.1 0-.1-.1-.1-.1v-.1c0-.1.1-.1.1-.1h1.8c.1 0 .1.1.1.1v.1c.1 0 0 .1-.1.1z"/></symbol>
  <symbol id="search" viewBox="0 0 16 16"><path d="M14.8 12.8l-3.5-3.5c.9-1.6 1.1-3.6 0-5.6C10.5 2 8.7 1 6.8 1 4.1 1 1.7 2.8 1.1 5.4c-.7 3.6 2 6.7 5.4 6.7 1 0 2-.3 2.8-.8l3.4 3.4.1.1c.3.3.7.3.9 0l1.1-1.1c.3-.2.3-.7 0-.9zm-8.3-2.1c-2.9 0-5-2.9-3.7-5.9.6-1.5 2.2-2.4 3.7-2.4 1.1 0 2.1.4 2.9 1.2.8.8 1.2 1.8 1.2 2.9 0 1.1-.4 2.1-1.2 2.9-.7.9-1.8 1.3-2.9 1.3z"/></symbol>
  <symbol id="cancel" viewBox="0 0 16 16"><path d="M4.1 4.1c-2.2 2.2-2.2 5.7 0 7.9s5.7 2.2 7.9 0 2.2-5.7 0-7.9-5.9-2.3-7.9 0zm5.2 3.8l2.1 2.1-1.4 1.4-2-2.1-2.1 2.1L4.5 10l2.1-2.1-2.1-2.1 1.4-1.4L8 6.6l2.1-2.1 1.4 1.4-2.2 2z"/></symbol>
  <symbol id="list" viewBox="0 0 16 16"><path d="M14.4 13H5.6c-.3 0-.6.2-.6.5s.3.5.6.5h8.8c.3 0 .6-.2.6-.5s-.3-.5-.6-.5zm0-5H5.6c-.3 0-.6.2-.6.5s.3.5.6.5h8.8c.3 0 .6-.2.6-.5s-.3-.5-.6-.5zM5.6 4h8.8c.3 0 .6-.2.6-.5s-.3-.5-.6-.5H5.6c-.3 0-.6.2-.6.5s.3.5.6.5zM3.2 2H1.6c-.3 0-.6.3-.6.6v1.6c0 .4.3.6.6.6h1.6c.3 0 .6-.3.6-.6V2.6c0-.3-.3-.6-.6-.6zm0 5H1.6c-.3 0-.6.3-.6.6v1.6c0 .4.3.6.6.6h1.6c.3 0 .6-.3.6-.6V7.6c0-.3-.3-.6-.6-.6zm0 5H1.6c-.3 0-.6.3-.6.6v1.6c0 .4.3.6.6.6h1.6c.3 0 .6-.3.6-.6v-1.6c0-.3-.3-.6-.6-.6z" fill="#5A5A5A"/></symbol>
  <symbol id="calendar" viewBox="0 0 50 50"><path d="M40.5 4h-3.7v3.3c0 1.3-1 2.3-2.3 2.3-1.3 0-2.3-1-2.3-2.3V4H17.8v3.3c0 1.3-1 2.3-2.3 2.3s-2.3-1-2.3-2.3V4H9.5C7 4 5 6 5 8.5v35.9c0 2.5 2 4.4 4.5 4.4h31c2.5 0 4.5-2 4.5-4.4V8.5C45 6 43 4 40.5 4zm1.6 40.3c0 .9-.7 1.6-1.6 1.6h-31c-.9 0-1.6-.7-1.6-1.6V15.1H42v29.2z" fill="#838383"/><path d="M15.5 8.2c.5 0 .9-.4.9-.8V2c0-.5-.4-.8-.9-.8s-.9.4-.9.8v5.3c.1.5.4.9.9.9zm19 0c.5 0 .9-.4.9-.8V2c0-.5-.4-.8-.9-.8s-.9.4-.9.8v5.3c0 .5.4.9.9.9zM37 20h3v3h-3zm-4.5 0h3v3h-3zM28 20h3v3h-3zm-4.5 0h3v3h-3zM19 20h3v3h-3zm18 6h3v3h-3zm-4.5 0h3v3h-3zM28 26h3v3h-3zm-4.5 0h3v3h-3zM19 26h3v3h-3zm-4.5 0h3v3h-3zM10 26h3v3h-3zm27 6h3v3h-3zm-4.5 0h3v3h-3zM28 32h3v3h-3zm-4.5 0h3v3h-3zM19 32h3v3h-3zm-4.5 0h3v3h-3zM10 32h3v3h-3zm18 6h3v3h-3zm-4.5 0h3v3h-3zM19 38h3v3h-3zm-4.5 0h3v3h-3zM10 38h3v3h-3z" fill="#838383"/></symbol>
  <symbol id="arrow-bracket" viewBox="0 0 16 16"><path d="M11 3L8.1 8l2.9 5H8.4L5 8.1v-.2L8.4 3H11z"/></symbol>
  <symbol id='caret-down' viewBox='0 0 16 16'><path d='M8.3 11.3L12 5.1c.1-.2.1-.4-.1-.5-.1 0-.1-.1-.2-.1H4.4c-.2 0-.4.1-.4.4v.2l3.6 6.2c.1.2.3.3.5.1.2 0 .2 0 .2-.1z'/></symbol>
</svg>
