<svg xmlns="http://www.w3.org/2000/svg" viewBox="0 0 16 16"><g><path fill="#6D6E71" d="M15,1.4H1C0.7,1.4,0.5,1.7,0.5,2V14c0,0.3,0.2,0.5,0.5,0.5h14c0.3,0,0.5-0.2,0.5-0.5V2C15.5,1.7,15.3,1.4,15,1.4z M1.5,13.5V3.4h12.9v10.1H1.5z"></path><path fill="#6D6E71" d="M4.2,4.8H2.8c-0.2,0-0.3,0.1-0.3,0.3v6.8c0,0.2,0.1,0.3,0.3,0.3h1.4c0.2,0,0.3-0.1,0.3-0.3V5.1C4.5,4.9,4.3,4.8,4.2,4.8z"></path><path fill="#6D6E71" d="M13.2,4.8h-1.4c-0.2,0-0.3,0.1-0.3,0.3v6.8c0,0.2,0.1,0.3,0.3,0.3h1.4c0.2,0,0.3-0.1,0.3-0.3V5.1  C13.5,4.9,13.3,4.8,13.2,4.8z"></path><path fill="#6D6E71" d="M10.3,4.8H5.6c-0.2,0-0.3,0.1-0.3,0.3v6.8c0,0.2,0.1,0.3,0.3,0.3h4.6c0.2,0,0.3-0.1,0.3-0.3V5.1C10.6,4.9,10.4,4.8,10.3,4.8z M9.9,11.6H6V5.4h4V11.6z"></path></g></svg>
