<svg xmlns="http://www.w3.org/2000/svg" viewBox="0 0 16 16"><path fill="#6D6E71" d="M15,4.6c0-0.1,0-0.1,0-0.2c0,0,0-0.1,0-0.1c-0.2-0.6-0.7-1-1.3-1h0.1c0,0-2.5-0.4-5.8-0.4C4.7,3,2.2,3.4,2.2,3.4h0.1c-0.6,0-1.1,0.4-1.3,1c0,0,0,0,0,0.1c0,0.1,0,0.1,0,0.2C0.8,5.2,0.7,6.5,0.7,8c0,1.5,0.2,2.8,0.3,3.5c0,0.1,0,0.1,0,0.2c0,0,0,0,0,0.1c0.2,0.6,0.7,1,1.3,1H2.2c0,0,2.5,0.4,5.8,0.4c3.3,0,5.8-0.4,5.8-0.4h-0.1c0.6,0,1.1-0.4,1.3-1c0,0,0,0,0-0.1c0-0.1,0-0.1,0-0.2c0.1-0.6,0.2-1.9,0.3-3.5C15.3,6.5,15.1,5.2,15,4.6zM10.1,8.3l-3,2.1c-0.1,0-0.1,0.1-0.2,0.1c-0.1,0-0.1,0-0.2,0c-0.1-0.1-0.2-0.2-0.2-0.3V5.9c0-0.1,0.1-0.3,0.2-0.3c0.1-0.1,0.3,0,0.4,0l3,2.1c0.1,0.1,0.1,0.2,0.1,0.3C10.3,8.2,10.2,8.3,10.1,8.3z"></path></svg>
