<svg xmlns="http://www.w3.org/2000/svg" viewBox="0 0 29.91 27.71"><defs><style>.cls-1{fill:silver;}.cls-2{fill:#898989;}.cls-3{fill:#b3b3b3;}</style></defs><title>Greyscale 30px no text</title><g id="Layer_2" data-name="Layer 2"><g id="Layer_1-2" data-name="Layer 1"><polygon class="cls-1" points="17.43 4.21 11.7 0.94 0.21 7.73 11.63 14.23 17.61 11.12 12 7.4 17.43 4.21"/><polygon class="cls-2" points="23.23 21.32 11.67 27.71 11.63 14.23 17.61 11.12 17.61 18.01 23.23 14.53 23.23 21.32"/><polygon class="cls-2" points="17.43 4.21 17.61 11.12 12 7.4 17.43 4.21"/><polygon class="cls-1" points="23.23 14.53 17.61 18.01 17.61 11.12 23.23 14.53"/><polygon class="cls-3" points="0 21.32 11.67 27.71 11.63 14.23 0.21 7.73 0 21.32"/><path class="cls-1" d="M18.5,3.47C18.63,3.43,24,0,24,0L29.8,3.29,24.21,7Z"/><polygon class="cls-3" points="18.61 10.33 18.5 3.47 24.21 6.97 24.32 13.69 18.61 10.33"/><polygon class="cls-2" points="29.91 10.06 24.32 13.69 24.21 6.97 29.8 3.29 29.91 10.06"/></g></g></svg>