<svg xmlns="http://www.w3.org/2000/svg" viewBox="0 0 15.99 14.81"><defs><style>.cls-1{fill:silver;}.cls-2{fill:#898989;}.cls-3{fill:#b3b3b3;}</style></defs><title>Greyscale 16px no text</title><g id="Layer_2" data-name="Layer 2"><g id="Layer_1-2" data-name="Layer 1"><polygon class="cls-1" points="9.32 2.25 6.25 0.5 0.11 4.13 6.22 7.61 9.41 5.94 6.41 3.96 9.32 2.25"/><polygon class="cls-2" points="12.42 11.39 6.24 14.81 6.22 7.61 9.41 5.94 9.41 9.63 12.42 7.76 12.42 11.39"/><polygon class="cls-2" points="9.32 2.25 9.41 5.94 6.41 3.96 9.32 2.25"/><polygon class="cls-1" points="12.42 7.76 9.41 9.63 9.41 5.94 12.42 7.76"/><polygon class="cls-3" points="0 11.39 6.24 14.81 6.22 7.61 0.11 4.13 0 11.39"/><path class="cls-1" d="M9.89,1.85c.07,0,3-1.85,3-1.85l3.08,1.76-3,2Z"/><polygon class="cls-3" points="9.95 5.52 9.89 1.85 12.94 3.73 13 7.32 9.95 5.52"/><polygon class="cls-2" points="15.99 5.38 13 7.32 12.94 3.73 15.93 1.76 15.99 5.38"/></g></g></svg>