<svg xmlns="http://www.w3.org/2000/svg" viewBox="0 0 16 16"><path class="ast4" d="M3.2 7.5c.2 0 .3-.1.3-.3v-1c0-.2-.1-.3-.3-.3s-.3.1-.3.3V7c0 .3.1.5.3.5zm0-2.7c.2 0 .3-.1.3-.3v-1c0-.2-.1-.3-.3-.3-.2 0-.3.2-.3.3v.8c0 .3.1.5.3.5zm0-2.7c.2 0 .3-.1.3-.3v-.2h.1c.2 0 .3-.1.3-.3S3.7 1 3.5 1h-.3c-.2 0-.3.1-.3.3v.4c0 .2.1.4.3.4zm4.2-.5h.8c.2 0 .3-.1.3-.3S8.3 1 8.1 1h-.7c-.2 0-.3.1-.3.3-.1.2.1.3.3.3zm2.2 0h.8c.2 0 .3-.1.3-.3s-.2-.3-.4-.3h-.7c-.2 0-.3.1-.3.3s.1.3.3.3zm-4.5 0h.8c.2 0 .3-.1.3-.3S6 1 5.8 1h-.7c-.2 0-.3.1-.3.3s.1.3.3.3zm7.5-.6h-.8c-.2 0-.3.1-.3.3s.1.3.3.3h.8c.2 0 .3-.1.3-.3s-.1-.3-.3-.3zm2 0h-.4c-.2 0-.3.1-.3.3s.1.3.3.3h.1v.1c0 .2.1.3.3.3.2 0 .3-.1.3-.3v-.4c-.1-.2-.2-.3-.3-.3zm0 7.5c-.2 0-.3.1-.3.3v.8c0 .2.1.3.3.3.2 0 .3-.1.3-.3v-.8c-.1-.1-.2-.3-.3-.3zm0-2.6c-.2 0-.3.1-.3.3V7c0 .2.1.3.3.3.2 0 .3-.1.3-.3v-.8c-.1-.2-.2-.3-.3-.3zm0-2.7c-.2 0-.3.1-.3.3v.8c0 .2.1.3.3.3.2 0 .3-.1.3-.3v-.8c-.1-.1-.2-.3-.3-.3zm0 8c-.2 0-.3.1-.3.3v.1h-.1c-.2 0-.3.1-.3.3 0 .2.1.3.3.3h.4c.2 0 .3-.1.3-.3v-.4c-.1-.2-.2-.3-.3-.3zm-2 .4h-.8c-.2 0-.3.1-.3.3 0 .2.1.3.3.3h.8c.2 0 .3-.1.3-.3 0-.2-.1-.3-.3-.3zm-2.3 0h-.7c-.2 0-.3.1-.3.3 0 .2.1.3.3.3h.8c.2 0 .3-.1.3-.3-.1-.2-.2-.3-.4-.3zM8.3 8.1h-7c-.1 0-.2.1-.2.1v6.6c0 .1.1.1.2.1h7c.1 0 .2-.1.2-.1V8.3c-.1-.1-.1-.2-.2-.2zM12.8 3.6c0-.1-.1-.1-.2-.1h-2.1c-.1 0-.2.1-.2.2s.1.2.2.2h1.7L8.9 7.1c-.1.1-.1.2 0 .3.1 0 .1.1.1.1s.1 0 .1-.1l3.3-3.3v1.6c0 .1.1.2.2.2s.2-.1.2-.2v-2c.1 0 .1-.1 0-.1z" fill="#5a5a5a"></path><path class="ast3" d="M0 0h16v16H0z" fill="none"></path></svg>
