<svg xmlns="http://www.w3.org/2000/svg" viewBox="0 0 150 150" fill="#5a5a5a"><path d="M96.2,111.2c-7.8,5.1-17.1,8.1-27.1,8.1c-6.5,0-12.7-1.3-18.4-3.6v-10c22.9-9.3,26.8-13.2,27.7-16 c0.1-0.2,0.1-0.4,0.1-0.7v-3.8c0-0.6-0.2-1.2-0.6-1.6c-2.2-2.3-3.9-5.6-5-9.4c-0.1-0.5-0.5-1-0.9-1.3c-0.8-0.6-1.4-1.5-1.5-2.6 c-0.2-1.1,0.1-2.2,0.8-3c0.3-0.4,0.5-0.9,0.5-1.4v-8.5c0-8.3,4.5-12.5,13.4-12.5c8.8,0,13.4,4.3,13.4,12.5V66c0,0.1,0,0.2,0,0.3 c1.4-1,3-1.9,4.6-2.6v-6.2c0-10.7-6.7-17.1-18-17.1c-11.4,0-18,6.2-18,17.1v7.8C66,67,65.6,69,65.9,71.1c0.3,2,1.3,3.8,2.7,5.2 c1.2,3.9,3,7.3,5.3,9.9v2.4c-0.6,0.9-4.2,4.4-24.6,12.5c-1.9,0.7-3.1,2.6-3.1,4.7v7.9c-6.5-3.4-12.1-8.2-16.5-14 c1.5-0.2,4.1-0.8,6.2-1.1c6.1-1.1,10.1-1.9,11-4.8c0.1-0.2,0.1-0.5,0.1-0.7v-4.5c0-1.3-1-2.3-2.3-2.3c-5.4,0-8.9-0.9-11-1.7 c3.1-5.1,4.1-14.8,4.4-18.2c0-5.9,3.3-11.1,8.5-13.6c5-2.4,10.4-1.9,14.5,1.3c1,0.8,2.4,0.6,3.2-0.4c0.8-1,0.6-2.5-0.4-3.2 c-5.5-4.3-12.9-5-19.4-1.8c-6.9,3-11.2,9.8-11.2,17.3c-0.6,7.1-2.6,16-4.6,17.1c-0.7,0.4-1.1,1.1-1.2,1.8c-0.1,0.8,0.3,1.5,0.9,2 c0.5,0.4,4.5,3.3,13.8,3.7v1.7c-1.2,0.6-14.1,2.9-15.5,3.2c-4.6-7.5-7.3-16.4-7.3-25.8C19.4,42.3,41.7,20,69.1,20 c24.8,0,45.4,18.3,49.1,42.1c1.7,0.3,3.3,0.8,4.8,1.4c-3.1-27-26.1-48.1-53.9-48.1c-29.9,0-54.3,24.4-54.3,54.3 c0,30.1,24.6,54.3,54.3,54.3c10.8,0,20.9-3.2,29.3-8.6C97.7,114,96.9,112.6,96.2,111.2z"></path><g><path d="M113.4,66.2c-11.8,0-21.4,9.5-21.4,21.2c0,10.9,17.5,37.6,19.5,40.6c0.4,0.6,1.1,1,1.9,1s1.5-0.4,1.9-1 c2-3,19.5-29.7,19.5-40.6C134.8,75.7,125.2,66.2,113.4,66.2z M113.4,122.5c-6-9.5-16.8-27.9-16.8-35.1c0-9.2,7.5-16.7,16.8-16.7 s16.8,7.5,16.8,16.7C130.2,94.6,119.4,113.1,113.4,122.5z"></path><path d="M113.4,79.1c-3.9,0-7,3.1-7,7c0,3.8,3.1,7,7,7s7-3.1,7-7S117.3,79.1,113.4,79.1z M113.4,88.4 c-1.3,0-2.4-1.1-2.4-2.4s1.1-2.4,2.4-2.4s2.4,1.1,2.4,2.4C115.9,87.4,114.8,88.4,113.4,88.4z"></path></g><g><path d="M122.6,122.4c-0.8-0.2-1.6,0.4-1.7,1.2c-0.2,0.8,0.4,1.6,1.2,1.7c5.8,1.1,8,3.1,8,4c0,1.9-6.6,4.8-16.6,4.8 s-16.6-2.9-16.6-4.8c0-1,2.2-2.9,8.1-4c0.8-0.2,1.3-0.9,1.2-1.7c-0.2-0.8-0.9-1.3-1.7-1.2c-6.7,1.3-10.5,3.8-10.5,7 c0,5.1,9.8,7.8,19.6,7.8c9.7,0,19.6-2.7,19.6-7.8C133,126.2,129.2,123.6,122.6,122.4z"></path></g></svg>
