<svg xmlns="http://www.w3.org/2000/svg" viewBox="0 0 472 100"><path fill="#5BB75B" d="M469.6 23.1h-7.3v-1.3c0-1.2-1.9-1.2-1.9 0v1.3h-9v-1.3c0-1.2-1.9-1.2-1.9 0v1.3h-9v-1.3c0-1.2-1.9-1.2-1.9 0v1.3h-9v-1.3c0-1.2-1.9-1.2-1.9 0v1.3h-7.2c-1.3 0-2.4 1.1-2.4 2.4V84c0 1.3 1.1 2.4 2.4 2.4h48.9c1.3 0 2.4-1.1 2.4-2.4V25.5c.2-1.3-.9-2.4-2.2-2.4zm-8.2 11.6c.5 0 1-.4 1-1v-2.3c2.4 1 1.6 4.7-1 4.7s-3.3-3.7-.9-4.7v2.3c0 .6.4 1 .9 1zm-10.9 0c.5 0 1-.4 1-1v-2.3c2.4 1 1.6 4.7-1 4.7s-3.3-3.7-1-4.7v2.3c.1.6.5 1 1 1zm-10.8 0c.5 0 1-.4 1-1v-2.3c2.4 1 1.6 4.7-1 4.7s-3.3-3.7-1-4.7v2.3c0 .6.4 1 1 1zm-10.9 0c.5 0 1-.4 1-1v-2.3c2.4 1 1.6 4.7-1 4.7s-3.3-3.7-.9-4.7v2.3c-.1.6.4 1 .9 1zm38.4 46.9H423V27.9h4.8v1.7c-2.2.5-3.6 2.6-3.4 4.8.3 2.1 2.2 3.8 4.3 3.8 2.2 0 4-1.7 4.3-3.8.3-2.2-1.2-4.3-3.4-4.8v-1.7h9v1.7c-2.2.5-3.6 2.6-3.4 4.8.3 2.1 2.2 3.8 4.3 3.8 2.2 0 4-1.7 4.3-3.8.3-2.2-1.2-4.3-3.4-4.8v-1.7h9v1.7c-2.2.5-3.6 2.6-3.4 4.8.3 2.1 2.2 3.8 4.3 3.8 2.2 0 4-1.7 4.3-3.8.3-2.2-1.2-4.3-3.4-4.8v-1.7h9v1.7c-2.2.5-3.6 2.6-3.4 4.8.3 2.1 2.2 3.8 4.3 3.8 2.2 0 4-1.7 4.3-3.8.3-2.2-1.2-4.3-3.4-4.8v-1.7h4.9v53.7z"></path><path fill="#5BB75B" d="M461.6 70h-24.3c-1.2 0-1.2 1.9 0 1.9h24.3c1.2 0 1.2-1.9 0-1.9zm0-11.6h-24.3c-1.2 0-1.2 1.9 0 1.9h24.3c1.2 0 1.2-1.9 0-1.9zm0-11.7h-24.3c-1.2 0-1.2 1.9 0 1.9h24.3c1.2.1 1.2-1.9 0-1.9zm-29.5-2H428c-.5 0-1 .4-1 1v4.1c0 .5.4 1 1 1h4.1c.5 0 1-.4 1-1v-4.1c-.1-.6-.5-1-1-1zm0 11.6H428c-.5 0-1 .4-1 1v4.1c0 .5.4 1 1 1h4.1c.5 0 1-.4 1-1v-4.1c-.1-.6-.5-1-1-1zm0 11.6H428c-.5 0-1 .4-1 1V73c0 .5.4 1 1 1h4.1c.5 0 1-.4 1-1v-4.1c-.1-.5-.5-1-1-1z"></path><path fill="#333" d="M62.7 39.4c-.5 0-1 .4-1 1V48h-7.6c-.5 0-1 .4-1 1 0 .5.4 1 1 1h7.6v7.6c0 .5.4 1 1 1 .5 0 1-.4 1-1V50h7.6c.5 0 1-.4 1-1 0-.5-.4-1-1-1h-7.6v-7.6c0-.5-.4-1-1-1zm162.9 0c-.5 0-1 .4-1 1V48H217c-.5 0-1 .4-1 1 0 .5.4 1 1 1h7.6v7.6c0 .5.4 1 1 1 .5 0 1-.4 1-1V50h7.6c.5 0 1-.4 1-1 0-.5-.4-1-1-1h-7.6v-7.6c0-.5-.4-1-1-1zM376.1 48c-.5 0-1 .4-1 1 0 .5.4 1 1 1h17.2c.5 0 1-.4 1-1 0-.5-.4-1-1-1h-17.2zm0 9.4c-.5 0-1 .4-1 1 0 .5.4 1 1 1h17.2c.5 0 1-.4 1-1 0-.5-.4-1-1-1h-17.2z"></path><path fill="#9768D1" d="M354.5 62c-3.2-12-25.3-14.7-29.1-15.1-10.1-10-13.8-10.8-14.7-10.8H295c-15.6 0-24.9 7-29.9 12.9-5.4 6.3-7.6 13.4-7.9 15.8-.1 1 .2 1.9.9 2.6 2 2.2 7 2.4 8.6 2.4h2.2c-1.3-5.7 3.2-11.2 9-11.1 5.8.1 10.1 5.8 8.6 11.4l37.8.6c-1.6-5.8 2.9-11.6 8.9-11.5 6 .1 10.3 6.1 8.5 11.8l3.7.1h.3c3.6 0 6.2-1 7.7-3 2-2.6 1.1-6 1.1-6.1zm-60.6-14.7h-14.3C281 40 293.2 38 293.2 38h.7v9.3zm2.6 0V38h14.4s8.3 4.7 11.7 9.3h-26.1z"></path><path fill="#553285" d="M277.7 61.9c-5.5 0-8 7-3.8 10.5s10.7-.3 9.7-5.7c-.6-2.8-3.1-4.8-5.9-4.8zm55.5 0c-5.5 0-8 7-3.8 10.5s10.7-.3 9.7-5.7c-.6-2.8-3.1-4.8-5.9-4.8z"></path><path fill="#4FAAC9" d="M8.6 9.4c0 .5.5 1.2 1.1 1.1.2 2.9 2.7 5.1 5.6 5.1 2.9 0 5.3-2.3 5.6-5.1 1.1 0 1.5-1.6.5-2.1 1.4-4.1-1.7-8.4-6-8.4S8 4.4 9.4 8.4c-.5.2-.8.6-.8 1zm22 23.1c0-7.6-4-13-9.7-13h-3.6l.2.2c.6.6-.1 2.6-.6 3.7-1-.2-2-.2-3 0-.5-1.1-1.3-3.1-.7-3.7l.2-.2H9.7C4 19.5 0 24.8 0 32.4c0 .6-.2 14.5.9 20.5.9 4.4 2.4 5.7 3.6 6L6 97.1c.1.5.5.9 1 .9h5.2c.5 0 .9-.4.9-.9l1.6-32.4.6-.7.6.7 1.6 32.4c0 .5.4.9.9.9h5.2c.5 0 .9-.4.9-.9L26 58.9c1.1-.3 2.9-1.5 3.6-6 1.1-6 1-19.9 1-20.4zM15.4 44.6l-2.4-3 1.2-16.3c.8-.1 1.5-.1 2.3 0v.3l.6 7.9.6 8.1-2.3 3z"></path><path fill="#136480" d="M33.8 61.9h-4.1c-.8 0-1.4.6-1.4 1.4v19.4c0 .8.6 1.4 1.4 1.4h4.1c.8 0 1.4-.6 1.4-1.4V63.2c0-.7-.6-1.3-1.4-1.3z"></path><path fill="#EFC94C" d="M187.8 13.2L169 8.9c-.7-.2-1.4-.1-2 .2l-22 10.1-20.2-8.4c-.8-.3-1.6-.3-2.4 0l-21.8 8.5c-1.2.5-2 1.6-2 2.9V82c0 1 .5 2 1.4 2.6.9.6 2 .7 2.9.3l20.6-8 20.3 8.5c.8.3 1.7.3 2.5 0l1.6-.7-2.8-5.6-.1-.1-20.2-8.4c-.7-.3-1.6-.3-2.4 0l-17.5 6.8V24.3l18.6-7.3 20.3 8.5c.8.3 1.7.3 2.5 0l22.3-10.2 15.3 3.5v53.4l-3-.7-1.5 3c-.2.5-.5 1.1-.8 1.6v.1l-.5 1.1 8.3 1.9c.9.2 1.9 0 2.7-.6.8-.6 1.2-1.5 1.2-2.5V16.3c-.1-1.5-1.1-2.7-2.5-3.1z"></path><path fill="#EFC94C" d="M122.2 25.1v38c0 1.6 2.5 1.6 2.5 0v-38c.1-1.6-2.5-1.6-2.5 0zm21.6 7.4v19.1c0 1.6 2.5 1.6 2.5 0V32.5c0-1.6-2.5-1.6-2.5 0zm26.2 13V22.4c0-1.6-2.5-1.6-2.5 0v23.1c-.1 1.6 2.5 1.6 2.5 0z"></path><path fill="#F8951D" d="M161.2 51.6c-5 0-9.7 2.5-12.4 6.7-3.1 4.7-3.3 10.8-.5 15.7l1.4 2.9 2.8 5.6 8.7 17.5L173 76.1l1.1-2.2c.7-1.1 1.2-2.4 1.5-3.7 2.5-9.3-4.8-18.6-14.4-18.6zm0 19.3c-5.7 0-8.4-7.4-4-11 4.4-3.7 11.2.2 10.2 5.9-.5 2.9-3.2 5.1-6.2 5.1z"></path></svg>
