<svg xmlns="http://www.w3.org/2000/svg" xmlns:xlink="http://www.w3.org/1999/xlink" width="16" height="16" viewBox="0 0 16 16">
  <defs>
    <clipPath id="clip-path">
      <rect id="Rectangle_581" data-name="Rectangle 581" width="9.444" height="16" fill="#1c1d1f"/>
    </clipPath>
    <clipPath id="clip-Artboard_1">
      <rect width="16" height="16"/>
    </clipPath>
  </defs>
  <g id="Artboard_1" data-name="Artboard – 1" clip-path="url(#clip-Artboard_1)">
    <rect width="16" height="16" fill="#fff"/>
    <g id="Group_348" data-name="Group 348" transform="translate(3.278)">
      <g id="Group_348-2" data-name="Group 348" clip-path="url(#clip-path)">
        <path id="Path_8001" data-name="Path 8001" d="M9.1,0H.338A.338.338,0,0,0,0,.338V15.126a.925.925,0,0,0,.217.608A.761.761,0,0,0,.788,16a.846.846,0,0,0,.55-.217l3.348-3.3,3.429,3.322a.8.8,0,0,0,1.328-.662V.342A.338.338,0,0,0,9.108,0ZM8.767,15.125c0,.195-.165.2-.206.172L4.917,11.766a.335.335,0,0,0-.471,0L.891,15.275c-.064.053-.122.063-.165.013a.247.247,0,0,1-.051-.164V.673H8.768Z" transform="translate(0)" fill="#1c1d1f"/>
      </g>
    </g>
  </g>
</svg>
