<?xml version="1.0" encoding="UTF-8"?><svg id="Layer_1" xmlns="http://www.w3.org/2000/svg" viewBox="0 0 16 16"><defs><style>.cls-1{fill:#333;}</style></defs><path class="cls-1" d="M12.34,0H3.57C3.39,0,3.23,.15,3.23,.34V15.13c0,.22,.07,.44,.22,.61,.14,.17,.35,.26,.57,.26,.2,0,.4-.08,.55-.22l3.35-3.3,3.43,3.32c.15,.12,.33,.19,.53,.2,.46-.02,.82-.4,.8-.86,0,0,0,0,0-.01V.34C12.68,.15,12.53,0,12.34,0c0,0,0,0,0,0Z"/><path class="cls-1" d="M3.89,.66V15.13c0,.07,.02,.13,.05,.17,.02,.02,.05,.04,.08,.04,.03,0,.07-.02,.11-.05l3.78-3.73,3.86,3.74s.06,.03,.1,.04c.08,0,.14-.09,.14-.21V.66H3.89M3.57,0H12.34C12.53,0,12.68,.15,12.68,.34V15.13c0,.49-.35,.87-.8,.87-.19,0-.37-.07-.53-.2l-3.43-3.32-3.35,3.3c-.18,.15-.36,.22-.55,.22-.22,0-.43-.1-.57-.26-.14-.17-.22-.38-.22-.61V.34C3.23,.15,3.39,0,3.57,0Z"/></svg>