<?xml version="1.0" encoding="UTF-8"?>
<svg id="ICONS" xmlns="http://www.w3.org/2000/svg" width="16" height="16" viewBox="0 0 16 16">
  <defs>
    <style>
      .cls-1 {
        fill: #1c1d1f;
      }
    </style>
  </defs>
  <path id="Path_8001" data-name="Path 8001" class="cls-1" d="M12.38,0H3.62C3.43,0,3.28,.15,3.28,.34h0V15.12c0,.22,.07,.44,.22,.61,.14,.17,.35,.26,.57,.27,.2,0,.4-.08,.55-.22l3.35-3.3,3.43,3.32c.33,.29,.84,.26,1.13-.07,.14-.16,.22-.38,.2-.59V.34C12.72,.16,12.57,0,12.39,0c0,0,0,0,0,0h0Zm-.33,15.12c0,.19-.16,.2-.21,.17l-3.64-3.53c-.13-.13-.34-.13-.47,0l-3.55,3.51c-.06,.05-.12,.06-.16,.01-.04-.05-.05-.1-.05-.16V.67H12.04V15.12Z"/>
</svg>