<?xml version="1.0" encoding="utf-8"?>
<!-- Generator: Adobe Illustrator 26.4.1, SVG Export Plug-In . SVG Version: 6.00 Build 0)  -->
<svg version="1.1" id="Layer_1" xmlns="http://www.w3.org/2000/svg" xmlns:xlink="http://www.w3.org/1999/xlink" x="0px" y="0px"
	 viewBox="0 0 16 16" style="enable-background:new 0 0 16 16;" xml:space="preserve">
<style type="text/css">
	.st0{fill:#1C1D1F;}
</style>
<g id="Group_24571" transform="translate(-370.376 -323.354)">
	<path id="Path_11691" class="st0" d="M382.8,323.4H374c-0.2,0-0.3,0.2-0.3,0.3l0,0v14.8c0,0.2,0.1,0.4,0.2,0.6
		c0.1,0.2,0.4,0.3,0.6,0.3c0.2,0,0.4-0.1,0.6-0.2l3.3-3.3l3.4,3.3c0.1,0.1,0.3,0.2,0.5,0.2c0.5,0,0.8-0.4,0.8-0.9c0,0,0,0,0,0v-14.8
		C383.1,323.5,382.9,323.4,382.8,323.4C382.8,323.4,382.8,323.4,382.8,323.4z M382.4,338.5c0,0.2-0.2,0.2-0.2,0.2l-3.6-3.5
		c-0.1-0.1-0.3-0.1-0.5,0l-3.6,3.5c-0.1,0.1-0.1,0.1-0.2,0c0,0-0.1-0.1-0.1-0.2V324h8.1L382.4,338.5z"/>
</g>
</svg>
