<svg xmlns="http://www.w3.org/2000/svg" viewBox="0 0 40.2 40.2"><path d="M35.8,19.1c0-0.2,0-0.4-0.1-0.5L33.8,16l0.8-0.8c0.3-0.3,0.3-0.8,0-1L23.7,3.1c-0.3-0.3-0.8-0.3-1,0L2.8,23c-0.1,0.1-0.2,0.3-0.2,0.5s0.1,0.4,0.2,0.5l8.8,8.7c0.5,2.5,6.2,3.9,11.8,3.9c5.9,0,11.8-1.5,11.8-4.2v-8.7v-0.1v-0.1c0-1-0.6-1.8-1.7-2.4l2-1.5C35.7,19.4,35.8,19.3,35.8,19.1z M23.1,4.7l9.9,9.9l-4.7,4.7c-1.6-0.3-3.2-0.4-4.9-0.4c-5.9,0-11.8,1.5-11.8,4.5v0.1v0.1v7l-7.2-7.1L23.1,4.7z M33.7,28.1c0,1.1-4,2.8-10.3,2.8s-10.3-1.6-10.3-2.8v-2.4c2.1,1.4,6.2,2.2,10.3,2.2s8.2-0.7,10.3-2.2V28.1z M23.4,35.1c-6.3,0-10.3-1.6-10.3-2.8v-2.1c2.1,1.4,6.2,2.1,10.3,2.1s8.2-0.7,10.3-2.1v2.1C33.7,33.5,29.7,35.1,23.4,35.1z M23.4,26.4c-6.3,0-10.3-1.8-10.3-3s4-3,10.3-3s10.3,1.8,10.3,3S29.7,26.4,23.4,26.4z M32,20.3c-0.6-0.2-1.2-0.4-2-0.6l2.7-2.7l1.3,1.8L32,20.3z"></path></svg>
