<svg xmlns="http://www.w3.org/2000/svg" viewBox="0 0 40.2 40.2"><path d="M28.8,2.9H10.2c-1.5,0-2.7,1.2-2.7,2.8v28.5c0,1.5,1.2,2.8,2.7,2.8h18.5c1.5,0,2.7-1.2,2.7-2.8V5.7C31.5,4.2,30.3,2.9,28.8,2.9z M30.1,34.2c0,0.7-0.6,1.3-1.3,1.3H10.2c-0.7,0-1.3-0.6-1.3-1.3V5.7c0-0.7,0.6-1.3,1.3-1.3h18.5C29.4,4.4,30,5,30,5.7v28.5H30.1z"></path><path d="M13.8,17.2c-1.2,0-2.1,0.9-2.1,2.1s0.9,2.1,2.1,2.1s2.1-0.9,2.1-2.1C15.9,18.1,15,17.2,13.8,17.2z M13.8,19.9c-0.4,0-0.7-0.3-0.7-0.7c0-0.4,0.3-0.7,0.7-0.7s0.7,0.3,0.7,0.7S14.2,19.9,13.8,19.9z"></path><path d="M19.5,17.2c-1.2,0-2.1,0.9-2.1,2.1s0.9,2.1,2.1,2.1s2.1-0.9,2.1-2.1S20.6,17.2,19.5,17.2z M19.5,19.9c-0.4,0-0.7-0.3-0.7-0.7c0-0.4,0.3-0.7,0.7-0.7c0.4,0,0.7,0.3,0.7,0.7S19.9,19.9,19.5,19.9z"></path><path d="M25.1,17.2c-1.2,0-2.1,0.9-2.1,2.1s0.9,2.1,2.1,2.1s2.1-0.9,2.1-2.1S26.3,17.2,25.1,17.2z M25.1,19.9c-0.4,0-0.7-0.3-0.7-0.7c0-0.4,0.3-0.7,0.7-0.7c0.4,0,0.7,0.3,0.7,0.7C25.8,19.6,25.5,19.9,25.1,19.9z"></path><path d="M13.8,22.8c-1.2,0-2.1,0.9-2.1,2.1s0.9,2.1,2.1,2.1s2.1-0.9,2.1-2.1C15.9,23.8,15,22.8,13.8,22.8z M13.8,25.6c-0.4,0-0.7-0.3-0.7-0.7c0-0.4,0.3-0.7,0.7-0.7s0.7,0.3,0.7,0.7C14.5,25.3,14.2,25.6,13.8,25.6z"></path><path d="M19.5,22.8c-1.2,0-2.1,0.9-2.1,2.1s0.9,2.1,2.1,2.1s2.1-0.9,2.1-2.1C21.6,23.8,20.6,22.8,19.5,22.8zM19.5,25.6c-0.4,0-0.7-0.3-0.7-0.7c0-0.4,0.3-0.7,0.7-0.7c0.4,0,0.7,0.3,0.7,0.7C20.2,25.3,19.9,25.6,19.5,25.6z"></path><path d="M25.1,22.8c-1.2,0-2.1,0.9-2.1,2.1s0.9,2.1,2.1,2.1s2.1-0.9,2.1-2.1C27.2,23.8,26.3,22.8,25.1,22.8zM25.1,25.6c-0.4,0-0.7-0.3-0.7-0.7c0-0.4,0.3-0.7,0.7-0.7c0.4,0,0.7,0.3,0.7,0.7C25.8,25.3,25.5,25.6,25.1,25.6z"></path><path d="M13.8,28.5c-1.2,0-2.1,0.9-2.1,2.1s0.9,2.1,2.1,2.1s2.1-0.9,2.1-2.1C15.9,29.4,15,28.5,13.8,28.5z M13.8,31.3c-0.4,0-0.7-0.3-0.7-0.7c0-0.4,0.3-0.7,0.7-0.7s0.7,0.3,0.7,0.7S14.2,31.3,13.8,31.3z"></path><path d="M19.5,28.5c-1.2,0-2.1,0.9-2.1,2.1s0.9,2.1,2.1,2.1s2.1-0.9,2.1-2.1S20.6,28.5,19.5,28.5z M19.5,31.3c-0.4,0-0.7-0.3-0.7-0.7c0-0.4,0.3-0.7,0.7-0.7c0.4,0,0.7,0.3,0.7,0.7S19.9,31.3,19.5,31.3z"></path><path d="M25.1,28.5c-1.2,0-2.1,0.9-2.1,2.1s0.9,2.1,2.1,2.1s2.1-0.9,2.1-2.1S26.3,28.5,25.1,28.5z M25.1,31.3c-0.4,0-0.7-0.3-0.7-0.7c0-0.4,0.3-0.7,0.7-0.7c0.4,0,0.7,0.3,0.7,0.7C25.8,31,25.5,31.3,25.1,31.3z"></path><path d="M26.6,7.2H12.4c-0.4,0-0.7,0.3-0.7,0.7v5.7c0,0.4,0.3,0.7,0.7,0.7h14.2c0.4,0,0.7-0.3,0.7-0.7V7.9C27.3,7.5,26.9,7.2,26.6,7.2z M25.8,12.9H13.1V8.6h12.8v4.3H25.8z"></path></svg>
