<svg xmlns="http://www.w3.org/2000/svg" viewBox="0 0 20 23"><path d="M14.7,9.2c-0.3-0.2-0.7-0.2-0.9,0.1l-5.4,7.1l-2-2.4c-0.2-0.3-0.6-0.3-0.9-0.1c-0.3,0.2-0.3,0.6-0.1,0.9l2.5,3c0.1,0.1,0.3,0.2,0.5,0.2c0,0,0,0,0,0c0.2,0,0.4-0.1,0.5-0.2l5.9-7.7C15.1,9.9,15,9.5,14.7,9.2z"></path><path d="M17.1,1.9h-1.7v1.5c0,0.6-0.5,1-1,1c-0.6,0-1-0.5-1-1V1.9H6.9v1.5c0,0.6-0.5,1-1,1s-1-0.5-1-1V1.9H3.2c-1.1,0-2,0.9-2,2v16.4c0,1.1,0.9,2,2,2h13.9c1.1,0,2-0.9,2-2V4C19.1,2.8,18.2,1.9,17.1,1.9z M17.8,20.3c0,0.4-0.3,0.7-0.7,0.7H3.2c-0.4,0-0.7-0.3-0.7-0.7V7h15.4V20.3z"></path><path d="M5.9,3.8c0.2,0,0.4-0.2,0.4-0.4V1.9V1c0-0.2-0.2-0.4-0.4-0.4C5.6,0.7,5.5,0.8,5.5,1v0.9v1.5C5.5,3.7,5.6,3.8,5.9,3.8z"></path><path d="M14.4,3.8c0.2,0,0.4-0.2,0.4-0.4V1c0-0.2-0.2-0.4-0.4-0.4C14.2,0.7,14,0.8,14,1v2.4C14,3.7,14.2,3.8,14.4,3.8z"></path></svg>
