<svg xmlns="http://www.w3.org/2000/svg" viewBox="0 0 40.2 40.2"><path d="M23.3,24.1c-0.6-0.4-0.8-0.7-0.9-0.8v-1c0.9-1,1.6-2.3,2-3.8c0.5-0.5,0.9-1.2,1-1.9c0.1-0.8-0.1-1.5-0.5-2.1v-3c0-4-2.4-6.3-6.7-6.3c-4.2,0-6.7,2.4-6.7,6.3v3c-0.4,0.6-0.6,1.4-0.5,2.1s0.5,1.4,1,1.9c0.4,1.5,1.1,2.8,2,3.8v1c-0.2,0.4-1.6,1.7-9.5,4.9c-0.7,0.3-1.1,0.9-1.1,1.6v1.5c0,0.4,0.3,0.7,0.7,0.7C4.7,32,5,31.7,5,31.3v-1.5c0-0.1,0.1-0.3,0.2-0.3c8.6-3.4,10-4.8,10.3-5.8c0-0.1,0-0.1,0-0.2V22c0-0.2-0.1-0.4-0.2-0.5c-0.9-0.9-1.5-2.2-1.9-3.6c0-0.2-0.1-0.3-0.3-0.4c-0.4-0.3-0.6-0.7-0.7-1.1c-0.1-0.5,0.1-0.9,0.4-1.3C13,15,13,14.8,13,14.7v-3.2c0-3.2,1.9-4.9,5.3-4.9c3.5,0,5.3,1.7,5.3,4.9v3.2c0,0.2,0.1,0.3,0.2,0.4c0.3,0.4,0.4,0.8,0.4,1.3c-0.1,0.4-0.3,0.9-0.7,1.1c-0.1,0.1-0.2,0.2-0.3,0.4c-0.4,1.5-1.1,2.7-1.9,3.6C21.1,21.7,21,21.8,21,22v1.4c0,0.1,0,0.1,0,0.2c0.2,0.5,0.6,1,1.4,1.6c0.3,0.2,0.8,0.1,1-0.2C23.7,24.8,23.6,24.3,23.3,24.1z"></path><path d="M35,25c-1.3-1.3-2.9-2-4.7-2s-3.5,0.7-4.7,2c-2.6,2.6-2.6,6.9,0,9.5c1.3,1.3,2.9,2,4.7,2c1.8,0,3.5-0.7,4.7-2C37.7,31.8,37.7,27.6,35,25z M34.1,33.4c-2,2-5.5,2-7.5,0c-2.1-2.1-2.1-5.4,0-7.5c1-1,2.3-1.6,3.7-1.6c1.4,0,2.7,0.6,3.7,1.6C36.1,28,36.1,31.4,34.1,33.4z"></path><path d="M32.6,27.5l-3.3,3.6L28,29.7c-0.3-0.3-0.7-0.3-1,0s-0.3,0.7,0,1l1.8,1.9l0,0l0,0l0.1,0.1c0,0,0,0,0.1,0s0.2,0.1,0.3,0.1c0.1,0,0.2,0,0.3-0.1h0.1c0,0,0.1,0,0.1-0.1l0,0l0,0l3.9-4.1c0.3-0.3,0.2-0.7,0-1C33.3,27.2,32.9,27.2,32.6,27.5z"></path></svg>
