<svg xmlns="http://www.w3.org/2000/svg" viewBox="0 0 16 16"><path d="M13.4,3.2l-2-2C11.3,1.1,11.1,1,11,1H2.9C2.7,1,2.5,1.2,2.5,1.5c0,0,0,0,0,0v13c0,0.3,0.2,0.5,0.5,0.5   c0,0,0,0,0,0h10.1c0.3,0,0.5-0.2,0.5-0.5c0,0,0,0,0,0v-11C13.5,3.4,13.5,3.2,13.4,3.2z M3.4,14.1V1.9h7.3v1.5   c0,0.2,0.1,0.3,0.3,0.3l0,0h1.6v10.3H3.4z"></path><path class="st0" d="M11.3,5.1H4.8c-0.1,0-0.2,0.1-0.2,0.2v6.5c0,0.1,0.1,0.2,0.2,0.2h6.5c0.1,0,0.2-0.1,0.2-0.2V5.2   C11.4,5.1,11.4,5.1,11.3,5.1z M11.1,8.3H9.2V7h1.8V8.3z M8.9,8.3H7.1V7h1.8L8.9,8.3z M6.8,8.3H4.9V7h1.8L6.8,8.3z M4.9,8.6h1.8v1.3   H4.9L4.9,8.6z M7.1,8.6h1.8v1.3H7.1L7.1,8.6z M9.3,8.6h1.8v1.3H9.3V8.6z M11.1,6.7H9.3V5.4h1.8V6.7z M8.9,6.7H7.1V5.4h1.8L8.9,6.7z   M4.9,5.4h1.8v1.3H4.9V5.4z M4.9,10.2h1.8v1.3H4.9V10.2z M7.1,10.2h1.8v1.3H7.1L7.1,10.2z M11.1,11.5H9.2v-1.3h1.8V11.5z"></path></svg>
