<svg xmlns="http://www.w3.org/2000/svg" viewBox="0 0 16 16" fill="#49afcd"><path d="M2 2.7c0-.4.3-.7.7-.7H8l3 2.5v8.8c0 .4-.3.7-.7.7H2.7c-.4 0-.7-.3-.7-.7V2.7z"></path><path fill="#FFFFFF" d="M8 2v1.8c0 .4.3.7.7.7H11L8 2zm1.3 4.1c0 .1-.1.2-.2.2H6.3c-.1 0-.2-.1-.2-.2s.1-.2.2-.2h2.8c.1 0 .2.1.2.2zm-1.1 1c0 .1-.1.2-.2.2H6.3c-.1 0-.2-.1-.2-.2s.1-.2.2-.2H8c.1 0 .2.1.2.2zm1.1 1.5c0 .1-.1.2-.2.2H6.3c-.1 0-.2-.1-.2-.2s.1-.2.2-.2h2.8c.1 0 .2.1.2.2zm-1.1.9c0 .1-.1.2-.2.2H6.3c-.1 0-.2-.1-.2-.2s.1-.2.2-.2H8c.1 0 .2.1.2.2zM9.3 11c0 .1-.1.2-.2.2H6.3c-.1 0-.2-.1-.2-.2s.1-.2.2-.2h2.8c.1 0 .2.1.2.2zm-1.1.9c0 .1-.1.2-.2.2H6.3c-.1 0-.2-.1-.2-.2s.1-.2.2-.2H8c.1.1.2.1.2.2zM4.3 7.4l-.7-.7c-.1-.1-.1-.2 0-.3.1-.1.2-.1.3 0l.4.4.8-1c.1-.1.2-.1.3 0 .1.1.1.2 0 .3L4.3 7.4zm0 2.5l-.7-.7c-.1-.1-.1-.2 0-.3.1-.1.2-.1.3 0l.4.4.8-1c.1-.1.2-.1.3 0 .1.1.1.2 0 .3L4.3 9.9zm0 2.4l-.7-.7c-.1-.1-.1-.2 0-.3.1-.1.2-.1.3 0l.4.4.8-1c.1-.1.2-.1.3 0 .1.1.1.2 0 .3l-1.1 1.3z"></path><path d="M13.5 5.8c-.2 0-.5-.3-.5-.3s-.3.3-.5.3-.4-.1-.4-.3v7.6H14V5.5c-.1.1-.3.3-.5.3z"></path><path fill="#0681A1" opacity=".5" d="M13.1 3.5V14h.4c.3 0 .6-.3.6-.6V5.5l-1-2z"></path><path fill="#0B3631" d="M13.1 3.5l-.3.7c.1.1.2.2.3.2.1 0 .3-.1.3-.2l-.3-.7z"></path></svg>
