<svg xmlns="http://www.w3.org/2000/svg" width="18" height="17.999" viewBox="0 0 18 17.999"><g transform="translate(-210.176 -1292.209)"><path d="M224.584,1299.081a.379.379,0,0,0-.535,0l-3.232,3.232-3.232-3.232a.379.379,0,1,0-.535.536l3.232,3.231-3.232,3.232a.379.379,0,0,0,.268.647.375.375,0,0,0,.267-.111l3.232-3.232,3.232,3.232a.379.379,0,0,0,.535-.535l-3.232-3.232,3.232-3.231A.379.379,0,0,0,224.584,1299.081Z" transform="translate(-1.641 -1.641)" fill="#5a5a5a"/><path d="M219.175,1292.209a9,9,0,1,0,9,9A9.009,9.009,0,0,0,219.175,1292.209Zm0,17.241a8.242,8.242,0,1,1,8.244-8.243A8.252,8.252,0,0,1,219.175,1309.45Z" transform="translate(0)" fill="#5a5a5a"/></g></svg>
