<svg xmlns="http://www.w3.org/2000/svg" width="18" height="17.999" viewBox="0 0 18 17.999"><g transform="translate(-258.181 -1292.209)"><path d="M267.18,1292.209a9,9,0,1,0,9,9A9.009,9.009,0,0,0,267.18,1292.209Zm0,17.241a8.242,8.242,0,1,1,8.244-8.243A8.252,8.252,0,0,1,267.18,1309.45Z" fill="#5a5a5a"/><path d="M272.632,1299.292l-5.116,6.4-2.217-2.773a.379.379,0,0,0-.592.473l2.514,3.143a.379.379,0,0,0,.592,0l5.411-6.766a.379.379,0,0,0-.592-.473Z" transform="translate(-1.564 -1.684)" fill="#5a5a5a"/></g></svg>
