<?xml version="1.0" encoding="utf-8"?>
<!-- Generator: Adobe Illustrator 24.1.2, SVG Export Plug-In . SVG Version: 6.00 Build 0)  -->
<svg version="1.1" id="Layer_1" xmlns="http://www.w3.org/2000/svg" xmlns:xlink="http://www.w3.org/1999/xlink" x="0px" y="0px"
	 viewBox="0 0 16 16" style="enable-background:new 0 0 16 16;" xml:space="preserve">
<style type="text/css">
	.st0{fill:none;}
	.st1{fill:#5A5A5A;}
</style>
<rect y="0" class="st0" width="16" height="16"/>
<g>
	<path class="st1" d="M15.1,13.1c-1.3-1.3-4.8-2.6-4.9-2.6c0,0-0.1,0-0.1,0c-0.2,0-0.3,0.2-0.3,0.3c0,0.1,0.1,0.3,0.3,0.3
		c0.4,0.2,3.5,1.4,4.7,2.5l0,1H9.6c-0.2,0-0.3,0.1-0.3,0.3s0.1,0.3,0.3,0.3h5.1c0.3,0,0.6-0.3,0.6-0.6v-1
		C15.3,13.4,15.2,13.3,15.1,13.1z"/>
	<path class="st1" d="M6.4,14.6l-5,0l0-1c1.2-1.1,4.3-2.3,4.7-2.5c0.1,0,0.3-0.1,0.3-0.3c0-0.2-0.2-0.4-0.4-0.3
		c-0.1,0.1-3.6,1.3-4.9,2.6c-0.1,0.1-0.2,0.3-0.2,0.4v1c0,0.3,0.3,0.6,0.6,0.6h5.1c0.2,0,0.3-0.1,0.3-0.3S6.6,14.6,6.4,14.6z"/>
	<path class="st1" d="M4.4,6.2C4.5,6.5,4.7,6.8,5,6.9C5.1,7.6,5.5,8.4,6,9c0,0.9,0,1,0.1,1c0.1,0.1,0.2,0.2,0.3,0.2c0,0,0.1,0,0.1,0
		c0.1-0.1,0.2-0.2,0.2-0.4c0-0.1,0-0.2,0-0.9l0-0.1c0-0.1,0-0.2-0.1-0.2C6,8.1,5.6,7.3,5.6,6.6c0-0.2-0.2-0.3-0.3-0.3
		C5.1,6.3,5,6.1,5,6.1c0,0,0-0.2,0.1-0.3c0.1-0.1,0.2-0.2,0.2-0.4c-0.1-0.3-0.2-0.6-0.2-1c0-1.7,1.3-3,2.8-3c1.6,0,2.8,1.4,2.8,3
		c0,0.3-0.1,0.7-0.2,1c0,0.1,0,0.3,0.2,0.4C11,5.8,11,6,11,6.1c0,0-0.1,0.2-0.2,0.2c-0.2,0-0.3,0.1-0.3,0.3c-0.1,0.8-0.4,1.5-1,2.1
		C9.4,8.7,9.4,8.8,9.4,8.9c0,0,0,0.1,0,0.1c0,0.6,0,0.8,0,0.8c0,0.1,0,0.3,0.2,0.4c0.2,0.1,0.3,0,0.4-0.1C10,9.9,10,9.9,10,9
		c0.5-0.6,0.9-1.3,1-2.1c0.3-0.1,0.5-0.3,0.6-0.6c0.1-0.3,0-0.6-0.2-0.8c0.1-0.3,0.1-0.6,0.1-1c0-2-1.5-3.6-3.4-3.6
		c-1.9,0-3.4,1.6-3.4,3.6c0,0.3,0,0.6,0.1,1C4.5,5.6,4.4,5.9,4.4,6.2z"/>
	<path class="st1" d="M9,12.7c0.6-1.1,0.5-1.4,0.4-1.5c0-0.1-0.1-0.2-0.3-0.3c-0.4-0.2-0.8-0.3-1.2-0.3c-0.7,0-1.1,0.3-1.2,0.3
		c-0.4,0.3-0.3,0.9,0.2,1.8c0.1,0.1,0.2,0.2,0.3,0.2c0,0,0,0,0,0c0.4-0.1,0.9-0.1,1.3,0C8.8,12.9,8.9,12.9,9,12.7z M7.5,12.3
		c-0.3-0.6-0.3-0.8-0.3-0.9c0,0,0.3-0.2,0.8-0.2c0.3,0,0.6,0.1,0.9,0.2c0,0.1,0,0.4-0.3,0.9C8.2,12.2,7.8,12.2,7.5,12.3z"/>
	<path class="st1" d="M8.5,13.2c-0.2,0-0.3,0.2-0.3,0.3L8.4,15c0,0.2,0.1,0.3,0.3,0.3c0,0,0,0,0,0c0.2,0,0.3-0.2,0.3-0.3l-0.2-1.5
		C8.8,13.3,8.7,13.2,8.5,13.2z"/>
	<path class="st1" d="M7.5,13.2c-0.2,0-0.3,0.1-0.3,0.3L7,14.9c0,0.2,0.1,0.3,0.3,0.3c0,0,0,0,0,0c0.2,0,0.3-0.1,0.3-0.3l0.2-1.4
		C7.8,13.3,7.6,13.2,7.5,13.2z"/>
</g>
</svg>
