<svg xmlns="http://www.w3.org/2000/svg" viewBox="0 0 16 16"><g fill="#6d6d6d"><path d="M13.7.5H2.3C1.3.5.5 1.3.5 2.3v11.4c0 1 .8 1.8 1.8 1.8h11.4c1 0 1.8-.8 1.8-1.8V2.3c0-1-.8-1.8-1.8-1.8zm1.2 13.2c0 .6-.5 1.2-1.2 1.2H2.3c-.6 0-1.2-.5-1.2-1.2V2.3c0-.6.5-1.2 1.2-1.2h11.4c.6 0 1.2.5 1.2 1.2v11.4z"/><path d="M4.2 3C3.6 3 3 3.6 3 4.3c0 .7.6 1.2 1.2 1.2.7 0 1.2-.6 1.2-1.2.1-.7-.5-1.3-1.2-1.3zm0 1.9c-.3 0-.6-.3-.6-.6s.3-.6.6-.6.6.3.6.6c.1.3-.2.6-.6.6zm0 1.9C3.6 6.8 3 7.3 3 8s.6 1.2 1.2 1.2c.7 0 1.2-.6 1.2-1.2s-.5-1.2-1.2-1.2zm0 1.8c-.3 0-.6-.3-.6-.6s.3-.6.6-.6.6.3.6.6-.2.6-.6.6zm0 1.9c-.7 0-1.2.6-1.2 1.2S3.6 13 4.2 13c.7 0 1.2-.6 1.2-1.2s-.5-1.3-1.2-1.3zm0 1.9c-.3 0-.6-.3-.6-.6s.3-.6.6-.6.6.3.6.6c.1.3-.2.6-.6.6zM8 3c-.7 0-1.2.6-1.2 1.3 0 .7.6 1.2 1.2 1.2.7 0 1.2-.6 1.2-1.2C9.2 3.6 8.7 3 8 3zm0 1.9c-.3 0-.6-.3-.6-.6s.3-.6.6-.6.6.3.6.6-.3.6-.6.6zm0 1.9c-.7 0-1.2.5-1.2 1.2S7.3 9.2 8 9.2 9.2 8.6 9.2 8 8.7 6.8 8 6.8zm0 1.8c-.3 0-.6-.3-.6-.6s.3-.6.6-.6.6.3.6.6-.3.6-.6.6zm0 1.9c-.7 0-1.2.6-1.2 1.2S7.3 13 8 13s1.2-.6 1.2-1.2-.5-1.3-1.2-1.3zm0 1.9c-.3 0-.6-.3-.6-.6s.3-.6.6-.6.6.3.6.6-.3.6-.6.6zM11.8 3c-.7 0-1.2.6-1.2 1.2 0 .7.6 1.2 1.2 1.2.7 0 1.2-.6 1.2-1.2S12.4 3 11.8 3zm0 1.9c-.3 0-.6-.3-.6-.6s.3-.6.6-.6.6.3.6.6-.3.6-.6.6zm0 1.9c-.7 0-1.2.6-1.2 1.2s.6 1.2 1.2 1.2S13 8.7 13 8s-.6-1.2-1.2-1.2zm0 1.8c-.3 0-.6-.3-.6-.6s.3-.6.6-.6.6.3.6.6-.3.6-.6.6zm0 1.9c-.7 0-1.2.6-1.2 1.2s.6 1.2 1.2 1.2c.7 0 1.2-.6 1.2-1.2s-.6-1.2-1.2-1.2zm0 1.9c-.3 0-.6-.3-.6-.6s.3-.6.6-.6.6.3.6.6-.3.6-.6.6z"/></g></svg>
