<svg xmlns="http://www.w3.org/2000/svg" viewBox="0 0 16 16"><path class="st1" d="M6.3,12.3c-0.6,0-1.2-0.1-1.8-0.3v-0.9c2.2-0.9,2.6-1.2,2.7-1.5c0,0,0,0,0-0.1V9.1c0-0.1,0-0.1-0.1-0.1 C6.9,8.8,6.7,8.5,6.6,8.1c0,0,0-0.1-0.1-0.1C6.5,7.9,6.4,7.9,6.4,7.8c0-0.1,0-0.2,0.1-0.3c0,0,0-0.1,0-0.1V6.5 c0-0.8,0.4-1.2,1.3-1.2c0.2,0,0.4,0,0.6,0.1c0.1-0.1,0.2-0.2,0.4-0.3C8.5,5,8.2,4.9,7.8,4.9c-1.1,0-1.7,0.6-1.7,1.6v0.7 C6,7.4,5.9,7.6,6,7.8C6,8,6.1,8.2,6.2,8.3C6.3,8.7,6.5,9,6.7,9.2v0.2c-0.1,0.1-0.4,0.4-2.4,1.2C4.2,10.7,4,10.9,4,11.1v0.7 c-0.6-0.3-1.2-0.8-1.6-1.3c0.1,0,0.4-0.1,0.6-0.1c0.6-0.1,1-0.2,1.1-0.5c0,0,0,0,0-0.1V9.4c0-0.1-0.1-0.2-0.2-0.2 C3.4,9.2,3,9.1,2.8,9.1c0.3-0.5,0.4-1.4,0.4-1.7c0-0.6,0.3-1,0.8-1.3c0.5-0.2,1-0.2,1.4,0.1c0.1,0.1,0.2,0.1,0.3,0 c0.1-0.1,0.1-0.2,0-0.3C5.2,5.5,4.5,5.4,3.9,5.7C3.2,6,2.8,6.6,2.8,7.3C2.7,8,2.5,8.8,2.4,8.9C2.3,9,2.2,9,2.2,9.1 c0,0.1,0,0.1,0.1,0.2c0,0,0.4,0.3,1.3,0.3v0.2c-0.1,0.1-1.4,0.3-1.5,0.3C1.7,9.4,1.4,8.6,1.4,7.7C1.4,5.1,3.6,3,6.3,3 C7.7,3,9,3.6,9.9,4.6c0.2,0,0.3-0.1,0.5-0.1c-1-1.2-2.4-2-4.1-2C3.4,2.6,1,4.9,1,7.7c0,2.8,2.4,5.1,5.3,5.1c1.7,0,3.1-0.8,4.1-1.9 c-0.2,0-0.3,0-0.5-0.1C9,11.7,7.7,12.3,6.3,12.3z"></path><path class="st1" d="M14.9,12l-2.4-2.6c0.4-0.4,0.6-0.9,0.6-1.5c0.1-1.4-1-2.6-2.4-2.7c-1.4-0.1-2.6,1-2.7,2.4 c-0.1,1.4,1,2.6,2.4,2.7c0.6,0,1.2-0.2,1.6-0.5l2.4,2.6c0.1,0.1,0.1,0.1,0.2,0.1c0.1,0,0.2,0,0.2-0.1C15,12.4,15,12.2,14.9,12z M10.5,9.7c-1.1-0.1-1.9-1-1.8-2.1c0.1-1.1,1-1.9,2.1-1.8c1.1,0.1,1.9,1,1.8,2.1C12.5,8.9,11.6,9.7,10.5,9.7z"></path></svg>
