<svg xmlns="http://www.w3.org/2000/svg" viewBox="0 0 40.2 40.2"><path d="M28.2,31c-0.4,0-0.7,0.3-0.7,0.7V33c0,0.2-0.2,0.4-0.4,0.4H6.9c-0.2,0-0.4-0.2-0.4-0.4V4.9c0-0.2,0.2-0.4,0.4-0.4h15.4v4.6c0,0.4,0.3,0.7,0.7,0.7h4.6v4.5c0,0.4,0.3,0.7,0.7,0.7c0.4,0,0.7-0.3,0.7-0.7V9.1c0-0.5-0.3-0.9-0.5-1.1L24,3.7c-0.2-0.2-0.5-0.5-1.1-0.5h-16C6,3.2,5.2,4,5.2,4.9V33c0,0.9,0.8,1.7,1.7,1.7h20.2c0.9,0,1.7-0.8,1.7-1.7v-1.3C28.8,31.3,28.6,31,28.2,31z M26.9,8.5h-3.3V5.2L26.9,8.5z"></path><path d="M21,25.5H10.5c-0.4,0-0.7,0.3-0.7,0.7c0,0.4,0.3,0.7,0.7,0.7H21c0.4,0,0.7-0.3,0.7-0.7S21.4,25.5,21,25.5z"></path><path d="M21,21.6H10.5c-0.4,0-0.7,0.3-0.7,0.7c0,0.4,0.3,0.7,0.7,0.7H21c0.4,0,0.7-0.3,0.7-0.7S21.4,21.6,21,21.6z"></path><path d="M21,17.7H10.5c-0.4,0-0.7,0.3-0.7,0.7c0,0.4,0.3,0.7,0.7,0.7H21c0.4,0,0.7-0.3,0.7-0.7S21.4,17.7,21,17.7z"></path><path d="M10.5,15h7.3c0.4,0,0.7-0.3,0.7-0.7s-0.3-0.7-0.7-0.7h-7.3c-0.4,0-0.7,0.3-0.7,0.7C9.8,14.7,10.1,15,10.5,15z"></path><path d="M34.7,18.4c-2.5-2.5-6.6-2.5-9.1,0s-2.5,6.6,0,9.1c1.3,1.3,2.9,1.9,4.6,1.9s3.3-0.6,4.6-1.9c1.2-1.2,1.9-2.8,1.9-4.6C36.6,21.2,35.9,19.6,34.7,18.4z M33.8,26.6c-2,2-5.3,2-7.3,0s-2-5.3,0-7.3c1-1,2.3-1.5,3.6-1.5c1.3,0,2.6,0.5,3.6,1.5s1.5,2.3,1.5,3.6C35.3,24.3,34.7,25.6,33.8,26.6z"></path><path d="M32.5,21.4l-3.4,2.9l-1-0.9c-0.3-0.2-0.7-0.2-0.9,0c-0.2,0.3-0.2,0.7,0,0.9l1.4,1.3c0.1,0.1,0.3,0.2,0.4,0.2c0.2,0,0.3-0.1,0.4-0.2l3.8-3.3c0.3-0.2,0.3-0.7,0.1-0.9C33.2,21.2,32.8,21.2,32.5,21.4z"></path></svg>
