<svg xmlns="http://www.w3.org/2000/svg" viewBox="0 0 16 16"><g fill="#333"><path d="M12.8 1.4h-1.1v1c0 .4-.3.7-.7.7-.4 0-.7-.3-.7-.7v-1H5.8v1c0 .4-.3.7-.7.7-.4 0-.7-.3-.7-.7v-1H3.2c-.8 0-1.4.6-1.4 1.4v11.3c0 .8.6 1.4 1.4 1.4h9.6c.8 0 1.4-.6 1.4-1.4V2.8c0-.8-.6-1.4-1.4-1.4zm.5 12.7c0 .3-.2.5-.5.5H3.2c-.3 0-.5-.2-.5-.5V4.9h10.6v9.2z"></path><path d="M5.1 2.7c.1 0 .3-.1.3-.3V.8c0-.1-.1-.3-.3-.3-.1 0-.3.1-.3.3v1.6c0 .2.1.3.3.3zm5.8 0c.1 0 .3-.1.3-.3V.8c0-.1-.1-.3-.3-.3s-.3.1-.3.3v1.7c.1.1.2.2.3.2zM6.3 7.3H7c.1 0 .1 0 .1-.1v-.7c0-.1 0-.1-.1-.1h-.7c-.1 0-.1 0-.1.1v.7c0 .1.1.1.1.1zm1.4 0h.7c.1 0 .1 0 .1-.1v-.7c0-.1 0-.1-.1-.1h-.7c-.1 0-.1 0-.1.1v.7c0 .1 0 .1.1.1zm1.3 0h.7c.1 0 .1 0 .1-.1v-.7c0-.1 0-.1-.1-.1H9c-.1 0-.1 0-.1.1v.7c0 .1.1.1.1.1zm1.4 0h.7c.1 0 .1 0 .1-.1v-.7c0-.1 0-.1-.1-.1h-.7c-.1 0-.1 0-.1.1v.7c0 .1 0 .1.1.1zm1.3 0h.7c.1 0 .1 0 .1-.1v-.7c0-.1 0-.1-.1-.1h-.7c-.1 0-.1 0-.1.1v.7c0 .1.1.1.1.1zM3.6 9.2h.7c.1 0 .1 0 .1-.1v-.7c0-.1 0-.1-.1-.1h-.7c-.1 0-.1 0-.1.1v.7c0 .1.1.1.1.1zm1.4 0h.7c.1 0 .1 0 .1-.1v-.7c0-.1 0-.1-.1-.1H5c-.1 0-.1 0-.1.1v.7c0 .1 0 .1.1.1zm1.3 0H7c.1 0 .1 0 .1-.1v-.7c0-.1 0-.1-.1-.1h-.7c-.1 0-.1 0-.1.1v.7c0 .1.1.1.1.1zm1.4 0h.7c.1 0 .1 0 .1-.1v-.7c0-.1 0-.1-.1-.1h-.7c-.1 0-.1 0-.1.1v.7c0 .1 0 .1.1.1zm1.3 0h.7c.1 0 .1 0 .1-.1v-.7c0-.1 0-.1-.1-.1H9c-.1 0-.1 0-.1.1v.7c0 .1.1.1.1.1zm1.4 0h.7c.1 0 .1 0 .1-.1v-.7c0-.1 0-.1-.1-.1h-.7c-.1 0-.1 0-.1.1v.7c0 .1 0 .1.1.1zm1.3 0h.7c.1 0 .1 0 .1-.1v-.7c0-.1 0-.1-.1-.1h-.7c-.1 0-.1 0-.1.1v.7c0 .1.1.1.1.1zm-8.1 1.9h.7c.1 0 .1 0 .1-.1v-.7c0-.1 0-.1-.1-.1h-.7c-.1 0-.1 0-.1.1v.7l.1.1zm1.4 0h.7c.1 0 .1 0 .1-.1v-.7c0-.1 0-.1-.1-.1H5c-.1 0-.1 0-.1.1v.7s0 .1.1.1zm1.3 0H7c.1 0 .1 0 .1-.1v-.7c0-.1 0-.1-.1-.1h-.7c-.1 0-.1 0-.1.1v.7l.1.1zm1.4 0h.7c.1 0 .1 0 .1-.1v-.7c0-.1 0-.1-.1-.1h-.7c-.1 0-.1 0-.1.1v.7s0 .1.1.1zm1.3 0h.7c.1 0 .1 0 .1-.1v-.7c0-.1 0-.1-.1-.1H9c-.1 0-.1 0-.1.1v.7l.1.1zm1.4 0h.7c.1 0 .1 0 .1-.1v-.7c0-.1 0-.1-.1-.1h-.7c-.1 0-.1 0-.1.1v.7s0 .1.1.1zm1.3 0h.7c.1 0 .1 0 .1-.1v-.7c0-.1 0-.1-.1-.1h-.7c-.1 0-.1 0-.1.1v.7l.1.1zM3.6 13h.7c.1 0 .1 0 .1-.1v-.7c0-.1 0-.1-.1-.1h-.7c-.1 0-.1 0-.1.1v.7l.1.1zM5 13h.7c.1 0 .1 0 .1-.1v-.7c0-.1 0-.1-.1-.1H5c-.1 0-.1 0-.1.1v.7s0 .1.1.1zm1.3 0H7c.1 0 .1 0 .1-.1v-.7c0-.1 0-.1-.1-.1h-.7c-.1 0-.1 0-.1.1v.7l.1.1zm1.4 0h.7c.1 0 .1 0 .1-.1v-.7c0-.1 0-.1-.1-.1h-.7c-.1 0-.1 0-.1.1v.7s0 .1.1.1zM9 13h.7c.1 0 .1 0 .1-.1v-.7c0-.1 0-.1-.1-.1H9c-.1 0-.1 0-.1.1v.7l.1.1z"></path></g><path fill="none" d="M0 0h16v16H0z"></path><path fill="none" d="M15.5.5v15H.5V.5z"></path></svg>
