<svg xmlns="http://www.w3.org/2000/svg" viewBox="0 0 16 16"><path fill="#231F20" d="M13.1,6.2l-2.8,3.8c0.2,0.1,0.5,0.3,0.6,0.5l2.8-3.7C13.5,6.5,13.3,6.4,13.1,6.2z"></path><path fill="#231F20" d="M6.5,6.2C6.3,6.4,6.1,6.6,5.9,6.6l2.9,3.7c0.2-0.2,0.4-0.4,0.6-0.5L6.5,6.2z"></path><path fill="#231F20" d="M4.2,6L2.5,7.4C2.8,7.6,2.9,7.8,3,8l1.7-1.5C4.5,6.4,4.3,6.2,4.2,6z"></path><path fill="#231F20" d="M6.2,5.8c0.1-0.1,0.1-0.3,0.1-0.4c0-0.5-0.4-0.9-0.9-0.9c-0.5,0-0.9,0.4-0.9,0.9c0,0.1,0,0.2,0,0.3C4.6,5.9,4.8,6.2,5,6.3c0.1,0.1,0.2,0.1,0.4,0.1c0.1,0,0.1,0,0.2,0C5.9,6.3,6.1,6.1,6.2,5.8z"></path><path fill="#231F20" d="M10.6,10.7c0-0.1-0.1-0.1-0.1-0.2c0,0,0,0,0,0c0,0-0.1-0.1-0.1-0.1c0,0,0,0,0,0c0,0-0.1-0.1-0.1-0.1c0,0,0,0,0,0c-0.1,0-0.1,0-0.2-0.1h0c-0.1,0-0.1,0-0.2,0c-0.1,0-0.3,0-0.4,0.1c0,0,0,0,0,0c-0.1,0-0.1,0.1-0.2,0.1c0,0,0,0,0,0c0,0-0.1,0.1-0.1,0.1c0,0,0,0,0,0c0,0-0.1,0.1-0.1,0.2c0,0,0,0,0,0l0,0c-0.1,0.1-0.1,0.3-0.1,0.4c0,0.5,0.4,0.9,0.9,0.9c0.5,0,0.9-0.4,0.9-0.9C10.8,11,10.7,10.8,10.6,10.7L10.6,10.7z"></path><path fill="#231F20" d="M14.2,4.5c-0.5,0-0.9,0.4-0.9,0.9c0,0.2,0,0.3,0.1,0.4c0.1,0.2,0.3,0.4,0.6,0.5c0.1,0,0.1,0,0.2,0c0.5,0,0.9-0.4,0.9-0.9C15.1,4.9,14.7,4.5,14.2,4.5z"></path><path fill="#231F20" d="M2.2,7.7C2.1,7.6,2,7.6,1.8,7.6C1.3,7.6,0.9,8,0.9,8.5c0,0.5,0.4,0.9,0.9,0.9c0.5,0,0.9-0.4,0.9-0.9 dc0-0.1,0-0.1,0-0.2C2.7,8,2.5,7.8,2.2,7.7z"></path></svg>
