<svg xmlns="http://www.w3.org/2000/svg" viewBox="0 0 40.2 40.2"><path d="M24.6,25.4c-4.6-1.8-5.5-2.6-5.7-2.8v-0.5c0.5-0.6,0.9-1.4,1.2-2.3c0.4-0.3,0.6-0.8,0.7-1.3s0-1-0.3-1.4v-1.8c0-2.6-1.6-4.1-4.3-4.1s-4.3,1.5-4.3,4.1v1.8c-0.3,0.4-0.4,0.9-0.3,1.4c0.1,0.5,0.3,0.9,0.7,1.3c0.3,0.9,0.7,1.7,1.2,2.3v0.5c-0.3,0.4-1.5,1.2-3.6,2.1c-0.3,0.1-0.5,0.5-0.3,0.9c0.1,0.3,0.5,0.5,0.9,0.3c1.2-0.5,4-1.8,4.3-3c0-0.1,0-0.1,0-0.2v-0.9c0-0.2-0.1-0.3-0.2-0.5c-0.5-0.5-0.9-1.3-1.1-2.1c0-0.1-0.1-0.3-0.3-0.4s-0.3-0.3-0.3-0.5s0-0.4,0.2-0.6c0.1-0.1,0.1-0.3,0.1-0.4v-2c0-1.8,1-2.8,3-2.8s3,0.9,3,2.8v2c0,0.2,0.1,0.3,0.1,0.4c0.1,0.2,0.2,0.4,0.2,0.6s-0.1,0.4-0.3,0.5C19,19,19,19.1,18.9,19.3c-0.2,0.9-0.6,1.6-1.1,2.1c-0.1,0.1-0.2,0.3-0.2,0.5v0.9c0,0.1,0,0.1,0,0.2c0.2,0.7,1.1,1.6,6.4,3.7v2.7c0,0.4,0.3,0.7,0.7,0.7c0.4,0,0.7-0.3,0.7-0.7v-2.7C25.4,26.1,25.1,25.6,24.6,25.4z"></path><path d="M29.6,25.2c-1.1-0.5-1.6-0.9-1.7-1.1v-0.3c0.4-0.5,0.7-1.1,0.9-1.7c0.3-0.3,0.5-0.6,0.5-1c0.1-0.4,0-0.8-0.2-1.2v-1.3c0-2.1-1.3-3.3-3.5-3.3s-3.5,1.3-3.5,3.3V20c-0.2,0.3-0.3,0.7-0.2,1.1c0.1,0.4,0.2,0.8,0.5,1c0.2,0.8,0.6,1.4,1.1,1.9c0.3,0.3,0.7,0.3,0.9,0c0.3-0.3,0.3-0.7,0-0.9c-0.4-0.4-0.7-0.9-0.8-1.6c0-0.1-0.1-0.3-0.3-0.4c-0.1-0.1-0.2-0.2-0.2-0.3c0-0.1,0-0.2,0.1-0.3c0.1-0.1,0.1-0.3,0.1-0.4v-1.5c0-1.3,0.7-2,2.2-2s2.2,0.6,2.2,2v1.5c0,0.2,0.1,0.3,0.1,0.4C28,20.8,28,20.9,28,21s-0.1,0.2-0.2,0.3c-0.1,0.1-0.2,0.2-0.3,0.4c-0.2,0.6-0.5,1.2-0.8,1.6c-0.1,0.1-0.2,0.3-0.2,0.5v0.7c0,0.1,0,0.1,0,0.2c0.2,0.6,1,1.2,2.5,1.9c0.1,0,0.2,0.1,0.3,0.1c0.3,0,0.5-0.1,0.6-0.4C30.1,25.8,30,25.4,29.6,25.2z"></path><path d="M35.4,19.4h-0.7c-0.3-7.5-6.4-13.6-14-14V4.8c0-0.4-0.3-0.7-0.7-0.7c-0.4,0-0.7,0.3-0.7,0.7v0.7c-7.5,0.3-13.6,6.4-14,14H4.8c-0.4,0-0.7,0.3-0.7,0.7s0.3,0.7,0.7,0.7h0.7c0.3,7.5,6.4,13.6,14,14v0.7c0,0.4,0.3,0.7,0.7,0.7c0.4,0,0.7-0.3,0.7-0.7v-0.7c7.5-0.3,13.6-6.4,14-14h0.7c0.4,0,0.7-0.3,0.7-0.7S35.8,19.4,35.4,19.4z M20.8,33.4v-1.7c0-0.4-0.3-0.7-0.7-0.7c-0.4,0-0.7,0.3-0.7,0.7v1.7C12.6,33,7.2,27.6,6.8,20.8h1.7c0.4,0,0.7-0.3,0.7-0.7s-0.3-0.7-0.7-0.7H6.8c0.3-6.8,5.8-12.3,12.6-12.6v1.8c0,0.4,0.3,0.7,0.7,0.7c0.4,0,0.7-0.3,0.7-0.7V6.8c6.8,0.3,12.3,5.8,12.6,12.6h-1.8c-0.4,0-0.7,0.3-0.7,0.7s0.3,0.7,0.7,0.7h1.8C33,27.6,27.6,33,20.8,33.4z"></path></svg>
