<svg xmlns="http://www.w3.org/2000/svg" viewBox="0 0 16 16"><path d="M14.9,12.3H5.7C5.3,12.3,5,12.6,5,13c0,0.4,0.3,0.6,0.6,0.6h9.2c0.4,0,0.6-0.3,0.6-0.6C15.5,12.6,15.2,12.3,14.9,12.3z"></path><path class="st0" d="M14.9,7.4H5.7C5.3,7.4,5,7.7,5,8.1c0,0.4,0.3,0.6,0.6,0.6h9.2c0.4,0,0.6-0.3,0.6-0.6C15.5,7.7,15.2,7.4,14.9,7.4z"></path><path class="st0" d="M5.7,3.8h9.2c0.4,0,0.6-0.3,0.6-0.6s-0.3-0.6-0.6-0.6H5.7C5.3,2.5,5,2.8,5,3.1C5,3.5,5.3,3.8,5.7,3.8z"></path><path class="st0" d="M2.7,1.7H1.1C0.8,1.7,0.5,2,0.5,2.4v1.6c0,0.4,0.3,0.6,0.6,0.6h1.6c0.4,0,0.6-0.3,0.6-0.6V2.4C3.3,2,3.1,1.7,2.7,1.7z"></path><path class="st0" d="M2.7,6.6H1.1c-0.4,0-0.6,0.3-0.6,0.6v1.6c0,0.4,0.3,0.6,0.6,0.6h1.6c0.4,0,0.6-0.3,0.6-0.6V7.3C3.3,6.9,3.1,6.6,2.7,6.6z"></path><path class="st0" d="M2.7,11.6H1.1c-0.4,0-0.6,0.3-0.6,0.6v1.5c0,0.4,0.3,0.6,0.6,0.6h1.6c0.4,0,0.6-0.3,0.6-0.6v-1.6C3.3,11.8,3.1,11.6,2.7,11.6z"></path></svg>
