<svg xmlns="http://www.w3.org/2000/svg" viewBox="0 0 16 16"><path fill="#5D5E5F" d="M12,4.1C12,4.1,12,4.1,12,4.1l-7.6,0C2.5,4.1,1,5.7,1,7.6c0,1.3,0,4.3,2.3,4.3c1.2,0,3.1-1.3,3.9-3h1.9c0.8,1.6,2.7,3,3.9,3c2.3,0,2.3-3,2.3-4.3C15.4,5.7,13.9,4.1,12,4.1z M13.1,11.3c-0.9,0-2.8-1.2-3.4-2.8c0-0.1-0.2-0.2-0.3-0.2H7c-0.1,0-0.2,0.1-0.3,0.2c-0.6,1.5-2.5,2.8-3.4,2.8c-1.5,0-1.7-1.9-1.7-3.7c0-1.6,1.2-2.9,2.8-2.9c0,0,0,0,0,0l7.6,0c1.5,0,2.8,1.3,2.8,2.9C14.8,9.4,14.6,11.3,13.1,11.3z"/><path fill="#5D5E5F" d="M4.3,5.9c-0.8,0-1.5,0.7-1.5,1.5c0,0.8,0.7,1.5,1.5,1.5c0.8,0,1.5-0.7,1.5-1.5C5.7,6.6,5.1,5.9,4.3,5.9zM4.3,8.2c-0.5,0-0.9-0.4-0.9-0.9c0-0.5,0.4-0.9,0.9-0.9c0.5,0,0.9,0.4,0.9,0.9C5.1,7.8,4.7,8.2,4.3,8.2z"/><path fill="#5D5E5F" d="M13.2,7.1h-0.9V6.2c0-0.2-0.1-0.3-0.3-0.3S11.7,6,11.7,6.2v0.9h-0.9c-0.2,0-0.3,0.1-0.3,0.3c0,0.2,0.1,0.3,0.3,0.3h0.9v0.9c0,0.2,0.1,0.3,0.3,0.3s0.3-0.1,0.3-0.3V7.7h0.9c0.2,0,0.3-0.1,0.3-0.3C13.5,7.2,13.4,7.1,13.2,7.1z"/></svg>
