
<svg xmlns="http://www.w3.org/2000/svg" viewBox="0 0 16 16"><path fill="#FFFFFF" d="M2.4,10.6c0.2,0,0.3-0.1,0.3-0.3V3.7c0-0.1,0.1-0.1,0.1-0.1h10.3c0.1,0,0.1,0.1,0.1,0.1v6.6c0,0.2,0.1,0.3,0.3,0.3s0.3-0.1,0.3-0.3V3.7c0-0.4-0.3-0.7-0.7-0.7H2.8C2.4,3,2.1,3.4,2.1,3.7v6.6C2.1,10.5,2.2,10.6,2.4,10.6z"/><path fill="#FFFFFF" d="M14.7,11.2h-6c-0.2,0-0.3,0.1-0.3,0.3v0.1H7.5v-0.2c0-0.2-0.1-0.3-0.3-0.3h-6c-0.2,0-0.3,0.1-0.3,0.3v0.7C1,12.6,1.3,13,1.7,13h12.5c0.4,0,0.8-0.3,0.8-0.8v-0.7C14.9,11.3,14.8,11.2,14.7,11.2z M14.4,12.2c0,0.1-0.1,0.2-0.2,0.2H1.7c-0.1,0-0.2-0.1-0.2-0.2v-0.4H7c0,0.2,0.2,0.4,0.5,0.4h0.9c0.3,0,0.5-0.2,0.5-0.4h5.4v0.4H14.4z"/></svg>
