<svg xmlns="http://www.w3.org/2000/svg" viewBox="0 0 16 16"><path fill="#FFFFFF" d="M8,12.5c-0.4,0-0.8,0.4-0.8,0.8s0.4,0.8,0.8,0.8c0.4,0,0.8-0.4,0.8-0.8S8.4,12.5,8,12.5zM8,13.5c-0.1,0-0.2-0.1-0.2-0.2c0-0.1,0.1-0.2,0.2-0.2c0.1,0,0.2,0.1,0.2,0.2S8.1,13.5,8,13.5z"/><path fill="#FFFFFF" d="M12.1,3.1C12.1,3,12.1,3,12.1,3.1V2.5c0-0.8-0.7-1.5-1.5-1.5H5.4C4.6,1,3.9,1.7,3.9,2.5v11.1c0,0.8,0.7,1.5,1.5,1.5h5.2c0.8,0,1.5-0.7,1.5-1.5v-1.7l0,0V3.1z M11.5,11.5h-7V3.3h7V11.5zM5.4,1.6h5.2c0.5,0,0.9,0.4,0.9,0.9v0.3h-7V2.5C4.5,2,4.9,1.6,5.4,1.6zM10.6,14.4H5.4c-0.5,0-0.9-0.4-0.9-0.9v-1.4h7v1.4C11.5,14,11.1,14.4,10.6,14.4z"/></svg>
