<svg xmlns="http://www.w3.org/2000/svg" viewBox="0 0 16 16"><path fill="#FFFFFF" d="M12.9,1H3.1c-0.5,0-1,0.4-1,0.8v12.3c0,0.5,0.4,0.8,0.9,0.8h9.8c0.5,0,0.9-0.4,0.9-0.8V1.8C13.8,1.4,13.4,1,12.9,1zM13.2,14.2c0,0.1-0.1,0.3-0.3,0.3H3.1c-0.2,0-0.3-0.1-0.3-0.3V1.8c0-0.1,0.1-0.3,0.3-0.3h9.8c0.2,0,0.3,0.1,0.3,0.3V14.2z"/><path fill="#FFFFFF" d="M12.4,2.2H3.6c-0.2,0-0.3,0.1-0.3,0.3V13c0,0.2,0.1,0.3,0.3,0.3h8.7c0.2,0,0.3-0.1,0.3-0.3V2.5C12.6,2.3,12.5,2.2,12.4,2.2z M12.1,12.7H3.9V2.8h8.2V12.7z"/><path fill="#FFFFFF" d="M7.8,13.6c-0.1,0.1-0.1,0.1-0.1,0.2c0,0.1,0,0.2,0.1,0.2c0.1,0.1,0.1,0.1,0.2,0.1c0.1,0,0.2,0,0.2-0.1c0.1-0.1,0.1-0.1,0.1-0.2c0-0.1,0-0.2-0.1-0.2C8.1,13.5,7.9,13.5,7.8,13.6z"/></svg>
