<svg id="Group_20169" data-name="Group 20169" xmlns="http://www.w3.org/2000/svg" width="18.889" height="18.496" viewBox="0 0 18.889 18.496">
  <path id="Path_6790" data-name="Path 6790" d="M1269.541-810.823a.4.4,0,0,0,.277.114h.012a.385.385,0,0,0,.3-.153l3.475-3.446a.393.393,0,0,0,0-.556.393.393,0,0,0-.557,0l-2.831,2.808v-13.545a.393.393,0,0,0-.394-.393.393.393,0,0,0-.394.393v13.571l-2.855-2.833a.394.394,0,0,0-.556,0,.393.393,0,0,0,0,.556Z" transform="translate(-1260.373 825.999)" />
  <path id="Path_6791" data-name="Path 6791" d="M1279.131-814a.394.394,0,0,0-.394.394v4.723h-17.316v-4.723a.393.393,0,0,0-.394-.394.394.394,0,0,0-.394.394v5.116a.394.394,0,0,0,.394.394h18.1a.393.393,0,0,0,.394-.394v-5.116A.393.393,0,0,0,1279.131-814Z" transform="translate(-1260.634 826.592)" />
</svg>
