<?xml version="1.0" encoding="utf-8"?>
<!-- Generator: Adobe Illustrator 24.1.2, SVG Export Plug-In . SVG Version: 6.00 Build 0)  -->
<svg version="1.1" id="Layer_1" xmlns="http://www.w3.org/2000/svg" xmlns:xlink="http://www.w3.org/1999/xlink" x="0px" y="0px"
	 viewBox="0 0 16 16" style="enable-background:new 0 0 16 16;" xml:space="preserve">
<style type="text/css">
	.st0{fill:none;}
	.st1{fill:#5A5A5A;}
</style>
<rect x="0" class="st0" width="16" height="16"/>
<g>
	<path class="st1" d="M11,8.6h2c0.3,0,0.5-0.2,0.5-0.5V5.4c0-0.3-0.2-0.5-0.5-0.5h-2c-0.3,0-0.5,0.2-0.5,0.5v2.7
		C10.5,8.4,10.7,8.6,11,8.6z M11.1,5.5h1.8V8h-1.8V5.5z"/>
	<path class="st1" d="M2.8,11.1h4.2c0.2,0,0.3-0.1,0.3-0.3s-0.1-0.3-0.3-0.3H2.8c-0.2,0-0.3,0.1-0.3,0.3S2.7,11.1,2.8,11.1z"/>
	<path class="st1" d="M2.8,9.2h4.2c0.2,0,0.3-0.1,0.3-0.3c0-0.2-0.1-0.3-0.3-0.3H2.8c-0.2,0-0.3,0.1-0.3,0.3
		C2.5,9.1,2.7,9.2,2.8,9.2z"/>
	<path class="st1" d="M2.8,7.4h1.8c0.2,0,0.3-0.1,0.3-0.3c0-0.2-0.1-0.3-0.3-0.3H2.8c-0.2,0-0.3,0.1-0.3,0.3
		C2.5,7.2,2.7,7.4,2.8,7.4z"/>
	<path class="st1" d="M15.1,3.1H0.9c-0.2,0-0.3,0.1-0.3,0.3v9.2c0,0.2,0.1,0.3,0.3,0.3h14.1c0.2,0,0.3-0.1,0.3-0.3V3.4
		C15.4,3.2,15.2,3.1,15.1,3.1z M14.8,12.3H1.2V3.7h13.5V12.3z"/>
</g>
</svg>
