<svg xmlns="http://www.w3.org/2000/svg" viewBox="0 0 16 16"><g fill="#5a5a5a"><path d="M14.579 6.28c0-.9-.7-1.7-1.6-1.9v-3.1c0-.2-.1-.3-.3-.3-.2 0-.3.1-.3.3v3.1c-.9.2-1.6.9-1.6 1.9 0 .9.7 1.7 1.6 1.9v6.9c0 .2.1.3.3.3.2 0 .3-.1.3-.3v-6.9c.9-.2 1.6-1 1.6-1.9zm-1.9 1.3c-.7 0-1.3-.6-1.3-1.3 0-.7.6-1.3 1.3-1.3.7 0 1.3.6 1.3 1.3 0 .7-.6 1.3-1.3 1.3zM3.679 1.98v-.7c0-.2-.1-.3-.3-.3-.2 0-.3.1-.3.3v.7c-.9.2-1.6.9-1.6 1.9 0 .9.7 1.7 1.6 1.9v9.3c0 .2.1.3.3.3.2 0 .3-.1.3-.3v-9.3c.9-.2 1.6-.9 1.6-1.9 0-1-.7-1.8-1.6-1.9zm-.3 3.1c-.7 0-1.3-.6-1.3-1.3 0-.7.6-1.3 1.3-1.3.7 0 1.3.6 1.3 1.3-.1.8-.6 1.3-1.3 1.3zM8.279 9.48v-8.2c0-.2-.1-.3-.3-.3-.2 0-.3.1-.3.3v8.2c-.9.2-1.6.9-1.6 1.9 0 .9.7 1.7 1.6 1.9v1.9c0 .2.1.3.3.3.2 0 .3-.1.3-.3v-1.9c.9-.2 1.6-.9 1.6-1.9 0-1-.7-1.8-1.6-1.9zm-.3 3.1c-.7 0-1.3-.6-1.3-1.3 0-.7.6-1.3 1.3-1.3.7 0 1.3.6 1.3 1.3 0 .7-.6 1.3-1.3 1.3z"/></g></svg>
