<svg xmlns="http://www.w3.org/2000/svg" viewBox="0 0 16 16"><path d="M15.2,9.8l-2.1-2.9c-0.1-0.1-0.2-0.1-0.3-0.1s-0.2,0-0.3,0.1l-2.1,2.9c-0.1,0.1-0.1,0.2,0,0.3 c0.1,0.1,0.2,0.2,0.3,0.2h1.2c-0.3,0.4-0.6,0.8-1,1.2c-0.9,0.8-2.1,1.1-3.3,1c-1.2-0.1-2.2-0.6-3-1.5c-0.3-0.3-0.7-0.3-1-0.1 c-0.3,0.3-0.3,0.7-0.1,1c1,1.2,2.4,1.9,4,2c0.2,0,0.3,0,0.5,0c1.4,0,2.8-0.5,3.8-1.4c0.7-0.6,1.3-1.4,1.7-2.3h1.4 c0.1,0,0.2-0.1,0.3-0.2C15.3,10,15.3,9.9,15.2,9.8z"></path><path d="M3.4,9.1l2.1-2.9c0.1-0.1,0.1-0.2,0-0.3C5.5,5.8,5.4,5.7,5.3,5.7H4.1C5,4.2,6.6,3.4,8.4,3.5 c1.2,0.1,2.2,0.6,3,1.5c0.3,0.3,0.7,0.3,1,0.1c0.3-0.3,0.3-0.7,0.1-1c-1-1.2-2.5-1.9-4-2c-2.6-0.2-5.1,1.3-6,3.7H1.1 c-0.1,0-0.2,0.1-0.3,0.2c-0.1,0.1,0,0.2,0,0.3l2.1,2.9C3,9.2,3.1,9.3,3.2,9.3C3.3,9.3,3.4,9.2,3.4,9.1z"></path></svg>
