<svg xmlns="http://www.w3.org/2000/svg" viewBox="0 0 22.371 22.371"><path d="m17 8.0885 1.425-2.468 3.214 5.567-1.421 2.468L17 8.0885zm-.586 12.157h-2.849l3.212-5.564h2.849l-3.212 5.564zm-4.865-2.707 3.3-5.718 1.425 2.468-3.3 5.72-1.425-2.47zm-5.592 2.707-1.425-2.468h6.426l1.424 2.468H5.957zm-5.229-9.058 1.425-2.468 3.214 5.564-1.424 2.462-3.215-5.558zm5.228-9.056h2.849l-3.212 5.564H2.746l3.21-5.564zm3.44.238 1.425 2.468-3.3 5.72-1.425-2.468 3.3-5.72zm8.529 2.861L16.5 7.6975H9.9l1.424-2.468 6.601.001zm-4.361 3.1h2.849l3.258 5.642.046.079h-2.848l-.046-.079-3.259-5.642zm-4.029 5.715-1.651-2.86 1.651-2.859h3.3l1.651 2.86-1.65 2.859H9.535zm-3.578 0-3.3-5.722H5.5l3.3 5.722H5.957zm-.091.633h6.606l-1.424 2.467-6.6-.008 1.418-2.459zm10.548-12.547 1.425 2.468h-6.427l-1.425-2.468h6.427zm.364-.631H5.593L0 11.1855l5.592 9.685h11.186l5.593-9.687-5.593-9.683z"/></svg>
