<svg xmlns="http://www.w3.org/2000/svg" viewBox="0 0 16 16"><g fill="#5a5a5a"><path d="M14.1.7H1.9C1.3.7.7 1.2.7 1.9v12.2c0 .6.5 1.2 1.2 1.2h12.2c.6 0 1.2-.5 1.2-1.2V1.9c0-.6-.6-1.2-1.2-1.2zm.6 13.4c0 .3-.2.6-.6.6H1.9c-.3 0-.6-.2-.6-.6V1.9c0-.3.2-.6.6-.6h12.2c.3 0 .6.2.6.6v12.2z"/><path d="M2.7 10.9h.1c.1 0 .2-.1.3-.2.1-.2 0-.3-.2-.4-.2-.1-.3 0-.4.2 0 .2.1.4.2.4zm.5-1h.1c.1 0 .3-.1.3-.2.1-.2 0-.3-.2-.4-.2-.1-.3 0-.4.2v.1c0 .1.1.2.2.3zm.5-1.1h.1c.1 0 .3-.1.3-.2.1-.2 0-.3-.2-.4-.2-.1-.3 0-.4.2v.1c-.1.1 0 .3.2.3zm.5-1h.1c.1 0 .2-.1.3-.1.1-.1 0-.3-.1-.4-.1 0-.2-.1-.2 0-.2-.1-.3 0-.3.1-.1.2 0 .3.2.4zm.9.6c.1.1.2.1.2.1.1 0 .2-.1.3-.1.1-.1 0-.3-.1-.4h-.1c-.1-.2-.3-.2-.4 0 0 .1 0 .3.1.4zm1.1.7h.2c.1-.1.2-.1.3-.2.1-.1 0-.3-.1-.4h-.1c-.1 0-.2 0-.3.1-.2.2-.1.4 0 .5zm1-1.9h.1c.1 0 .2-.1.3-.2.1-.1 0-.3-.1-.4-.1-.1-.3 0-.4.1-.1.2 0 .4.1.5zm.5-1h.1c.1 0 .2-.1.3-.2.1-.1 0-.3-.1-.4-.1-.1-.3 0-.4.1-.1.3 0 .4.1.5zm-1 1.9h.1c.2 0 .3 0 .4-.1.1-.1 0-.3-.1-.4-.1-.1-.3 0-.4.1-.2.2-.1.3 0 .4zm1.5-2.8h.2c.1 0 .2 0 .2-.1.1-.1 0-.3-.1-.4-.1 0-.2-.1-.2 0-.1 0-.2.1-.2.2-.1 0 0 .2.1.3zm1.2.7c.1 0 .2 0 .2-.1.1-.1.1-.3-.1-.4-.1-.1-.3 0-.4.1-.1 0 0 .2.1.3.1.1.1.1.2.1zm.9.6c.1 0 .2 0 .3-.1.1-.1.1-.3 0-.4 0 0-.1-.1-.2-.1s-.3 0-.3.1c-.1.1 0 .3.1.4 0 .1 0 .1.1.1zm.9-.9c.1 0 .2 0 .2-.1.1-.1.1-.3 0-.4-.1-.1-.3-.1-.4 0-.1.1-.1.3 0 .4.1.1.2.1.2.1zm1.2-1c.2-.2.2-.4 0-.5-.1-.1-.3-.1-.4 0-.1.1-.1.3 0 .4.1.1.1.1.2.1h.2z"/><path d="M13.5 3.4c-.1-.1-.1-.1 0 0 0-.1-.1-.1-.1-.1h-2c-.2 0-.3.1-.3.3 0 .2.1.3.3.3h1.4v1.4c0 .2.1.3.3.3.2 0 .3-.1.3-.3l.1-1.9c0 .1 0 .1 0 0zm0 5.4c-.1 0-.1-.1 0 0l-.1-.1h-2c-.2 0-.3.1-.3.3 0 .2.1.3.3.3h1L10 11.6l-2.9-1.1h-.3l-4.2 2.4c-.1.1-.2.3-.1.4.1.1.2.2.3.2h.1L7 11.2l2.9 1.1c.1 0 .2 0 .3-.1l2.5-2.5v1c0 .2.1.3.3.3.2 0 .3-.1.3-.3V9c.2-.1.2-.2.2-.2z"/></g></svg>