<svg xmlns="http://www.w3.org/2000/svg" viewBox="0 0 40.2 40.2"><path d="M35.1,22.4L18.7,6c-0.4-0.4-0.9-0.6-1.4-0.6L7.4,5C6.8,5,6.3,5.2,5.8,5.7c-0.4,0.4-0.6,1-0.6,1.6l0.3,9.8c0,0.5,0.2,1,0.6,1.4L8,20.4c0.2,0.2,0.7,0.2,0.9,0s0.2-0.7,0-0.9L7,17.6c-0.2-0.2-0.2-0.4-0.2-0.6L6.5,7.2c0-0.2,0.1-0.5,0.2-0.6c0.2-0.2,0.4-0.2,0.6-0.2l9.8,0.3c0.2,0,0.4,0.1,0.6,0.2l16.4,16.4c0.3,0.3,0.3,0.9,0,1.2L24.7,34c-0.3,0.3-0.9,0.3-1.2,0l-2.1-2.1c-0.2-0.2-0.7-0.2-0.9,0c-0.2,0.2-0.2,0.7,0,0.9l2.1,2.1c0.4,0.4,1,0.6,1.5,0.6s1.1-0.2,1.5-0.6l9.5-9.5C35.9,24.6,35.9,23.3,35.1,22.4z"></path><path d="M14.3,14.1c1.2-1.2,1.2-3,0-4.2s-3-1.2-4.2,0s-1.2,3,0,4.2c0.6,0.6,1.3,0.9,2.1,0.9C12.9,14.9,13.7,14.7,14.3,14.1z M11,13.2c-0.7-0.7-0.7-1.7,0-2.4c0.3-0.3,0.8-0.5,1.2-0.5s0.9,0.2,1.2,0.5c0.7,0.7,0.7,1.7,0,2.4C12.7,13.8,11.6,13.8,11,13.2z"></path><path d="M20.5,27.9h0.7c0.4,0,0.6-0.3,0.6-0.6c0-0.4-0.3-0.6-0.6-0.6h-0.7c-0.3-3.4-3-6-6.3-6.3v-0.7c0-0.4-0.3-0.6-0.6-0.6c-0.4,0-0.6,0.3-0.6,0.6v0.7c-3.4,0.3-6,3-6.3,6.3H5.9c-0.4,0-0.6,0.3-0.6,0.6c0,0.4,0.3,0.6,0.6,0.6h0.7c0.3,3.4,3,6,6.3,6.4V35c0,0.4,0.3,0.6,0.6,0.6c0.4,0,0.6-0.3,0.6-0.6v-0.7C17.5,33.9,20.2,31.2,20.5,27.9z M14.1,32.9V31c0-0.4-0.3-0.6-0.6-0.6c-0.4,0-0.6,0.3-0.6,0.6v1.9c-2.7-0.3-4.7-2.4-5-5h1.9c0.4,0,0.6-0.3,0.6-0.6c0-0.4-0.3-0.6-0.6-0.6h-2c0.3-2.6,2.4-4.7,5-5v1.8c0,0.4,0.3,0.6,0.6,0.6c0.4,0,0.6-0.3,0.6-0.6v-1.8c2.6,0.3,4.7,2.4,5,5h-1.8c-0.4,0-0.6,0.3-0.6,0.6c0,0.4,0.3,0.6,0.6,0.6H19C18.9,30.5,16.8,32.6,14.1,32.9z"></path><path d="M13.5,26.6L13.5,26.6c-0.4,0-0.7,0.3-0.7,0.6c0,0.4,0.3,0.6,0.7,0.6s0.6-0.3,0.6-0.6C14.2,26.9,13.9,26.6,13.5,26.6z"></path></svg>
