<svg xmlns="http://www.w3.org/2000/svg" viewBox="0 0 40.2 40.2"><path d="M25.1,13c-1.7-1.7-3.5-3.1-5.2-3.8c-2.4-1.1-3.6-0.6-4.1-0.1c-0.3,0.3-0.5,0.7-0.6,1.4l-2.1,7.3l-1.4,2.1l-4.2,6.2C6.7,27.3,6.8,29,7.9,30c0.6,0.6,1.4,0.9,2.2,0.9c0.6,0,1.1-0.2,1.6-0.5l1.2-0.8l5,5c0.5,0.5,1.1,0.7,1.7,0.7c0.4,0,0.7-0.1,1.1-0.3c0.7-0.4,1.2-1.1,1.3-1.9c0.1-0.8-0.3-1.6-0.9-2.1l-4.6-3.6l1.7-1.1l2.2-1.4l7.4-2.1c0.6-0.1,1-0.3,1.3-0.6c0.6-0.6,1-1.8-0.1-4.1C28.1,16.5,26.8,14.7,25.1,13z M20.1,23.7c-1-0.7-2.1-1.6-3.1-2.6s-1.9-2.1-2.6-3.2l1.4-4.9c0,0.1,0,0.1,0.1,0.2c0.8,1.7,2.1,3.5,3.8,5.2c1.7,1.7,3.5,3.1,5.2,3.8c0.1,0,0.1,0,0.2,0.1L20.1,23.7z M17.7,25.1c-0.9-0.6-1.8-1.4-2.6-2.2c-0.8-0.8-1.6-1.7-2.2-2.6l0.7-1.1c0.7,1,1.5,1.9,2.4,2.8s1.8,1.7,2.8,2.4L17.7,25.1z M11,29.3c-0.7,0.4-1.6,0.3-2.2-0.3c-0.6-0.6-0.7-1.6-0.2-2.3l3.7-5.4c0.6,0.8,1.3,1.7,2.1,2.4c0.7,0.7,1.5,1.4,2.3,2C16,26.2,11.6,28.9,11,29.3z M20.2,32.1c0.3,0.2,0.5,0.6,0.4,1c0,0.4-0.3,0.7-0.6,0.9c-0.4,0.2-0.9,0.1-1.3-0.2L14,29l1.2-0.8L20.2,32.1z M28.1,21.4c-0.4,0.4-1.4,0.3-2.7-0.3c-1.5-0.7-3.2-2-4.8-3.6s-2.9-3.3-3.6-4.8c-0.6-1.3-0.7-2.3-0.3-2.7c0.1-0.1,0.4-0.2,0.7-0.2c0.5,0,1.2,0.2,2,0.5c1.5,0.7,3.2,2,4.8,3.6s2.9,3.3,3.6,4.8C28.3,20,28.5,21,28.1,21.4z"></path><path d="M20.4,14.8c-0.3,0.3-0.3,0.7,0,0.9c0.3,0.3,0.7,0.3,0.9,0c0.3-0.3,0.8-0.3,1.1,0c0.3,0.3,0.3,0.8,0,1.1s-0.3,0.7,0,0.9c0.1,0.1,0.3,0.2,0.5,0.2s0.3-0.1,0.5-0.2c0.8-0.8,0.8-2.1,0-2.9C22.5,14,21.1,14,20.4,14.8z"></path><path d="M26.5,12.1c0.2,0,0.3-0.1,0.5-0.2l2.5-2.5c0.3-0.3,0.3-0.7,0-0.9c-0.3-0.3-0.7-0.3-0.9,0L26,11c-0.3,0.3-0.3,0.7,0,0.9C26.1,12.1,26.3,12.1,26.5,12.1z"></path><path d="M33.2,13.1c-0.1-0.3-0.5-0.5-0.9-0.3L29,14.3c-0.3,0.1-0.5,0.5-0.3,0.9c0.1,0.2,0.3,0.4,0.6,0.4c0.1,0,0.2,0,0.3-0.1L33,14C33.2,13.8,33.4,13.4,33.2,13.1z"></path><path d="M22.8,9.2c0.1,0,0.2,0.1,0.3,0.1c0.2,0,0.5-0.1,0.6-0.4l1.5-3.4c0.1-0.3,0-0.7-0.3-0.9c-0.3-0.1-0.7,0-0.9,0.3l-1.5,3.4C22.3,8.7,22.5,9.1,22.8,9.2z"></path></svg>
