<svg xmlns="http://www.w3.org/2000/svg" viewBox="0 0 40.2 40.2"><path d="M36.2,5.8l-8.4-1.4c-0.1,0-0.3,0-0.4,0.1L19.5,8L13,5c-0.2-0.1-0.4-0.1-0.5,0L4.3,8.1C4,8.2,3.8,8.4,3.8,8.7v20.9c0,0.2,0.1,0.4,0.3,0.6c0.1,0.1,0.3,0.1,0.4,0.1s0.2,0,0.2,0l7.9-3l6.3,2.8c0.3,0.2,0.8,0,0.9-0.3c0.2-0.3,0-0.8-0.3-0.9l-6.5-3c-0.2-0.1-0.4-0.1-0.5,0l-7.2,2.7V9.2l7.4-2.8l6.6,3c0.2,0.1,0.4,0.1,0.6,0l7.9-3.6L35.4,7v19.4L33.5,26c-0.4-0.1-0.7,0.2-0.8,0.5c-0.1,0.4,0.2,0.7,0.5,0.8l2.8,0.5c0.2,0,0.4,0,0.6-0.1c0.2-0.1,0.2-0.3,0.2-0.5V6.5C36.8,6.1,36.5,5.8,36.2,5.8z"></path><path d="M12,9.6v13.2c0,0.4,0.3,0.7,0.7,0.7s0.7-0.3,0.7-0.7V9.6c0-0.4-0.3-0.7-0.7-0.7C12.3,9,12,9.3,12,9.6z"></path><path d="M20.2,17.3v-5c0-0.4-0.3-0.7-0.7-0.7c-0.4,0-0.7,0.3-0.7,0.7v5c0,0.4,0.3,0.7,0.7,0.7C19.9,17.9,20.2,17.6,20.2,17.3z"></path><path d="M28.5,15.4V8.7c0-0.4-0.3-0.7-0.7-0.7s-0.7,0.3-0.7,0.7v6.7c0,0.4,0.3,0.7,0.7,0.7S28.5,15.8,28.5,15.4z"></path><path d="M25.7,18.1c-3.6,0-6.5,2.9-6.5,6.4c0,3.3,5.3,11.4,5.9,12.3c0.1,0.2,0.3,0.3,0.6,0.3c0.2,0,0.4-0.1,0.6-0.3c0.6-0.9,5.9-9,5.9-12.3C32.2,21,29.3,18.1,25.7,18.1z M25.7,35.1c-1.8-2.9-5.1-8.5-5.1-10.6c0-2.8,2.3-5.1,5.1-5.1s5.1,2.3,5.1,5.1C30.8,26.7,27.6,32.3,25.7,35.1z"></path><path d="M25.7,22c-1.2,0-2.1,0.9-2.1,2.1s0.9,2.1,2.1,2.1s2.1-0.9,2.1-2.1C27.9,22.9,26.9,22,25.7,22z M25.7,24.8c-0.4,0-0.7-0.3-0.7-0.7c0-0.4,0.3-0.7,0.7-0.7s0.7,0.3,0.7,0.7C26.5,24.5,26.1,24.8,25.7,24.8z"></path></svg>
