<svg xmlns="http://www.w3.org/2000/svg" viewBox="0 0 50 50"><circle fill="#C1E9DF" cx="25" cy="25" r="12.92"></circle><path fill="#DEF4EE" d="M12.08,25A12.92,12.92,0,0,0,25,37.92V12.08A12.92,12.92,0,0,0,12.08,25Z"></path><path fill="#74CEB7" d="M25,16.86a.83.83,0,0,0-.83.83v6.49H17.68a.83.83,0,1,0,0,1.65h6.49v6.49a.83.83,0,1,0,1.65,0V25.83h6.49a.83.83,0,1,0,0-1.65H25.83V17.68A.83.83,0,0,0,25,16.86Z"></path><path fill="#74CEB7" d="M25,10A15,15,0,1,0,40,25,15,15,0,0,0,25,10Zm0,27.69A12.69,12.69,0,1,1,37.69,25,12.7,12.7,0,0,1,25,37.69Z"></path></svg>
