<svg xmlns="http://www.w3.org/2000/svg" viewBox="0 0 50 50"><path fill="#D3D3D3" d="M38.51,13.89a2.56,2.56,0,0,0-3.68,0l3.66,3.66A2.56,2.56,0,0,0,38.51,13.89Z"></path><path fill="#FFF" d="M34.83,13.87l1.86,1.86,1.83-1.83A2.56,2.56,0,0,0,34.83,13.87Z"></path><path fill="#CFD3D4" d="M36.66,17.53l.92-.92-1.83-1.83-.87.87A15,15,0,0,1,36.66,17.53Z"></path><path fill="#CFD3D4" d="M25,11.93a15.06,15.06,0,0,1,2.13.15V10.33H22.87v1.76A15.06,15.06,0,0,1,25,11.93Z"></path><path fill="#C9F2F8" d="M12.73,27A12.27,12.27,0,0,0,25,39.25V14.7A12.27,12.27,0,0,0,12.73,27Z"></path><path fill="#D3D3D3" d="M29.27,10.86H20.73V9.74a1.54,1.54,0,0,1,1.48-1.55h5.58a1.54,1.54,0,0,1,1.48,1.55Z"></path><path fill="#FFF" d="M25,8.19H22.21a1.54,1.54,0,0,0-1.48,1.55v1.12H25Z"></path><path fill="#4FAAC9" d="M30.15,20.56,22.7,28a1,1,0,0,0,1.43,1.43L31.57,22a1,1,0,1,0-1.43-1.43Z"></path><circle fill="#FFF" cx="25" cy="26.87" r="14.94"></circle><circle fill="#9CE5F4" cx="25" cy="26.97" r="12.27"></circle></svg>
