<svg xmlns="http://www.w3.org/2000/svg" viewBox="0 0 50 50"><path fill="#FFF" d="M10.42,12.17a1.75,1.75,0,0,1,1.75-1.75H25l7.29,6.12V37.83a1.75,1.75,0,0,1-1.75,1.75H12.17a1.75,1.75,0,0,1-1.75-1.75Z"></path><path fill="#F0F1F1" d="M25,10.42v4.37a1.75,1.75,0,0,0,1.75,1.75h5.54Z"></path><path fill="#F79392" d="M39.58,38.21a1.37,1.37,0,0,1-1.37,1.37H36.39A1.37,1.37,0,0,1,35,38.21V37.3h4.56Z"></path><path fill="#E2E4E5" d="M28.19,20.44a.46.46,0,0,1-.46.46H20.9a.46.46,0,0,1-.46-.46h0A.46.46,0,0,1,20.9,20h6.83a.46.46,0,0,1,.46.46Z"></path><path fill="#E2E4E5" d="M25.46,22.72a.46.46,0,0,1-.46.46H20.9a.46.46,0,0,1-.46-.46h0a.46.46,0,0,1,.46-.46H25a.46.46,0,0,1,.46.46Z"></path><path fill="#E2E4E5" d="M28.19,26.37a.46.46,0,0,1-.46.46H20.9a.46.46,0,0,1-.46-.46h0a.46.46,0,0,1,.46-.46h6.83a.46.46,0,0,1,.46.46Z"></path><path fill="#E2E4E5" d="M25.46,28.65a.46.46,0,0,1-.46.46H20.9a.46.46,0,0,1-.46-.46h0a.46.46,0,0,1,.46-.46H25a.46.46,0,0,1,.46.46Z"></path><path fill="#E2E4E5" d="M28.19,32.29a.46.46,0,0,1-.46.46H20.9a.46.46,0,0,1-.46-.46h0a.46.46,0,0,1,.46-.46h6.83a.46.46,0,0,1,.46.46Z"></path><path fill="#E2E4E5" d="M25.46,34.57A.46.46,0,0,1,25,35H20.9a.46.46,0,0,1-.46-.46h0a.46.46,0,0,1,.46-.46H25a.46.46,0,0,1,.46.46Z"></path><path fill="#12B2A0" d="M15.92,23.63,14.2,21.91a.46.46,0,1,1,.64-.64l1,1,2-2.35a.46.46,0,1,1,.7.58Z"></path><path fill="#12B2A0" d="M15.92,29.56,14.2,27.84a.46.46,0,1,1,.64-.64l1,1,2-2.35a.46.46,0,1,1,.7.58Z"></path><path fill="#12B2A0" d="M15.92,35.48,14.2,33.76a.46.46,0,1,1,.64-.64l1,1,2-2.35a.46.46,0,1,1,.7.58Z"></path><path fill="#3E3E3F" d="M37.31,14.06l-.85,1.78a1,1,0,0,0,1.69,0Z"></path><path fill="#0484AB" d="M38.44,19.53a1.14,1.14,0,0,1-1.1-.84,0,0,0,0,0-.08,0,1.14,1.14,0,0,1-2.16.13,0,0,0,0,0-.08,0V36.39h4.56V18.83a0,0,0,0,0-.08,0A1.14,1.14,0,0,1,38.44,19.53Z"></path><path fill="#21B2D1" d="M35,36.39V18.85a0,0,0,0,1,.09,0,1.14,1.14,0,0,0,2.15-.14,0,0,0,0,1,0,0v17.7Z"></path><path fill="#F7B4B4" d="M35,37.3v.91a1.37,1.37,0,0,0,1.37,1.37h.91V37.3Z"></path><polygon fill="#F4D0A1" points="35.02 18.85 37.3 14.06 39.58 18.85 39.58 36.39 35.02 36.39 35.02 18.85"></polygon><polygon fill="#EDBC7C" points="39.58 21.36 39.58 18.85 37.3 14.06 37.3 21.36 39.58 21.36"></polygon><rect fill="#FACB1B" x="35.02" y="35.93" width="4.56" height="1.37"></rect><rect fill="#FBE158" x="35.02" y="36.39" width="2.28" height="0.91"></rect></svg>
