<svg xmlns="http://www.w3.org/2000/svg" viewBox="0 0 40.2 40.2"><path d="M17.5,13c0.1,0.2,0.4,0.3,0.6,0.3c0.1,0,0.3,0,0.4-0.1c0.3-0.2,0.4-0.7,0.2-1L12,2.5c-0.2-0.3-0.7-0.4-1-0.2s-0.4,0.7-0.2,1L17.5,13z"></path><path d="M35.5,2.3c-0.3-0.2-0.8-0.1-1,0.2L23.2,19.1c-1-0.3-2-0.5-3.1-0.5c-0.4,0-0.7,0-1.1,0.1l9.2-13.3c0.2-0.3,0.1-0.8-0.2-1c-0.3-0.2-0.8-0.1-1,0.2L17,18.8L5.8,2.5C5.5,2.1,5.1,2,4.7,2.3C4.4,2.5,4.3,3,4.5,3.3l11.1,16.2c-3.4,1.6-5.7,4.9-5.7,8.8c0,5.4,4.5,9.8,10.1,9.8s10.1-4.4,10.1-9.8c0-3.8-2.2-7.1-5.5-8.7L35.7,3.3C36,3,35.9,2.5,35.5,2.3zM28.6,28.3c0,4.5-3.8,8.2-8.6,8.2c-4.7,0-8.6-3.7-8.6-8.2s3.8-8.2,8.6-8.2C24.8,20.1,28.6,23.8,28.6,28.3z"></path><path d="M18.1,25.3c0.1,0.4,0.6,0.6,1,0.4l0.9-0.3v7.3c0,0.4,0.3,0.8,0.8,0.8c0.4,0,0.8-0.3,0.8-0.8v-8.4c0-0.2-0.1-0.5-0.3-0.6c-0.2-0.1-0.5-0.2-0.7-0.1l-1.9,0.7C18.2,24.4,18,24.9,18.1,25.3z"></path></svg>
