<svg xmlns="http://www.w3.org/2000/svg" viewBox="0 0 16 16"><path fill="none" stroke="#5D5E5F" stroke-width="0.7853" stroke-miterlimit="10" d="M1.5,1.1h13.1c0.4,0,0.7,0.3,0.7,0.7v8.6c0,0.4-0.3,0.7-0.7,0.7H1.5c-0.4,0-0.7-0.3-0.7-0.7V1.8C0.8,1.4,1.1,1.1,1.5,1.1z"/><rect x="6.6" y="11.1" fill="none" stroke="#5D5E5F" stroke-width="0.7853" stroke-miterlimit="10" width="2.7" height="3.8"/><path fill="5D5E5F" d="M4.2,3.3l-0.9,0C3,3.3,2.7,3.1,2.7,2.8v0c0-0.3,0.3-0.6,0.6-0.6l0.9,0c0.3,0,0.6,0.3,0.6,0.6v0C4.8,3.1,4.5,3.3,4.2,3.3z"/><line fill="none" stroke="#5D5E5F" stroke-width="0.3119" stroke-miterlimit="10" x1="3.8" y1="1.3" x2="3.8" y2="2.4"/><path fill="5D5E5F" d="M7,3.3l-0.9,0c-0.3,0-0.6-0.3-0.6-0.6v0c0-0.3,0.3-0.6,0.6-0.6l0.9,0c0.3,0,0.6,0.3,0.6,0.6v0C7.6,3.1,7.3,3.3,7,3.3z"/><line fill="none" stroke="#5D5E5F" stroke-width="0.3119" stroke-miterlimit="10" x1="6.6" y1="1.3" x2="6.6" y2="2.4"/><path fill="5D5E5F" d="M9.8,3.3L9,3.3c-0.3,0-0.6-0.3-0.6-0.6v0c0-0.3,0.3-0.6,0.6-0.6l0.9,0c0.3,0,0.6,0.3,0.6,0.6v0C10.4,3.1,10.2,3.3,9.8,3.3z"/><line fill="none" stroke="#5D5E5F" stroke-width="0.3119" stroke-miterlimit="10" x1="9.4" y1="1.3" x2="9.4" y2="2.4"/><path fill="5D5E5F" d="M12.7,3.3l-0.9,0c-0.3,0-0.6-0.3-0.6-0.6v0c0-0.3,0.3-0.6,0.6-0.6l0.9,0c0.3,0,0.6,0.3,0.6,0.6v0C13.3,3.1,13,3.3,12.7,3.3z"/><line fill="none" stroke="#5D5E5F" stroke-width="0.3119" stroke-miterlimit="10" x1="12.2" y1="1.3" x2="12.2" y2="2.4"/><line fill="none" stroke="#5D5E5F" stroke-width="0.7853" stroke-miterlimit="10" x1="4.2" y1="14.9" x2="11.8" y2="14.9"/></svg>
