<svg xmlns="http://www.w3.org/2000/svg" viewBox="0 0 16 16"><path fill="#5D5E60" d="M10.2,14.9H8.3V14c0-0.2-0.1-0.3-0.3-0.3c-0.2,0-0.3,0.1-0.3,0.3v0.9H5.8c-0.2,0-0.3,0.1-0.3,0.3s0.1,0.3,0.3,0.3h4.4c0.2,0,0.3-0.1,0.3-0.3S10.4,14.9,10.2,14.9z"/><path fill="#5D5E60" d="M8,0.6c-1.7,0-3.5,1.1-3.5,3.3v5.9c0,2.2,1.7,3.3,3.5,3.3c0,0,0,0,0,0c0.9,0,1.7-0.3,2.3-0.8c0.7-0.6,1.1-1.5,1.1-2.5V3.9C11.4,1.6,9.7,0.6,8,0.6z M8,1.2c1.4,0,2.8,0.8,2.8,2.7v5.4H5.2V3.9C5.2,2,6.7,1.2,8,1.2z M10,11.8c-0.5,0.4-1.2,0.7-1.9,0.7c0,0,0,0,0,0c-1.3,0-2.7-0.8-2.8-2.5h5.6C10.8,10.7,10.5,11.3,10,11.8z"/><path fill="#5D5E60" d="M6.1,7.7c0.1,0,0.2,0,0.2-0.1c0.1-0.1,0.1-0.1,0.1-0.2s0-0.2-0.1-0.2C6.2,7.1,6,7.1,5.9,7.2C5.8,7.3,5.8,7.3,5.8,7.4s0,0.2,0.1,0.2C6,7.7,6,7.7,6.1,7.7z"/><path fill="#5D5E60" d="M7.8,7.2C7.7,7.3,7.7,7.3,7.7,7.4s0,0.2,0.1,0.2C7.8,7.7,7.9,7.7,8,7.7c0.1,0,0.2,0,0.2-0.1c0.1-0.1,0.1-0.1,0.1-0.2s0-0.2-0.1-0.2C8.1,7.1,7.9,7.1,7.8,7.2z"/><path fill="#5D5E60" d="M9.7,7.2C9.6,7.3,9.6,7.3,9.6,7.4s0,0.2,0.1,0.2c0.1,0.1,0.1,0.1,0.2,0.1c0.1,0,0.2,0,0.2-0.1c0.1-0.1,0.1-0.1,0.1-0.2s0-0.2-0.1-0.2C10,7.1,9.8,7.1,9.7,7.2z"/><path fill="#5D5E60" d="M7.1,8.7c0.1,0,0.2,0,0.2-0.1c0.1-0.1,0.1-0.1,0.1-0.2s0-0.2-0.1-0.2C7.2,8,7,8,6.8,8.1C6.8,8.2,6.7,8.3,6.7,8.4s0,0.2,0.1,0.2C6.9,8.6,7,8.7,7.1,8.7z"/><path fill="#5D5E60" d="M8.9,8.7c0.1,0,0.2,0,0.2-0.1c0.1-0.1,0.1-0.1,0.1-0.2s0-0.2-0.1-0.2C9,8,8.8,8,8.7,8.1C8.7,8.2,8.6,8.3,8.6,8.4s0,0.2,0.1,0.2C8.8,8.6,8.9,8.7,8.9,8.7z"/><path fill="#5D5E60" d="M7.1,6.8c0.1,0,0.2,0,0.2-0.1c0.1-0.1,0.1-0.1,0.1-0.2c0-0.1,0-0.2-0.1-0.2C7.2,6.2,7,6.2,6.8,6.3C6.8,6.3,6.7,6.4,6.7,6.5c0,0.1,0,0.2,0.1,0.2C6.9,6.8,7,6.8,7.1,6.8z"/><path fill="#5D5E60" d="M8.9,6.8c0.1,0,0.2,0,0.2-0.1c0.1-0.1,0.1-0.1,0.1-0.2c0-0.1,0-0.2-0.1-0.2C9,6.2,8.8,6.2,8.7,6.3C8.7,6.3,8.6,6.4,8.6,6.5c0,0.1,0,0.2,0.1,0.2C8.8,6.8,8.9,6.8,8.9,6.8z"/><path fill="#5D5E60" d="M6.1,5.9c0.1,0,0.2,0,0.2-0.1c0.1-0.1,0.1-0.1,0.1-0.2c0-0.1,0-0.2-0.1-0.2C6.2,5.2,6,5.2,5.9,5.4C5.8,5.4,5.8,5.5,5.8,5.6c0,0.1,0,0.2,0.1,0.2C6,5.9,6,5.9,6.1,5.9z"/><path fill="#5D5E60" d="M8,5.9c0.1,0,0.2,0,0.2-0.1c0.1-0.1,0.1-0.1,0.1-0.2c0-0.1,0-0.2-0.1-0.2c-0.1-0.1-0.3-0.1-0.4,0C7.7,5.4,7.7,5.5,7.7,5.6c0,0.1,0,0.2,0.1,0.2C7.8,5.8,7.9,5.9,8,5.9z"/><path fill="#5D5E60" d="M9.9,5.9c0.1,0,0.2,0,0.2-0.1c0.1-0.1,0.1-0.1,0.1-0.2c0-0.1,0-0.2-0.1-0.2c-0.1-0.1-0.3-0.1-0.4,0C9.6,5.4,9.6,5.5,9.6,5.6c0,0.1,0,0.2,0.1,0.2C9.7,5.8,9.8,5.9,9.9,5.9z"/><path fill="#5D5E60" d="M6.1,4c0.1,0,0.2,0,0.2-0.1c0.1-0.1,0.1-0.1,0.1-0.2s0-0.2-0.1-0.2C6.2,3.4,6,3.4,5.9,3.5C5.8,3.5,5.8,3.6,5.8,3.7c0,0.1,0,0.2,0.1,0.2C6,4,6,4,6.1,4z"/><path fill="#5D5E60" d="M8,4c0.1,0,0.2,0,0.2-0.1c0.1-0.1,0.1-0.1,0.1-0.2s0-0.2-0.1-0.2c-0.1-0.1-0.3-0.1-0.4,0C7.7,3.6,7.7,3.6,7.7,3.7s0,0.2,0.1,0.2C7.8,4,7.9,4,8,4z"/><path fill="#5D5E60" d="M9.9,4C10,4,10,4,10.1,3.9c0.1-0.1,0.1-0.1,0.1-0.2s0-0.2-0.1-0.2c-0.1-0.1-0.3-0.1-0.4,0C9.6,3.5,9.6,3.6,9.6,3.7s0,0.2,0.1,0.2C9.7,4,9.8,4,9.9,4z"/><path fill="#5D5E60" d="M7.1,3.1c0.1,0,0.2,0,0.2-0.1c0.1-0.1,0.1-0.1,0.1-0.2s0-0.2-0.1-0.2C7.2,2.4,7,2.4,6.8,2.6C6.8,2.6,6.7,2.7,6.7,2.8s0,0.2,0.1,0.2C6.9,3.1,7,3.1,7.1,3.1z"/><path fill="#5D5E60" d="M8.9,3.1c0.1,0,0.2,0,0.2-0.1c0.1-0.1,0.1-0.1,0.1-0.2s0-0.2-0.1-0.2C9,2.4,8.8,2.4,8.7,2.6C8.7,2.6,8.6,2.7,8.6,2.8s0,0.2,0.1,0.2C8.8,3.1,8.9,3.1,8.9,3.1z"/><path fill="#5D5E60" d="M7.1,5c0.1,0,0.2,0,0.2-0.1c0.1-0.1,0.1-0.1,0.1-0.2c0-0.1,0-0.2-0.1-0.2C7.2,4.3,7,4.3,6.8,4.4C6.8,4.5,6.7,4.6,6.7,4.6c0,0.1,0,0.2,0.1,0.2C6.9,4.9,7,5,7.1,5z"/><path fill="#5D5E60" d="M8.9,5c0.1,0,0.2,0,0.2-0.1c0.1-0.1,0.1-0.1,0.1-0.2c0-0.1,0-0.2-0.1-0.2C9,4.3,8.8,4.3,8.7,4.4C8.7,4.5,8.6,4.6,8.6,4.6c0,0.1,0,0.2,0.1,0.2C8.8,4.9,8.9,5,8.9,5z"/></svg>
