<svg xmlns="http://www.w3.org/2000/svg" viewBox="0 0 16 16"><path class="st1" d="M10.9,8.6h1.9c0.3,0,0.5-0.2,0.5-0.5V5.5c0-0.3-0.2-0.5-0.5-0.5h-1.9c-0.3,0-0.5,0.2-0.5,0.5v2.6C10.4,8.4,10.6,8.6,10.9,8.6z M11,5.6h1.7V8H11V5.6z"/><path class="st1" d="M3,11h4c0.2,0,0.3-0.1,0.3-0.3c0-0.2-0.1-0.3-0.3-0.3H3c-0.2,0-0.3,0.1-0.3,0.3C2.7,10.9,2.9,11,3,11z"/><path class="st1" d="M3,9.2h4c0.2,0,0.3-0.1,0.3-0.3c0-0.2-0.1-0.3-0.3-0.3H3c-0.2,0-0.3,0.1-0.3,0.3C2.7,9.1,2.9,9.2,3,9.2z"/><path class="st1" d="M3,7.4h1.7C4.9,7.4,5,7.3,5,7.1S4.9,6.8,4.7,6.8H3c-0.2,0-0.3,0.1-0.3,0.3C2.7,7.2,2.9,7.4,3,7.4z"/><path class="st1" d="M14.8,3.3H1.2C1,3.3,0.9,3.4,0.9,3.6v8.9c0,0.2,0.1,0.3,0.3,0.3h13.6c0.2,0,0.3-0.1,0.3-0.3V3.6C15.1,3.4,14.9,3.3,14.8,3.3z M14.6,12.1H1.5V3.9h13L14.6,12.1L14.6,12.1z"/></svg>



