<svg xmlns="http://www.w3.org/2000/svg" viewBox="0 0 16 16"><path class="st1" d="M6.4,2.9H6.1C6,2.9,5.8,3,5.8,3.2c0,0.2,0.1,0.3,0.3,0.3h0.3c0.2,0,0.3-0.1,0.3-0.3C6.7,3,6.6,2.9,6.4,2.9z"/><path class="st1" d="M4.6,2.9H4.4C4.2,2.9,4.1,3,4.1,3.2c0,0.2,0.1,0.3,0.3,0.3h0.3c0.2,0,0.3-0.1,0.3-0.3C4.9,3,4.8,2.9,4.6,2.9z"/><path class="st1" d="M8.2,2.9H7.9C7.7,2.9,7.6,3,7.6,3.2c0,0.2,0.1,0.3,0.3,0.3h0.3c0.2,0,0.3-0.1,0.3-0.3C8.5,3,8.4,2.9,8.2,2.9z"/><path class="st1" d="M11.7,2.9h-0.3c-0.2,0-0.3,0.1-0.3,0.3c0,0.2,0.1,0.3,0.3,0.3h0.3c0.2,0,0.3-0.1,0.3-0.3C12,3,11.9,2.9,11.7,2.9z"/><path class="st1" d="M10,2.9H9.7C9.5,2.9,9.4,3,9.4,3.2c0,0.2,0.1,0.3,0.3,0.3H10c0.2,0,0.3-0.1,0.3-0.3C10.3,3,10.1,2.9,10,2.9z"/><path class="st1" d="M13.8,1.1H2.6C2.1,1.1,1.7,1.5,1.7,2v2.4c0,0.5,0.4,0.9,0.9,0.9h6.2v1.4c0,0.1,0.1,0.2,0.2,0.3C9,7,9,7,9.1,7c0.1,0,0.1,0,0.2-0.1l2.1-1.7h2.4c0.5,0,0.9-0.4,0.9-0.9V2C14.7,1.5,14.3,1.1,13.8,1.1z M14.1,4.4c0,0.2-0.1,0.3-0.3,0.3h-2.5c-0.1,0-0.1,0-0.2,0.1L9.4,6.1V5c0-0.2-0.1-0.3-0.3-0.3H2.6c-0.2,0-0.3-0.1-0.3-0.3V2c0-0.2,0.1-0.3,0.3-0.3h11.2c0.2,0,0.3,0.1,0.3,0.3V4.4z"/><path class="st1" d="M13.7,13.5c-1.7-0.6-2-0.9-2.1-1v-0.1c0.2-0.2,0.3-0.5,0.4-0.8c0.1-0.1,0.2-0.3,0.3-0.5c0-0.2,0-0.4-0.1-0.5V9.8c0-1-0.6-1.6-1.7-1.6c-1,0-1.7,0.6-1.7,1.6c0,0.2,0.1,0.3,0.3,0.3c0.2,0,0.3-0.1,0.3-0.3c0-0.6,0.4-1,1.1-1c0.7,0,1.1,0.3,1.1,1v0.7c0,0.1,0,0.1,0.1,0.2c0.1,0.1,0.1,0.1,0.1,0.2c0,0.1,0,0.1-0.1,0.2c-0.1,0-0.1,0.1-0.1,0.2c-0.1,0.3-0.2,0.6-0.4,0.8c-0.1,0.1-0.1,0.1-0.1,0.2v0.3c0,0,0,0.1,0,0.1c0.1,0.2,0.3,0.6,2.4,1.4v0.7h-2.3c-0.2,0-0.3,0.1-0.3,0.3c0,0.2,0.1,0.3,0.3,0.3h2.3c0.3,0,0.5-0.2,0.5-0.5V14C14.1,13.7,13.9,13.5,13.7,13.5z"/><path class="st1" d="M10.1,13.1c-0.6-0.2-1.3-0.4-1.8-0.5c-0.3-0.1-0.8-0.2-0.9-0.2v-0.2c1.2-0.1,1.7-0.4,1.7-0.5c0.1-0.1,0.1-0.2,0.1-0.3c0-0.1-0.1-0.2-0.1-0.2c-0.2-0.1-0.5-1.2-0.6-2.2c0-1.2-0.9-2.5-2.4-2.5C4.8,6.6,3.7,7.7,3.7,9c-0.1,1.1-0.4,2.1-0.6,2.2C3,11.3,3,11.4,3,11.5c0,0.1,0,0.2,0.1,0.3c0.1,0,0.6,0.4,1.7,0.5v0.2c-0.1,0.1-0.6,0.2-0.9,0.2c-0.5,0.1-1.2,0.2-1.8,0.5c-0.2,0.1-0.4,0.3-0.4,0.5v1c0,0.3,0.3,0.6,0.6,0.6h7.6c0.3,0,0.6-0.3,0.6-0.6v-1C10.5,13.4,10.3,13.2,10.1,13.1z M2.3,14.7l0-1c0.6-0.2,1.2-0.3,1.7-0.4c0.8-0.1,1.3-0.2,1.4-0.6c0,0,0-0.1,0-0.1V12c0-0.2-0.1-0.3-0.3-0.3c-0.7,0-1.1-0.1-1.4-0.2c0.4-0.7,0.5-1.9,0.6-2.4c0-1.1,0.8-1.9,1.8-1.9c1.1,0,1.8,1,1.8,1.9c0,0.4,0.2,1.7,0.6,2.3c-0.3,0.1-0.7,0.2-1.4,0.2c-0.2,0-0.3,0.1-0.3,0.3v0.6c0,0,0,0.1,0,0.1c0.1,0.4,0.6,0.5,1.4,0.6c0.5,0.1,1.1,0.2,1.7,0.4l0,1L2.3,14.7z"/></svg>
