<svg xmlns="http://www.w3.org/2000/svg" width="37.075" height="30"><g data-name="Group 20447"><path data-name="Path 12097" d="M37.075 15.052a14.478 14.478 0 10-28.936-.111 14.745 14.745 0 0014.416 15.055 14.175 14.175 0 009.606-3.735.713.713 0 00.056-.052 15.142 15.142 0 004.858-11.157m-27.616 0a13.207 13.207 0 1126.4-.048 13.938 13.938 0 01-4.145 9.98c-4.471-1.964-5.3-2.886-5.441-3.106v-.868a8.689 8.689 0 001.73-3.3 2.732 2.732 0 00.46-3.53v-2.6c0-3.5-2.089-5.515-5.728-5.515-3.587 0-5.729 2.061-5.729 5.515v2.6a2.733 2.733 0 00.457 3.527 8.67 8.67 0 001.73 3.3v.877c-.146.263-.978 1.155-5.542 3.13a13.874 13.874 0 01-4.187-9.962zm5.225 10.879c4.614-2.043 5.48-3.034 5.688-3.737a.647.647 0 00.029-.188v-1.254a.644.644 0 00-.173-.441 7.348 7.348 0 01-1.657-3.148.637.637 0 00-.236-.347 1.435 1.435 0 01-.313-1.953l.057-.078a.64.64 0 00.137-.4v-2.81c0-2.741 1.6-4.252 4.509-4.252 2.95 0 4.51 1.471 4.51 4.252v2.808a.646.646 0 00.136.4 1.439 1.439 0 01-.18 1.973c-.024.019-.049.04-.075.058a.637.637 0 00-.237.347 7.377 7.377 0 01-1.649 3.152.639.639 0 00-.174.441v1.255a.638.638 0 00.027.188c.125.418.418 1.371 5.594 3.7a12.74 12.74 0 01-15.989.033z" fill="#5a5a5a"/><g data-name="Group 20445"><path data-name="Path 12098" d="M7.888 22.242a7.473 7.473 0 117.473-7.473 7.481 7.481 0 01-7.473 7.473z" fill="#f9f9f9" stroke="#f9f9f9" stroke-miterlimit="10" stroke-width=".83"/><path data-name="Path 12099" d="M7.888 7.855a6.914 6.914 0 106.914 6.914 6.923 6.923 0 00-6.914-6.914z" fill="#006dcc"/><path data-name="Path 12100" d="M11.34 13.963H8.784v-2.675a.424.424 0 00-.423-.423h-.843a.424.424 0 00-.423.423v2.675H4.538a.422.422 0 00-.421.423v.791a.422.422 0 00.421.423h2.557v2.7a.424.424 0 00.423.423h.843a.424.424 0 00.423-.423v-2.7h2.556a.423.423 0 00.423-.423v-.791a.422.422 0 00-.423-.423z" fill="#f9f9f9"/></g></g></svg>