<svg xmlns="http://www.w3.org/2000/svg" viewBox="0 0 40.2 40.2"><path d="M29.8,19.2H16.4c-0.2-0.6-0.9-1.1-1.6-1.1c-0.9,0-1.7,0.8-1.7,1.7c0,0.9,0.8,1.7,1.7,1.7c0.7,0,1.3-0.5,1.6-1.1h13.4c0.3,0,0.6-0.3,0.6-0.6C30.4,19.4,30.1,19.2,29.8,19.2z M14.8,20.3c-0.3,0-0.5-0.2-0.5-0.5s0.2-0.5,0.5-0.5s0.5,0.2,0.5,0.5C15.3,20,15.1,20.3,14.8,20.3z"></path><path d="M19.6,21.7c-0.7,0-1.3,0.5-1.6,1.1H9.5c-0.3,0-0.6,0.3-0.6,0.6c0,0.3,0.3,0.6,0.6,0.6H18c0.2,0.6,0.9,1.1,1.6,1.1c0.9,0,1.7-0.8,1.7-1.7C21.3,22.4,20.6,21.7,19.6,21.7z M19.6,23.9c-0.3,0-0.5-0.2-0.5-0.5s0.2-0.5,0.5-0.5s0.5,0.2,0.5,0.5C20.1,23.6,19.9,23.9,19.6,23.9z"></path><path d="M30.6,6H8.7C6.8,6,5.2,7.6,5.2,9.5v21.9c0,1.9,1.6,3.5,3.5,3.5h21.9c1.9,0,3.5-1.6,3.5-3.5V9.5C34.1,7.6,32.5,6,30.6,6z M8.7,7.2h21.9c1.2,0,2.3,1,2.3,2.3v1.3H6.4V9.5C6.4,8.2,7.4,7.2,8.7,7.2z M30.6,33.6H8.7c-1.2,0-2.3-1-2.3-2.3V12h26.4v19.4C32.9,32.6,31.8,33.6,30.6,33.6z"></path><path d="M14.2,9.6c0.3,0,0.6-0.3,0.6-0.6s-0.3-0.6-0.6-0.6l0,0c-0.3,0-0.6,0.3-0.6,0.6S13.9,9.6,14.2,9.6z"></path><path d="M25.1,9.6c0.3,0,0.6-0.3,0.6-0.6s-0.3-0.6-0.6-0.6l0,0c-0.3,0-0.6,0.3-0.6,0.6S24.7,9.6,25.1,9.6z"></path><path d="M10.7,26.4H9.5c-0.3,0-0.6,0.3-0.6,0.6c0,0.3,0.3,0.6,0.6,0.6h1.1c0.3,0,0.6-0.3,0.6-0.6C11.3,26.6,11,26.4,10.7,26.4z"></path><path d="M15.4,26.4h-1.1c-0.3,0-0.6,0.3-0.6,0.6c0,0.3,0.3,0.6,0.6,0.6h1.1c0.3,0,0.6-0.3,0.6-0.6C16,26.6,15.7,26.4,15.4,26.4z"></path><path d="M10.7,30H9.5c-0.3,0-0.6,0.3-0.6,0.6c0,0.3,0.3,0.6,0.6,0.6h1.1c0.3,0,0.6-0.3,0.6-0.6C11.3,30.2,11,30,10.7,30z"></path><path d="M15.4,30h-1.1c-0.3,0-0.6,0.3-0.6,0.6c0,0.3,0.3,0.6,0.6,0.6h1.1c0.3,0,0.6-0.3,0.6-0.6C16,30.2,15.7,30,15.4,30z"></path><path d="M20.2,30h-1.1c-0.3,0-0.6,0.3-0.6,0.6c0,0.3,0.3,0.6,0.6,0.6h1.1c0.3,0,0.6-0.3,0.6-0.6C20.8,30.2,20.5,30,20.2,30z"></path><path d="M20.2,26.4h-1.1c-0.3,0-0.6,0.3-0.6,0.6c0,0.3,0.3,0.6,0.6,0.6h1.1c0.3,0,0.6-0.3,0.6-0.6C20.8,26.6,20.5,26.4,20.2,26.4z"></path><path d="M25,26.4h-1.1c-0.3,0-0.6,0.3-0.6,0.6c0,0.3,0.3,0.6,0.6,0.6H25c0.3,0,0.6-0.3,0.6-0.6C25.6,26.6,25.3,26.4,25,26.4z"></path><path d="M29.8,26.4h-1.1c-0.3,0-0.6,0.3-0.6,0.6c0,0.3,0.3,0.6,0.6,0.6h1.1c0.3,0,0.6-0.3,0.6-0.6C30.4,26.6,30.1,26.4,29.8,26.4z"></path><path d="M25,22.8h-1.1c-0.3,0-0.6,0.3-0.6,0.6c0,0.3,0.3,0.6,0.6,0.6H25c0.3,0,0.6-0.3,0.6-0.6C25.6,23,25.3,22.8,25,22.8z"></path><path d="M29.8,22.8h-1.1c-0.3,0-0.6,0.3-0.6,0.6c0,0.3,0.3,0.6,0.6,0.6h1.1c0.3,0,0.6-0.3,0.6-0.6C30.4,23,30.1,22.8,29.8,22.8z"></path><path d="M9.5,20.4h1.1c0.3,0,0.6-0.3,0.6-0.6c0-0.3-0.3-0.6-0.6-0.6H9.5c-0.3,0-0.6,0.3-0.6,0.6S9.2,20.4,9.5,20.4z"></path><path d="M9.5,16.8h1.1c0.3,0,0.6-0.3,0.6-0.6c0-0.3-0.3-0.6-0.6-0.6H9.5c-0.3,0-0.6,0.3-0.6,0.6C8.9,16.5,9.2,16.8,9.5,16.8z"></path><path d="M14.3,16.8h1.1c0.3,0,0.6-0.3,0.6-0.6c0-0.3-0.3-0.6-0.6-0.6h-1.1c-0.3,0-0.6,0.3-0.6,0.6C13.7,16.5,13.9,16.8,14.3,16.8z"></path><path d="M19.1,16.8h1.1c0.3,0,0.6-0.3,0.6-0.6c0-0.3-0.3-0.6-0.6-0.6h-1.1c-0.3,0-0.6,0.3-0.6,0.6C18.5,16.5,18.7,16.8,19.1,16.8z"></path><path d="M23.9,16.8H25c0.3,0,0.6-0.3,0.6-0.6c0-0.3-0.3-0.6-0.6-0.6h-1.1c-0.3,0-0.6,0.3-0.6,0.6C23.3,16.5,23.6,16.8,23.9,16.8z"></path><path d="M29.8,15.6h-1.1c-0.3,0-0.6,0.3-0.6,0.6c0,0.3,0.3,0.6,0.6,0.6h1.1c0.3,0,0.6-0.3,0.6-0.6C30.4,15.8,30.1,15.6,29.8,15.6z"></path></svg>
