<svg xmlns="http://www.w3.org/2000/svg" viewBox="0 0 16 16"><path class="st4" d="M14.7,1.6H1.3C1.1,1.6,1,1.7,1,1.9v12.2c0,0.2,0.1,0.3,0.3,0.3h13.4c0.2,0,0.3-0.1,0.3-0.3V1.9C15,1.7,14.9,1.6,14.7,1.6z M14.4,2.2v1.2H1.6V2.2H14.4z M1.6,13.8V3.9h12.8v9.9H1.6z"/><path class="st4" d="M12.7,9.9H3c-0.2,0-0.3,0.1-0.3,0.3V12c0,0.2,0.1,0.3,0.3,0.3h9.6c0.2,0,0.3-0.1,0.3-0.3v-1.8C13,10,12.8,9.9,12.7,9.9z M12.4,11.7H3.3v-1.3h9.1V11.7z"/><path class="st4" d="M7.2,8.8H2.9c-0.1,0-0.2-0.1-0.2-0.2V8.3c0-0.1,0.1-0.2,0.2-0.2h4.3c0.1,0,0.2,0.1,0.2,0.2v0.3C7.4,8.7,7.3,8.8,7.2,8.8z"/><path class="st4" d="M7.2,7.3H2.9c-0.1,0-0.2-0.1-0.2-0.2V6.8c0-0.1,0.1-0.2,0.2-0.2h4.3c0.1,0,0.2,0.1,0.2,0.2v0.3C7.4,7.3,7.3,7.3,7.2,7.3z"/><path class="st4" d="M7.2,5.9H2.9c-0.1,0-0.2-0.1-0.2-0.2V5.4c0-0.1,0.1-0.2,0.2-0.2h4.3c0.1,0,0.2,0.1,0.2,0.2v0.3C7.4,5.8,7.3,5.9,7.2,5.9z"/><path class="st4" d="M12.8,8.8H8.5c-0.1,0-0.2-0.1-0.2-0.2V8.3c0-0.1,0.1-0.2,0.2-0.2h4.3c0.1,0,0.2,0.1,0.2,0.2v0.3C13,8.7,12.9,8.8,12.8,8.8z"/><path class="st4" d="M12.8,7.3H8.5c-0.1,0-0.2-0.1-0.2-0.2V6.8c0-0.1,0.1-0.2,0.2-0.2h4.3c0.1,0,0.2,0.1,0.2,0.2v0.3C13,7.3,12.9,7.3,12.8,7.3z"/><path class="st4" d="M12.8,5.9H8.5c-0.1,0-0.2-0.1-0.2-0.2V5.4c0-0.1,0.1-0.2,0.2-0.2h4.3c0.1,0,0.2,0.1,0.2,0.2v0.3C13,5.8,12.9,5.9,12.8,5.9z"/></svg>
