<svg xmlns="http://www.w3.org/2000/svg" viewBox="0 0 16 16"><path fill="#5d5e5f" d="M15 5.5V3.8c0-1.3-3.2-2-6.4-2s-6.4.7-6.4 2v1.8c0 .2.1.3.1.5-.9.2-1.3.7-1.3 1.2V9c0 .5.5 1 1.3 1.3-.1.1-.1.3-.1.5v1.8c0 1.2 2.7 1.9 5.6 2H9.5c2.9-.1 5.5-.8 5.5-2v-1.8c0-.5-.4-.9-1.3-1.3.1-.1.1-.3.1-.5V7.3c0-.2-.1-.3-.1-.5.8-.3 1.3-.8 1.3-1.3zM8.6 2.3c3.6 0 5.8.9 5.8 1.5s-2.3 1.5-5.8 1.5C5 5.2 2.7 4.4 2.7 3.8S5 2.3 8.6 2.3zm2.9 4.5V5.6c.4-.1.8-.1 1.2-.2v1.1c-.3.1-.7.2-1.2.3zM8.6 7H8V5.8h1.2V7h-.6zm-2.3-.2V5.7c.4 0 .8.1 1.2.1V7c-.5-.1-.9-.1-1.2-.2zM2.7 5.5v-.8c.3.2.7.4 1.2.5v1.1c-.7-.2-1.2-.5-1.2-.8zm1.8-.1c.4.1.8.2 1.2.2v1.2c-.5-.1-.8-.2-1.2-.3V5.4zm5.3.4c.4 0 .8-.1 1.2-.1v1.2c-.4 0-.8.1-1.2.1V5.8zM1.6 9v-.8c.3.2.7.4 1.2.5v1.1C2 9.6 1.6 9.3 1.6 9zm10.5.8V8.7c.5-.2.9-.3 1.1-.5V9c.1.3-.3.6-1.1.8zm-.6.2c-.3.1-.7.2-1.2.2V9.1c.5-.1.9-.1 1.2-.2V10zm-1.7.3c-.4 0-.8.1-1.2.1V9.3c.4 0 .8-.1 1.2-.1v1.1zm-1.8.2H6.8V9.3H8v1.2zm-1.7 0c-.4 0-.8-.1-1.2-.1V9.2c.4 0 .8.1 1.2.1v1.2zm-1.8-.2c-.4-.1-.8-.2-1.2-.2V8.9c.4.1.8.1 1.2.2v1.2zm-1.8 2.2v-.8c.3.2.7.4 1.2.5v1.1c-.7-.2-1.2-.5-1.2-.8zm4.7.3V14c-.4 0-.8-.1-1.2-.1v-1.2c.4 0 .8.1 1.2.1zm-1.7 1c-.4-.1-.8-.2-1.2-.2v-1.1c.4.1.8.2 1.2.2v1.1zM8 14v-1.2h1.2V14H8zm4.7-1.6v1.1c-.3.1-.7.2-1.2.2v-1.2c.4 0 .8 0 1.2-.1zm-1.8 1.5c-.4 0-.8.1-1.2.1v-1.2c.4 0 .8-.1 1.2-.1v1.2zm2.4-.6v-1.1c.5-.2.9-.3 1.1-.5v.8c0 .3-.4.6-1.1.8zm1.1-2.5c0 .6-2.3 1.5-5.8 1.5-3.6 0-5.8-.9-5.8-1.5 0-.1.1-.2.1-.3 1 .3 2.3.5 3.7.5H8.3c2-.1 4-.5 4.9-1.1.9.3 1.2.7 1.2.9zm-1.1-3.5c0 .6-2.3 1.5-5.8 1.5-3.6 0-5.8-.9-5.8-1.5 0-.2.3-.5 1.2-.8 1 .6 2.9 1 5 1.1H9.6c1.3-.1 2.6-.2 3.6-.5 0 0 .1.1.1.2zm0-1V5.2c.5-.2.9-.3 1.1-.5v.8c0 .3-.4.6-1.1.8z"></path></svg>
