<svg xmlns="http://www.w3.org/2000/svg" viewBox="0 0 16 16" fill="#5a5a5a"><path d="M12.5,10.6H3.4V7.3c-0.3,0.2-0.6,0.4-1,0.5V14c0,0.3,0.2,0.5,0.5,0.5H13c0.3,0,0.5-0.2,0.5-0.5V7.8 c-0.4-0.1-0.7-0.2-1-0.5V10.6z"></path><path d="M13.5,2.5V2c0-0.3-0.2-0.5-0.5-0.5H2.9C2.7,1.5,2.4,1.7,2.4,2v0.6h10.9L13.5,2.5z"></path><path d="M13.3,3.1h-0.8H3.4H2.7l-2,2.2c0,0.8,0.7,1.5,1.5,1.5c0.2,0,0.3,0,0.5-0.1c0,0,0,0,0,0c0,0,0.1,0,0.1-0.1 c0,0,0,0,0,0c0,0,0.1,0,0.1-0.1c0,0,0,0,0,0C3.1,6.4,3.2,6.2,3.4,6c0,0,0,0,0,0c0,0,0.1-0.1,0.1-0.1l0,0c0.1-0.2,0.1-0.4,0.1-0.6 c0,0.8,0.7,1.5,1.5,1.5c0.8,0,1.5-0.7,1.5-1.5c0,0.8,0.7,1.5,1.5,1.5c0.8,0,1.5-0.7,1.5-1.5c0,0.8,0.7,1.5,1.5,1.5 c0.8,0,1.5-0.7,1.5-1.5c0,0.3,0.1,0.5,0.2,0.7c0,0,0,0,0,0c0,0,0,0.1,0.1,0.1c0,0,0,0,0,0c0,0,0.1,0.1,0.1,0.1c0,0,0,0,0,0 c0,0,0.1,0.1,0.1,0.1c0,0,0,0,0,0c0.1,0.1,0.3,0.2,0.4,0.3c0,0,0,0,0,0c0.1,0,0.1,0,0.2,0.1h0c0.1,0,0.2,0,0.3,0 c0.8,0,1.5-0.7,1.5-1.5L13.3,3.1z"></path><rect x="13.2" y="2.4" width="0.3" height="0.2"></rect></svg>
