<svg xmlns="http://www.w3.org/2000/svg" viewBox="0 0 12 12"><g stroke-width=".35" stroke="#707070" fill="#5a5a5a"><path d="M10.75901 8.16761a.21.21 0 00.01-.041.225.225 0 000-.043.232.232 0 00-.007-.043.227.227 0 00-.021-.04.206.206 0 00-.017-.032h-.006v-.007a5.8 5.8 0 01-1.5-4.213 2.743 2.743 0 00-1.578-2.711 3.633 3.633 0 00-3.279 0 2.744 2.744 0 00-1.579 2.711 5.8 5.8 0 01-1.5 4.213v.007h-.006a.174.174 0 00-.017.032.2.2 0 00-.021.04.191.191 0 00-.007.043.22.22 0 000 .043.209.209 0 00.009.041.2.2 0 00.013.042.23.23 0 00.024.035.237.237 0 00.023.032h.007v.006a7.87 7.87 0 009.4 0v-.006h.007a.2.2 0 00.023-.032.228.228 0 00.025-.035.225.225 0 00-.003-.042zm-8.991-.092a6.286 6.286 0 001.455-4.35 2.285 2.285 0 011.331-2.29 3.176 3.176 0 012.868 0 2.285 2.285 0 011.33 2.29 6.29 6.29 0 001.456 4.35 7.429 7.429 0 01-8.44.002v-.002z"/><path d="M7.01401 10.10261a.227.227 0 00-.227.227c0 .316-.366.583-.8.583s-.8-.267-.8-.583a.227.227 0 10-.453 0 1.275 1.275 0 002.5 0 .227.227 0 00-.22-.227z"/></g></svg>
