<svg xmlns="http://www.w3.org/2000/svg" viewBox="0 0 16 16"><path fill="none" d="M0 0h16v16H0z"></path><path fill="none" d="M1.2 1.2h13.6v13.6H1.2z"></path><path fill="#5a5a5a" d="M10 10.9H6c-.5 0-.9.4-.9.9v1.1c0 .5.4.9.9.9h4c.5 0 .9-.4.9-.9v-1.1c0-.5-.4-.9-.9-.9zm.3 2c0 .2-.1.3-.3.3H6c-.2 0-.3-.1-.3-.3v-1.1c0-.2.1-.3.3-.3h4c.2 0 .3.1.3.3v1.1z"></path><path fill="#5a5a5a" d="M14.8 8c0-.8-.1-1.5-.4-2.2-.5-1.6-1.6-2.8-3-3.6-1-.6-2.1-.9-3.4-.9-1.2 0-2.4.3-3.4.9-1 .6-1.9 1.4-2.5 2.4-.2.4-.4.8-.5 1.2-.3.7-.4 1.4-.4 2.2 0 1 .2 2 .7 2.9.2.5.6 1 .9 1.4.1.1.3.1.4 0 .1-.1.1-.3 0-.4-.2-.2-.3-.4-.5-.7l1.3-.6c.1-.1.2-.3.1-.4-.1-.1-.3-.2-.4-.1l-1.3.7-.1-.1c-.3-.8-.5-1.6-.5-2.4h1.5c.2 0 .3-.1.3-.3 0-.2-.1-.3-.3-.3H1.8c0-.6.1-1.2.3-1.7.1-.3.2-.6.4-.8l1.2.7h.1c.1 0 .2-.1.3-.1.1-.1 0-.3-.1-.4l-1.2-.8c.5-.8 1.1-1.4 1.9-1.9L5.4 4c.1.1.2.1.3.1h.1c.1-.1.1-.3.1-.4l-.7-1.2c.8-.4 1.6-.6 2.6-.7v1.4c0 .2.1.3.3.3.2 0 .3-.1.3-.3V1.8c.9 0 1.8.3 2.6.7l-.7 1.2c-.1.1 0 .3.1.4h.1c.1 0 .2-.1.3-.1l.7-1.2c1.2.7 2.1 1.8 2.5 3.2.2.6.3 1.1.3 1.7h-1.4c-.2 0-.3.1-.3.3 0 .2.1.3.3.3h1.4c0 .9-.2 1.7-.6 2.4 0 0 0 .1-.1.1l-1.2-.7c-.1-.1-.3 0-.4.1-.1.1 0 .3.1.4l1.2.7c-.1.2-.3.5-.5.7-.1.1-.1.3 0 .4.1 0 .1.1.2.1s.2 0 .2-.1c.2-.3.5-.6.7-1v-.1c.1-.1.1-.2.2-.4.5-.9.7-1.9.7-2.9z"></path><path fill="#5a5a5a" d="M7.8 8c-.1.1-.1.2-.1.3 0 .1 0 .2.1.2H8c.1 0 .2 0 .2-.1.1-.1.1-.1.1-.2s0-.2-.1-.2c-.1-.1-.3-.1-.4 0z"></path><path fill="#5a5a5a" d="M12.9 5.1c-.1-.1-.3-.2-.4-.1L9 7.3c-.2-.1-.3-.2-.5-.3-.6-.3-1.5.1-1.7.7-.1.3-.1.7 0 1 .1.3.4.6.7.7.1.2.3.2.5.2.5 0 1-.3 1.2-.8.1-.3.1-.7 0-1l3.6-2.3c.1-.1.2-.3.1-.4zM8.7 8.6c-.2.3-.6.5-1 .4-.2-.1-.3-.3-.4-.5-.1-.2-.1-.4 0-.6.1-.2.4-.4.7-.4.1 0 .2 0 .3.1.2 0 .3.2.4.4.1.2.1.4 0 .6z"></path></svg>
