<svg xmlns="http://www.w3.org/2000/svg" viewBox="0 0 40.2 40.2"><path d="M35.6,5.6c-1.1-1.1-2.6-1.8-4.2-1.8c-1.6,0-3,0.6-4.2,1.8l-15.7,16c-1.6,1.6-1.6,4.3,0,6c1.6,1.6,4.3,1.6,5.9,0L29,15.9c0.3-0.3,0.3-0.8,0-1c-0.3-0.3-0.8-0.3-1,0L16.4,26.6c-1,1-2.8,1-3.8,0c-1.1-1.1-1.1-2.8,0-3.9l15.7-16C30,5,32.9,5,34.6,6.7c1.7,1.8,1.7,4.6,0,6.4L14.9,33c-1.2,1.2-2.7,1.8-4.3,1.8S7.4,34.2,6.3,33c-2.4-2.4-2.4-6.4,0-8.8L21.7,8.5c0.3-0.3,0.3-0.8,0-1c-0.3-0.3-0.8-0.3-1,0L5.3,23.2c-2.9,3-2.9,7.9,0,10.9c1.4,1.5,3.3,2.3,5.4,2.3c2,0,3.9-0.8,5.4-2.3l19.6-20C37.9,11.7,37.9,7.9,35.6,5.6z"></path></svg>
