<svg xmlns="http://www.w3.org/2000/svg" viewBox="0 0 11 11"><path d="M697.148,221.417a.366.366,0,0,0-.132-.046.972.972,0,0,0-.157-.012h-.367V222h.367a.972.972,0,0,0,.157-.012.366.366,0,0,0,.132-.047.253.253,0,0,0,.092-.1.413.413,0,0,0,0-.331A.256.256,0,0,0,697.148,221.417Z" transform="translate(-691.944 -215.083)"/><path d="M706.119,221.683a.459.459,0,0,0-.191-.143.758.758,0,0,0-.293-.05H705.3v1.354h.421a.607.607,0,0,0,.2-.033.435.435,0,0,0,.171-.11.552.552,0,0,0,.121-.2.88.88,0,0,0,.045-.3,1.257,1.257,0,0,0-.032-.294A.586.586,0,0,0,706.119,221.683Z" transform="translate(-698.743 -215.185)"/><path d="M697.066,215.312h-7.019a.479.479,0,0,0-.479.479v3.163a.479.479,0,0,0,.479.479h7.019a.479.479,0,0,0,.478-.479v-3.163A.479.479,0,0,0,697.066,215.312Zm-4.72,1.956a.6.6,0,0,1-.13.219.639.639,0,0,1-.23.155.9.9,0,0,1-.343.059h-.5v.77h-.472v-2.149h.969a.892.892,0,0,1,.343.059.636.636,0,0,1,.23.155.6.6,0,0,1,.13.221.821.821,0,0,1,0,.51Zm2.177.551a.956.956,0,0,1-.182.343.854.854,0,0,1-.3.227,1.027,1.027,0,0,1-.429.083h-.927v-2.149h.927a1.1,1.1,0,0,1,.387.066.841.841,0,0,1,.31.2.92.92,0,0,1,.2.331,1.338,1.338,0,0,1,.074.467A1.5,1.5,0,0,1,694.522,217.818Zm1.9-1.1h-1.038v.5h.9v.367h-.9v.888h-.472v-2.149h1.511Z" transform="translate(-686.5986, -210.415)"/><path d="M684.213,204.282a.367.367,0,0,1-.367.367H677.83a.367.367,0,0,1-.367-.367v-8.475a.367.367,0,0,1,.367-.367h4.024l.041.044v2.331a.161.161,0,0,0,.162.161H684.2l.017.019v1.218h.684v-1.352a.343.343,0,0,0-.091-.232l-2.552-2.763a.342.342,0,0,0-.251-.11H677.83a1.052,1.052,0,0,0-1.051,1.05v8.475a1.052,1.052,0,0,0,1.051,1.05h6.017a1.052,1.052,0,0,0,1.05-1.05v-.492h-.684Zm-2-8.448,1.681,1.819h-1.681Z" transform="translate(-676.7246, -194.545)"/></svg>
