<?xml version="1.0" encoding="utf-8"?>
<!-- Generator: Adobe Illustrator 24.1.2, SVG Export Plug-In . SVG Version: 6.00 Build 0)  -->
<svg version="1.1" id="Layer_1" xmlns="http://www.w3.org/2000/svg" xmlns:xlink="http://www.w3.org/1999/xlink" x="0px" y="0px"
	 viewBox="0 0 16 16" style="enable-background:new 0 0 16 16;" xml:space="preserve">
<style type="text/css">
	.st0{fill:none;}
	.st1{fill:#5A5A5A;}
</style>
<path class="st1" d="M14.6,11.8c-3.8-1.5-4.4-2.1-4.5-2.3V9.1c0.4-0.5,0.8-1.1,1-1.8c0.3-0.2,0.5-0.6,0.5-0.9c0.1-0.4,0-0.8-0.2-1.1
	V3.8c0-2-1.2-3.1-3.3-3.1c-2.1,0-3.3,1.2-3.3,3.1v1.4C4.5,5.6,4.4,5.9,4.5,6.3C4.5,6.7,4.7,7,5,7.3c0.2,0.7,0.5,1.3,1,1.8v0.4
	c-0.1,0.2-0.8,0.8-4.5,2.3c-0.3,0.1-0.6,0.5-0.6,0.9v1.7c0,0.5,0.4,0.9,0.9,0.9h12.6c0.5,0,0.9-0.4,0.9-0.9v-1.7
	C15.2,12.3,14.9,11.9,14.6,11.8z M14.3,14.4C14.3,14.5,14.3,14.5,14.3,14.4L1.7,14.5c0,0-0.1,0-0.1-0.1l0-1.8c4.2-1.6,4.9-2.3,5-2.9
	c0,0,0-0.1,0-0.1V8.9c0-0.1,0-0.2-0.1-0.3c-0.4-0.4-0.7-1-0.9-1.7c0-0.1-0.1-0.2-0.2-0.2C5.4,6.6,5.3,6.4,5.3,6.2
	c0-0.2,0-0.4,0.2-0.6c0.1-0.1,0.1-0.2,0.1-0.3V3.8c0-1.5,0.9-2.3,2.5-2.3c1.6,0,2.5,0.8,2.5,2.3v1.6c0,0.1,0,0.2,0.1,0.3
	c0.1,0.2,0.2,0.4,0.2,0.6c0,0.2-0.1,0.4-0.3,0.5c-0.1,0.1-0.1,0.1-0.2,0.2c-0.2,0.7-0.5,1.3-0.9,1.7C9.3,8.7,9.2,8.8,9.2,8.9v0.7
	c0,0,0,0.1,0,0.1c0.2,0.5,0.9,1.2,5.1,2.9V14.4z"/>
<rect class="st0" width="16" height="16"/>
</svg>
