<svg xmlns="http://www.w3.org/2000/svg" width="29.61" height="21.237" viewBox="0 0 29.61 21.237"><path d="M462.993,2718.011a3.019,3.019,0,1,0,3.018,3.019A3.023,3.023,0,0,0,462.993,2718.011Zm0,4.585a1.566,1.566,0,1,1,1.565-1.566A1.567,1.567,0,0,1,462.993,2722.6Z" transform="translate(-448.188 -2710.412)" fill="#ababab"/><path d="M457.422,2713.011a.729.729,0,0,0-1.027-.035,14.247,14.247,0,0,0,0,20.844.73.73,0,0,0,.5.2.728.728,0,0,0,.5-1.258,12.789,12.789,0,0,1,0-18.72A.726.726,0,0,0,457.422,2713.011Z" transform="translate(-451.862 -2712.78)" fill="#ababab"/><path d="M459.64,2716.328a.728.728,0,0,0-1.024-.067,7.489,7.489,0,0,0,0,11.287.726.726,0,0,0,.958-1.093,6.036,6.036,0,0,1,0-9.1A.728.728,0,0,0,459.64,2716.328Z" transform="translate(-449.965 -2711.286)" fill="#ababab"/><path d="M469.5,2712.977a.727.727,0,0,0-.994,1.062,12.786,12.786,0,0,1,0,18.72.727.727,0,0,0,.994,1.062,14.244,14.244,0,0,0,0-20.844Z" transform="translate(-444.426 -2712.781)" fill="#ababab"/><path d="M466.663,2716.261a.727.727,0,0,0-.959,1.093,6.036,6.036,0,0,1,0,9.1.727.727,0,0,0,.959,1.093,7.491,7.491,0,0,0,0-11.286Z" transform="translate(-445.704 -2711.286)" fill="#ababab"/></svg>