<svg version="1.1" id="Layer_1" xmlns="http://www.w3.org/2000/svg" x="0" y="0" viewBox="0 0 16 16" xml:space="preserve"><path fill="#5a5a5a" d="M11.2 3.9H4.8c-.2 0-.3.1-.3.3v7.6c0 .2.1.3.3.3h6.4c.2 0 .3-.1.3-.3V4.2c0-.2-.1-.3-.3-.3zm-.3 7.6H5.1v-7h5.8v7zM3 4.5c-.2 0-.3.1-.3.3v6.4c0 .2.1.3.3.3.2 0 .3-.1.3-.3V4.8c0-.2-.1-.3-.3-.3zM1.3 5.1c-.2 0-.3.1-.3.3v5.3c0 .2.1.3.3.3.2 0 .3-.1.3-.3V5.4c0-.2-.2-.3-.3-.3zM13 4.5c-.2 0-.3.1-.3.3v6.4c0 .2.1.3.3.3.2 0 .3-.1.3-.3V4.8c0-.2-.2-.3-.3-.3zM14.7 5.1c-.2 0-.3.1-.3.3v5.3c0 .2.1.3.3.3.2 0 .3-.1.3-.3V5.4c0-.2-.1-.3-.3-.3z"/><path fill="none" d="M0 0h16v16H0z"/><path transform="rotate(90 8 8)" fill="none" d="M1 1h14v14H1z"/></svg>
