<svg xmlns="http://www.w3.org/2000/svg" viewBox="0 0 100 100"><path d="M91.9 10.7H8.1c-1.7 0-3.1 1.4-3.1 3.1v72.4c0 1.7 1.4 3.1 3.1 3.1h83.7c1.7 0 3.1-1.4 3.1-3.1V13.8c.1-1.7-1.3-3.1-3-3.1zm-3.2 72.4H11.3V29h77.5v54.1z"></path><path fill="#333" d="M18.1 78.6h63.4c1 0 1.9-.8 1.9-1.9V65.6c0-1-.8-1.9-1.9-1.9H18.1c-1 0-1.9.8-1.9 1.9v11.1c0 1.1.8 1.9 1.9 1.9z"></path><path fill="none" stroke="#E7E7E7" stroke-miterlimit="10" d="M54.3 60.1h27.4c1 0 1.9-.8 1.9-1.9V35.7c0-1-.8-1.9-1.9-1.9H54.3c-1 0-1.9.8-1.9 1.9v22.5c.1 1.1.9 1.9 1.9 1.9zM18.1 60.1h27.4c1 0 1.9-.8 1.9-1.9V35.7c0-1-.8-1.9-1.9-1.9H18.1c-1 0-1.9.8-1.9 1.9v22.5c0 1.1.8 1.9 1.9 1.9z"></path><line fill="none" stroke="#F04F49" stroke-width="1.5" stroke-miterlimit="10" x1="0" y1="60" x2="100" y2="60"></line></svg>
