<svg xmlns="http://www.w3.org/2000/svg" viewBox="0 0 16 16"><path fill="none" d="M0 0h16v16H0z"></path><path fill="none" d="M1 1h14v14H1z"></path><path d="M14.1 2.1H1.9c-.1 0-.3.1-.3.3v11.2c0 .1.1.3.3.3h12.3c.1 0 .3-.1.3-.3V2.4c-.1-.1-.2-.3-.4-.3zm-.2.6v1.1H2.1V2.7h11.8zM2.1 13.3v-9h11.7v9.1H2.1z" fill="#5a5a5a"></path><path d="M10.3 5.1H5.6c-.1 0-.2.1-.2.1V7c0 .1.1.1.2.1h4.7c.1 0 .2-.1.2-.1V5.3c0-.1-.1-.2-.2-.2zm2.4 0h-1.4c-.1 0-.2.1-.2.2v7.1c0 .1.1.2.2.2h1.4c.1 0 .2-.1.2-.2V5.3c0-.1-.1-.2-.2-.2zm-8 0H3.3c-.1 0-.2.1-.2.2v7.1c0 .1.1.2.2.2h1.4c.1 0 .2-.1.2-.2V5.3c0-.1-.1-.2-.2-.2z" fill="#ff837e"></path><path d="M5.7 8h4.6M5.7 9h4.6m-4.6 1.1h4.6m-4.6 1.1h4.6m-4.6 1h4.6" fill="none" stroke="#d3d3d3" stroke-width=".51" stroke-linecap="round" stroke-miterlimit="10"></path></svg>
