<svg xmlns="http://www.w3.org/2000/svg" viewBox="0 0 16 16"><path fill="none" d="M0 0h16v16H0z"/><path fill="none" d="M1 1h14v14H1z"/><path d="M10.4 12c-.9.6-2 .9-3.1.9-.7 0-1.5-.1-2.1-.4v-1.1c2.6-1.1 3.1-1.5 3.2-1.8v-.5c0-.1 0-.1-.1-.2-.2-.3-.4-.7-.5-1.1 0-.1-.1-.1-.1-.1-.1-.1-.2-.2-.2-.3 0-.1 0-.2.1-.3 0 0 .1-.1.1-.2v-1c0-.9.5-1.4 1.5-1.4s1.5.5 1.5 1.4v1c.2-.1.3-.2.5-.3v-.7c0-1.2-.8-2-2.1-2S7 4.6 7 5.9v.9c0 .2-.1.4 0 .6 0 .3.1.5.3.6.1.4.3.8.6 1.1v.3c-.1.1-.5.5-2.8 1.4-.2.1-.4.3-.4.5v.9c-.7-.4-1.4-.9-1.9-1.6.2 0 .5-.1.7-.1.7-.1 1.2-.2 1.3-.6v-.5c0-.1-.1-.3-.3-.3-.6 0-1-.1-1.3-.2.3-.6.5-1.7.5-2.1 0-.7.4-1.3 1-1.6.6-.2 1.2-.1 1.7.3.1.1.3.1.4 0 .1-.1.1-.3 0-.4-.7-.5-1.5-.6-2.3-.3-.8.4-1.3 1.2-1.3 2.1-.1.8-.3 1.8-.5 2-.1 0-.1 0-.1.1s0 .2.1.2.5.4 1.6.4v.2c-.1.1-1.6.3-1.8.4-.5-.8-.9-1.8-.9-2.9 0-3.1 2.6-5.7 5.7-5.7 2.8 0 5.2 2.1 5.6 4.8.2 0 .4.1.6.2-.3-3.1-3-5.6-6.2-5.6-3.4 0-6.2 2.8-6.2 6.3 0 3.4 2.8 6.2 6.2 6.2 1.2 0 2.4-.4 3.4-1-.1-.1-.2-.3-.3-.5z" fill="#5a5a5a"/><g fill="#5a5a5a"><path d="M12.4 6.9C11.1 6.9 10 8 10 9.3c0 1.2 2 4.3 2.2 4.6 0 .1.1.1.2.1s.2 0 .2-.1c.2-.3 2.2-3.4 2.2-4.6.1-1.3-1-2.4-2.4-2.4zm0 6.4c-.7-1.1-1.9-3.2-1.9-4 0-1.1.9-1.9 1.9-1.9s1.9.9 1.9 1.9c0 .8-1.2 3-1.9 4z"/><path d="M12.4 8.4c-.4 0-.8.4-.8.8s.4.8.8.8.8-.4.8-.8c0-.5-.3-.8-.8-.8zm0 1c-.2 0-.3-.1-.3-.3 0-.2.1-.3.3-.3s.3.1.3.3c0 .2-.1.3-.3.3z"/></g><path d="M13.5 13.3c-.1 0-.2 0-.2.1s0 .2.1.2c.7.1.9.4.9.5 0 .2-.8.5-1.9.5-1.1 0-1.9-.3-1.9-.5 0-.1.3-.3.9-.5.1 0 .2-.1.1-.2 0-.1-.1-.2-.2-.1-.8.1-1.2.4-1.2.8 0 .6 1.1.9 2.2.9s2.2-.3 2.2-.9c.2-.3-.3-.6-1-.8z" fill="#5a5a5a"/></svg>
  
