<svg xmlns="http://www.w3.org/2000/svg" viewBox="0 0 20 20"><g fill="#5a5a5a"><path d="M6.4835 10.7545v-2.136a1.352 1.352 0 0 1 .84.516.35428.35428 0 1 0 .58-.407 2.1 2.1 0 0 0-1.42-.815v-.448a.354.354 0 0 0-.708 0v.438a1.862 1.862 0 0 0-1.708 1.72c0 1.021 1.023 1.444 1.708 1.659v2.13a3.331 3.331 0 0 1-1.359-.631.35437.35437 0 0 0-.447.55 3.949 3.949 0 0 0 1.805.793v.449a.354.354 0 0 0 .708 0v-.439a1.86 1.86 0 0 0 1.708-1.719c.001-.968-.911-1.415-1.707-1.66zm-1.708-1.131a1.129 1.129 0 0 1 1-1v1.907c-.7-.259-1-.534-1-.908v.001zm1.708 3.792v-1.915c.885.32 1 .667 1 .914a1.13 1.13 0 0 1-1 1.001z"/><path d="M16.4685 1.4985H5.6525a2.032 2.032 0 0 0-2.03 2.029.371.371 0 0 0 .019.1h-.115a2.031 2.031 0 0 0-2.029 2.029v10.816a2.031 2.031 0 0 0 2.029 2.029h10.816a2.032 2.032 0 0 0 2.03-2.029v-.115a.338.338 0 0 0 .1.02 2.032 2.032 0 0 0 2.03-2.029V3.5275a2.032 2.032 0 0 0-2.034-2.029zm-.8 14.971a1.322 1.322 0 0 1-1.321 1.321H3.5285a1.323 1.323 0 0 1-1.321-1.321V5.6575a1.322 1.322 0 0 1 1.321-1.32h10.816a1.322 1.322 0 0 1 1.321 1.32l.003 10.812zm2.126-2.125a1.323 1.323 0 0 1-1.321 1.321.337.337 0 0 0-.1.019V5.6575a2.031 2.031 0 0 0-2.03-2.029H4.3125a.362.362 0 0 0 .019-.1 1.323 1.323 0 0 1 1.321-1.321h10.816a1.323 1.323 0 0 1 1.321 1.321l.005 10.816z"/><path d="M13.1755 7.8745h-2.812a.354.354 0 0 0 0 .708h2.812a.354.354 0 0 0 0-.708zm0 2.124h-2.812a.354.354 0 0 0 0 .708h2.812a.354.354 0 0 0 0-.708zm0 2.125h-2.812a.354.354 0 0 0 0 .708h2.812a.354.354 0 0 0 0-.708zm0 2.125h-2.812a.354.354 0 0 0 0 .708h2.812a.354.354 0 0 0 0-.708z"/></g></svg>
