<svg xmlns="http://www.w3.org/2000/svg" viewBox="0 0 100 100"><path d="M96.5 6.3h-93C1.6 6.3 0 7.9 0 9.8v80.4c0 1.9 1.6 3.5 3.5 3.5h93.1c1.9 0 3.5-1.6 3.5-3.5V9.8c-.1-1.9-1.7-3.5-3.6-3.5zm-3.4 80.5H6.9V26.7H93v60.1z"></path><path fill="#333" stroke="#FFF" stroke-width=".023" stroke-miterlimit="10" d="M45.1 31.4H14.6c-1.1 0-2.1.9-2.1 2v18.2c0 1.1.9 2 2.1 2H45c1.2 0 2.1-.9 2.1-2V33.5c.1-1.1-.9-2.1-2-2.1zm0 28.5H14.6c-1.1 0-2.1.9-2.1 2v18.2c0 1.1.9 2 2.1 2H45c1.2 0 2.1-.9 2.1-2V62c.1-1.2-.9-2.1-2-2.1zm40.3-28.5H54.9c-1.2 0-2.1.9-2.1 2v18.2c0 1.1.9 2 2.1 2h30.4c1.1 0 2.1-.9 2.1-2V33.5c0-1.1-.9-2.1-2-2.1zm0 28.5H54.9c-1.2 0-2.1.9-2.1 2v18.2c0 1.1.9 2 2.1 2h30.4c1.1 0 2.1-.9 2.1-2V62c0-1.2-.9-2.1-2-2.1z"></path></svg>
