<svg xmlns="http://www.w3.org/2000/svg" viewBox="0 0 40.2 40.2"><path d="M28.7,5.7h-3.8V3.6c0-0.4-0.3-0.7-0.7-0.7c-0.4,0-0.7,0.3-0.7,0.7v2.1h-2.9V3.6c0-0.4-0.3-0.7-0.7-0.7c-0.4,0-0.7,0.3-0.7,0.7v2.1h-2.9V3.6c0-0.4-0.3-0.7-0.7-0.7s-0.7,0.3-0.7,0.7v2.1h-3.8c-2.1,0-4,1.9-4,4.1V33c0,2.3,1.8,4.1,4.1,4.1h17.5c2.3,0,4.1-1.8,4.1-4.1V9.8C32.8,7.6,31,5.7,28.7,5.7z M31.4,33c0,1.5-1.2,2.7-2.7,2.7H11.2c-1.5,0-2.7-1.2-2.7-2.7V9.8c0-1.5,1.2-2.7,2.7-2.7H15v0.7c0,0.4,0.3,0.7,0.7,0.7c0.4,0,0.7-0.3,0.7-0.7V7.2h2.9v0.7c0,0.4,0.3,0.7,0.7,0.7c0.4,0,0.7-0.3,0.7-0.7V7.2h2.9v0.7c0,0.4,0.3,0.7,0.7,0.7c0.4,0,0.7-0.3,0.7-0.7V7.2h3.8c1.5,0,2.7,1.2,2.7,2.7V33H31.4z"></path><path d="M26.3,14.3H13.5c-0.4,0-0.7,0.3-0.7,0.7s0.3,0.7,0.7,0.7h12.7c0.4,0,0.7-0.3,0.7-0.7C27,14.6,26.7,14.3,26.3,14.3z"></path><path d="M26.3,20H13.5c-0.4,0-0.7,0.3-0.7,0.7c0,0.4,0.3,0.7,0.7,0.7h12.7c0.4,0,0.7-0.3,0.7-0.7C27,20.3,26.7,20,26.3,20z"></path><path d="M26.3,25.7H13.5c-0.4,0-0.7,0.3-0.7,0.7c0,0.4,0.3,0.7,0.7,0.7h12.7c0.4,0,0.7-0.3,0.7-0.7C27,26,26.7,25.7,26.3,25.7z"></path></svg>
