<svg xmlns="http://www.w3.org/2000/svg" viewBox="0 0 16 16"><path fill="#D3D3D3" d="M14.1,13.5H2c-0.3,0-0.5,0.2-0.5,0.5s0.2,0.5,0.5,0.5h12.1c0.3,0,0.5-0.2,0.5-0.5S14.3,13.5,14.1,13.5z"></path><path fill="#6D6E71" d="M3.6,12.7h1.8c0.2,0,0.3-0.1,0.3-0.3V9.1c0-0.2-0.1-0.3-0.3-0.3H3.6c-0.2,0-0.3,0.1-0.3,0.3v3.4C3.3,12.6,3.4,12.7,3.6,12.7z"></path><path fill="#6D6E71" d="M7.1,10.3c-0.2,0-0.3,0.1-0.3,0.3v1.8c0,0.2,0.1,0.3,0.3,0.3h1.8c0.2,0,0.3-0.1,0.3-0.3v-1.8c0-0.2-0.1-0.3-0.3-0.3H7.1z"></path><path fill="#6D6E71" d="M10.6,6.9c-0.2,0-0.3,0.1-0.3,0.3v5.3c0,0.2,0.1,0.3,0.3,0.3h1.8c0.2,0,0.3-0.1,0.3-0.3V7.1c0-0.2-0.1-0.3-0.3-0.3H10.6z"></path><path fill="#D3D3D3" d="M4.3,5.6l3.1,2.5c0.1,0.1,0.2,0.1,0.2,0.1c0.1,0,0.2,0,0.3-0.1l4-4.6L12.6,4c0.1,0,0.1,0.1,0.2,0.1c0,0,0.1,0,0.1,0C13,4,13,3.9,13,3.8l0.1-1.9c0-0.1,0-0.2-0.1-0.2c-0.1-0.1-0.2-0.1-0.2-0.1L11,2.1c-0.1,0-0.2,0.1-0.2,0.2c0,0.1,0,0.2,0.1,0.3L11.4,3L7.6,7.4L4.7,5.1C4.6,4.9,4.4,5,4.2,5.1C4.1,5.3,4.1,5.5,4.3,5.6z"></path></svg>
