<?xml version="1.0" encoding="utf-8"?>
<!-- Generator: Adobe Illustrator 24.1.2, SVG Export Plug-In . SVG Version: 6.00 Build 0)  -->
<svg version="1.1" id="Layer_1" xmlns="http://www.w3.org/2000/svg" xmlns:xlink="http://www.w3.org/1999/xlink" x="0px" y="0px"
	 viewBox="0 0 16 16" style="enable-background:new 0 0 16 16;" xml:space="preserve">
<style type="text/css">
	.st0{fill:none;}
	.st1{fill:#5A5A5A;}
</style>
<rect y="0" class="st0" width="16" height="16"/>
<g>
	<path class="st1" d="M1.4,11.3c0.6,0.6,1.5,0.8,2.2,0.5l0.8,0.8c0.1,0.1,0.1,0.1,0.2,0.1l0.8,0l0.2,1.1c0,0.1,0.1,0.2,0.2,0.3
		l0.9,0.2l0.2,0.7c0,0.1,0.1,0.2,0.3,0.2l1.1,0c0,0,0,0,0,0c0.1,0,0.2-0.1,0.3-0.2l0.3-0.6c0-0.1,0-0.2-0.1-0.3L5,10.3
		c0.2-0.7,0-1.5-0.6-2.1c-0.8-0.8-2.2-0.8-3.1,0C0.5,9,0.5,10.4,1.4,11.3z M1.8,8.6C2.4,8,3.4,8,4,8.6c0.4,0.4,0.6,1.1,0.4,1.6
		c0,0.1,0,0.2,0.1,0.3l3.6,3.6L8,14.5l-0.6,0l-0.2-0.7c0-0.1-0.1-0.2-0.2-0.2l-0.8-0.2l-0.2-1.1c0-0.2-0.1-0.2-0.3-0.3l-0.9,0
		l-0.8-0.8c-0.1-0.1-0.2-0.1-0.3-0.1c-0.6,0.3-1.3,0.1-1.7-0.3C1.2,10.2,1.2,9.2,1.8,8.6z"/>
	<path class="st1" d="M8.6,12.7c0-0.2,0.1-0.3,0.3-0.3h5.6c0.1,0,0.1,0,0.1-0.1v-1.5c0,0,0-0.1-0.1-0.1c-3.6-1.4-4.2-2-4.3-2.4
		c0,0,0-0.1,0-0.1V7.7c0-0.1,0-0.2,0.1-0.2c0.4-0.4,0.6-0.9,0.8-1.5c0-0.1,0.1-0.1,0.1-0.2c0.1-0.1,0.2-0.3,0.3-0.4
		c0-0.2,0-0.4-0.1-0.5c0-0.1-0.1-0.1-0.1-0.2V3.5c0-1.3-0.8-2-2.2-2C7.7,1.5,7,2.2,7,3.5v1.3C7,4.9,7,4.9,6.9,5
		C6.8,5.1,6.8,5.3,6.8,5.5c0,0.2,0.1,0.3,0.3,0.4C7.1,6,7.1,6,7.2,6.1C7.3,6.7,7.6,7.2,8,7.5C8,7.6,8,7.7,8,7.7v0.6c0,0,0,0.1,0,0.1
		C7.9,8.9,6.5,9.7,6.2,9.9C6,10,5.8,9.9,5.7,9.8c-0.1-0.1,0-0.3,0.1-0.4c0.6-0.3,1.4-0.9,1.6-1.1V7.9C7.1,7.5,6.8,6.9,6.6,6.3
		C6.4,6.2,6.2,5.9,6.2,5.6c0-0.3,0-0.6,0.2-0.9V3.5c0-1.6,1-2.6,2.8-2.6c1.7,0,2.8,1,2.8,2.6v1.2c0.2,0.3,0.2,0.6,0.2,0.9
		c0,0.3-0.2,0.6-0.4,0.8c-0.2,0.6-0.5,1.1-0.8,1.5v0.4c0.1,0.2,0.7,0.7,3.9,1.9c0.3,0.1,0.5,0.4,0.5,0.7v1.5c0,0.4-0.3,0.7-0.7,0.7
		H8.9C8.7,13,8.6,12.9,8.6,12.7z"/>
	<path class="st1" d="M2.9,9.3C2.9,9.3,3,9.4,3,9.5c0,0.1,0,0.2-0.1,0.2C2.8,9.7,2.7,9.8,2.7,9.8c-0.1,0-0.2,0-0.2-0.1
		C2.4,9.6,2.4,9.6,2.4,9.5c0-0.1,0-0.2,0.1-0.2C2.6,9.1,2.8,9.1,2.9,9.3z"/>
</g>
</svg>
