<?xml version="1.0" encoding="utf-8"?>
<!-- Generator: Adobe Illustrator 24.2.1, SVG Export Plug-In . SVG Version: 6.00 Build 0)  -->
<svg version="1.1" id="Layer_1" xmlns="http://www.w3.org/2000/svg" xmlns:xlink="http://www.w3.org/1999/xlink" x="0px" y="0px"
	 viewBox="0 0 16 16" style="enable-background:new 0 0 16 16;" xml:space="preserve">
<style type="text/css">
	.st0{display:none;}
	.st1{display:inline;}
	.st2{fill:#ABABAB;}
</style>
<g class="st0">
	<g class="st1">
		<path class="st2" d="M12.8,11.4L12.8,11.4L12.8,11.4l-2.7-2.7c0.7-1.3,0.9-2.9,0-4.6c-0.7-1.3-2.1-2-3.5-2H6.5
			c-2.1,0-4,1.4-4.4,3.4c-0.6,2.8,1.5,5.3,4.2,5.3h0c0.8,0,1.6-0.2,2.2-0.6l2.7,2.7l0,0l0.1,0.1c0.2,0.2,0.5,0.2,0.7,0l0.9-0.9
			C13,11.9,13,11.6,12.8,11.4z M6.3,9.7C4,9.7,2.3,7.3,3.4,5c0.5-1.1,1.7-1.7,2.9-1.7h0c0.9,0,1.7,0.3,2.3,1
			c0.6,0.6,0.9,1.4,0.9,2.3c0,0.9-0.3,1.7-1,2.3C8,9.4,7.2,9.7,6.3,9.7L6.3,9.7z"/>
	</g>
</g>
<g>
	<g>
		<path class="st2" d="M13.4,12.1L13.4,12.1L13.4,12.1l-2.7-2.7c0.7-1.3,0.9-2.9,0-4.6c-0.7-1.3-2.1-2-3.5-2H7c-2.1,0-4,1.4-4.4,3.4
			C2,9,4.1,11.5,6.8,11.5h0c0.8,0,1.6-0.2,2.2-0.6l2.7,2.7l0,0l0.1,0.1c0.2,0.2,0.5,0.2,0.7,0l0.9-0.9
			C13.6,12.6,13.6,12.3,13.4,12.1z M6.8,10.4c-2.3,0-4-2.4-2.9-4.8c0.5-1.1,1.7-1.7,2.9-1.7h0c0.9,0,1.7,0.3,2.3,1
			c0.6,0.6,0.9,1.4,0.9,2.3c0,0.9-0.3,1.7-1,2.3C8.5,10.1,7.7,10.4,6.8,10.4L6.8,10.4z"/>
	</g>
</g>
</svg>
