<svg xmlns="http://www.w3.org/2000/svg" width="16.071" height="16.071" viewBox="0 0 16.071 16.071"><g transform="translate(-3749.062 -571.348)"><path d="M3756.651,582.079h5.572a.549.549,0,0,0,.547-.55v-.758a.555.555,0,0,0-.351-.514,7.933,7.933,0,0,1-1.914-.9v-.088a2.268,2.268,0,0,0,.41-.762.834.834,0,0,0,.241-.478.822.822,0,0,0-.1-.528v-.575a1.619,1.619,0,0,0-3.231,0v.575a.811.811,0,0,0-.1.527.829.829,0,0,0,.241.479,2.258,2.258,0,0,0,.409.762v.075a7.24,7.24,0,0,1-1.914.913.553.553,0,0,0-.35.513v.758A.549.549,0,0,0,3756.651,582.079Zm.122-1.227c1.933-.753,2.171-1.059,2.249-1.308a.359.359,0,0,0,.015-.1v-.3a.337.337,0,0,0-.1-.234,1.564,1.564,0,0,1-.368-.68.34.34,0,0,0-.13-.184.152.152,0,0,1-.062-.105.156.156,0,0,1,.034-.121.333.333,0,0,0,.076-.211v-.678c0-.56.318-.844.946-.844.646,0,.946.268.946.844v.678a.334.334,0,0,0,.075.212.151.151,0,0,1,.035.121.153.153,0,0,1-.062.105.337.337,0,0,0-.13.184,1.566,1.566,0,0,1-.369.68.337.337,0,0,0-.1.234v.3a.331.331,0,0,0,.016.1c.078.248.316.555,2.25,1.308v.557h-5.328Z" transform="translate(-2.326 -1.343)" fill="#5a5a5a"/><path d="M3762.437,588.368H3756.4a.335.335,0,1,0,0,.67h6.041a.335.335,0,0,0,0-.67Z" transform="translate(-2.312 -5.623)" fill="#5a5a5a"/><path d="M3762.1,590.368h-4.7a.335.335,0,0,0,0,.67h4.7a.335.335,0,1,0,0-.67Z" transform="translate(-2.643 -6.284)" fill="#5a5a5a"/><path d="M3762.771,571.348h-8.705a1.006,1.006,0,0,0-1,1v14.062a1.006,1.006,0,0,0,1,1h8.705a1.006,1.006,0,0,0,1-1V572.352A1.006,1.006,0,0,0,3762.771,571.348Zm.335,15.067a.335.335,0,0,1-.335.335h-8.705a.336.336,0,0,1-.335-.335V572.352a.336.336,0,0,1,.335-.335h8.705a.335.335,0,0,1,.335.335Z" transform="translate(-1.321)" fill="#5a5a5a"/><path d="M3750.066,574.018h.669a.335.335,0,1,0,0-.67h-.669a1.006,1.006,0,0,0-1,1v11.384a1.006,1.006,0,0,0,1,1h.669a.335.335,0,1,0,0-.67h-.669a.336.336,0,0,1-.335-.335V574.352A.336.336,0,0,1,3750.066,574.018Z" transform="translate(0 -0.661)" fill="#5a5a5a"/><path d="M3771.066,573.348h-.67a.335.335,0,0,0,0,.67h.67a.335.335,0,0,1,.335.335v11.384a.335.335,0,0,1-.335.335h-.67a.335.335,0,0,0,0,.67h.67a1.006,1.006,0,0,0,1-1V574.352A1.006,1.006,0,0,0,3771.066,573.348Z" transform="translate(-6.938 -0.661)" fill="#5a5a5a"/></g></svg>
