<svg xmlns="http://www.w3.org/2000/svg" viewBox="0 0 40.2 40.2"><path d="M36.1,16.5H5.3c-0.4,0-0.7,0.3-0.7,0.7V26c0,0.4,0.3,0.7,0.7,0.7h30.8c0.4,0,0.7-0.3,0.7-0.7v-8.8C36.8,16.8,36.5,16.5,36.1,16.5z M35.3,25.3H6V18h29.3V25.3z"></path><path d="M30.2,23.5c1.1,0,1.9-0.9,1.9-1.9c0-1.1-0.9-1.9-1.9-1.9s-1.9,0.9-1.9,1.9C28.3,22.7,29.1,23.5,30.2,23.5zM30.2,21.1c0.3,0,0.5,0.2,0.5,0.5s-0.2,0.5-0.5,0.5s-0.5-0.2-0.5-0.5C29.7,21.3,30,21.1,30.2,21.1z"></path><path d="M36.1,3.3H5.3C4.9,3.3,4.6,3.6,4.6,4v8.8c0,0.4,0.3,0.7,0.7,0.7h30.8c0.4,0,0.7-0.3,0.7-0.7V4C36.8,3.6,36.5,3.3,36.1,3.3z M35.3,12.1H6V4.8h29.3V12.1z"></path><path d="M30.2,10.3c1.1,0,1.9-0.9,1.9-1.9c0-1.1-0.9-1.9-1.9-1.9s-1.9,0.9-1.9,1.9C28.3,9.5,29.1,10.3,30.2,10.3zM30.2,7.9c0.3,0,0.5,0.2,0.5,0.5c0,0.3-0.2,0.5-0.5,0.5s-0.5-0.2-0.5-0.5C29.7,8.1,30,7.9,30.2,7.9z"></path><path d="M7.5,34.1H3.8c-0.4,0-0.7,0.3-0.7,0.7s0.3,0.7,0.7,0.7h3.7c0.4,0,0.7-0.3,0.7-0.7C8.2,34.5,7.9,34.1,7.5,34.1z"></path><path d="M15.6,34.1h-3.7c-0.4,0-0.7,0.3-0.7,0.7s0.3,0.7,0.7,0.7h3.7c0.4,0,0.7-0.3,0.7-0.7C16.3,34.5,16,34.1,15.6,34.1z"></path><path d="M28,34.1h-3.7l0,0c-0.4,0-0.7,0.3-0.7,0.7s0.3,0.7,0.7,0.7H28l0,0c0.4,0,0.7-0.3,0.7-0.7C28.8,34.5,28.4,34.1,28,34.1z"></path><path d="M36,34.1h-3.7l0,0c-0.4,0-0.7,0.3-0.7,0.7s0.3,0.7,0.7,0.7H36l0,0c0.4,0,0.7-0.3,0.7-0.7C36.8,34.5,36.4,34.1,36,34.1z"></path><path d="M20.6,33v-3.9c0-0.4-0.3-0.7-0.7-0.7s-0.7,0.3-0.7,0.7V33c-0.8,0.3-1.3,1-1.3,1.9c0,1.1,0.9,2,2,2s2-0.9,2-2C21.9,34,21.4,33.3,20.6,33z M19.9,35.4c-0.3,0-0.6-0.2-0.6-0.6c0-0.3,0.2-0.6,0.6-0.6c0.3,0,0.6,0.3,0.6,0.6C20.4,35.2,20.2,35.4,19.9,35.4z"></path></svg>
