<svg xmlns="http://www.w3.org/2000/svg" viewBox="0 0 16 16"><g fill="#5a5a5a"><path d="M8 5.1C6.4 5.1 5.1 6.4 5.1 8c0 1.6 1.3 2.9 2.9 2.9 1.6 0 2.9-1.3 2.9-2.9 0-1.6-1.3-2.9-2.9-2.9zm0 5.2c-1.2 0-2.3-1-2.3-2.3 0-1.2 1-2.3 2.3-2.3 1.2 0 2.3 1 2.3 2.3 0 1.2-1.1 2.3-2.3 2.3z"></path><path d="M15.2 7c0-.1-.1-.2-.3-.3l-1.7-.2c-.1-.4-.3-.8-.5-1.2l1-1.3c.1-.1.1-.3 0-.4-.4-.5-.9-1-1.4-1.4-.1-.1-.3-.1-.4 0l-1.3 1c-.4-.2-.8-.4-1.2-.5l-.1-1.6L9 .8C8.3.7 7.7.7 7 .8l-.3.3-.2 1.7c-.4.1-.8.3-1.1.5L4 2.2c-.1-.1-.3-.1-.4 0-.5.4-1 .9-1.4 1.4-.1.2-.1.3 0 .4l1 1.3c-.1.4-.3.8-.4 1.2l-1.7.2-.3.3c-.1.7-.1 1.3 0 2 0 .1.1.2.3.3l1.7.2c.1.4.3.8.5 1.2l-1 1.3c-.1.1-.1.3 0 .4.4.5.9 1 1.4 1.4.1.1.3.1.4 0l1.3-1c.4.2.8.4 1.2.5l.2 1.7c0 .1.1.2.3.3.3 0 .7.1 1 .1.3 0 .7 0 1-.1.1 0 .2-.1.3-.3l.2-1.7c.4-.1.8-.3 1.2-.5l1.3 1c.1.1.3.1.4 0 .5-.4 1-.9 1.4-1.4.1-.1.1-.3 0-.4l-1-1.3c.2-.4.4-.8.5-1.2l1.7-.2c.1 0 .2-.1.3-.3-.1-.7-.1-1.3-.2-2zm-.6 1.7l-1.6.2c-.1 0-.2.1-.3.2-.1.5-.3 1-.6 1.4-.1.1-.1.2 0 .3l1 1.3c-.3.4-.6.7-1 1l-1.3-1c-.1-.1-.2-.1-.3 0-.4.3-.9.5-1.4.6-.1 0-.2.1-.2.3l-.2 1.6H7.3L7.1 13c0-.1-.1-.2-.2-.3-.5-.1-1-.3-1.4-.6-.1-.1-.2-.1-.3 0l-1.3 1c-.3-.3-.7-.6-1-1l1-1.3c.1-.1.1-.2 0-.4-.3-.4-.5-.9-.6-1.4 0-.1-.1-.2-.3-.2l-1.6-.1V7.3L3 7.1c.1 0 .2-.1.3-.2.1-.5.3-1 .6-1.4.1-.1.1-.3 0-.4l-1-1.3c.3-.3.6-.7 1-1l1.3 1c0 .2.2.2.3.1.4-.3.9-.5 1.4-.6.1 0 .2-.1.2-.3l.2-1.6h1.4L8.9 3c0 .1.1.2.2.3.5.1 1 .3 1.4.6.1.1.2.1.3 0l1.3-1c.4.3.7.6 1 1l-1 1.3c-.1.1-.1.2 0 .3.3.4.5.9.6 1.4 0 .1.1.2.3.2l1.6.2v1.4z"></path></g></svg>
