<svg xmlns="http://www.w3.org/2000/svg" viewBox="0 0 17 17"><path fill="#DA4F49" d="M11.3,5.7c-0.2-0.2-0.4-0.2-0.6,0L8.5,7.9L6.3,5.7c-0.2-0.2-0.4-0.2-0.6,0c-0.2,0.2-0.2,0.4,0,0.6l2.2,2.2 l-2.2,2.2c-0.2,0.2-0.2,0.4,0,0.6c0.1,0.1,0.2,0.1,0.3,0.1c0.1,0,0.2,0,0.3-0.1l2.2-2.2l2.2,2.2c0.1,0.1,0.2,0.1,0.3,0.1 c0.1,0,0.2,0,0.3-0.1c0.2-0.2,0.2-0.4,0-0.6L9.1,8.5l2.2-2.2C11.5,6.1,11.5,5.8,11.3,5.7z"></path><path fill="#DA4F49" d="M8.5,1.5c3.9,0,7,3.1,7,7s-3.1,7-7,7s-7-3.1-7-7S4.6,1.5,8.5,1.5 M8.5,0.5c-4.4,0-8,3.6-8,8s3.6,8,8,8 s8-3.6,8-8S12.9,0.5,8.5,0.5L8.5,0.5z"></path></svg>
