<svg id="Group_20167" data-name="Group 20167" xmlns="http://www.w3.org/2000/svg" width="17.173" height="14.302" viewBox="0 0 17.173 14.302">
  <path id="Path_4438" data-name="Path 4438" d="M519.067,1200.362a.352.352,0,0,0-.34-.272h-3.933a.358.358,0,0,0,0,.715h3.144l-6.2,6.2a.358.358,0,0,0,.506.506l6.123-6.123v3a.358.358,0,1,0,.715,0v-3.8A.352.352,0,0,0,519.067,1200.362Z" transform="translate(-501.921 -1200.09)" fill="#5a5a5a"/>
  <path id="Path_4439" data-name="Path 4439" d="M512.711,1205.95a.357.357,0,0,0-.358.358v8.224H498.766V1203.8H509.85a.357.357,0,1,0,0-.715H498.409a.357.357,0,0,0-.358.358v11.442a.358.358,0,0,0,.358.358h14.3a.357.357,0,0,0,.358-.358v-8.581A.357.357,0,0,0,512.711,1205.95Z" transform="translate(-498.051 -1200.945)" fill="#5a5a5a"/>
</svg>
