<svg xmlns="http://www.w3.org/2000/svg" viewBox="0 0 40.2 40.2"><path d="M26.8,16.9c-0.3-0.3-0.8-0.3-1.1,0l-7.8,8l-3.3-3.4c-0.3-0.3-0.8-0.3-1.1,0s-0.3,0.8,0,1.1l3.9,4l0,0c0.1,0.1,0.3,0.2,0.6,0.2s0.4-0.1,0.6-0.2L27,18C27.1,17.7,27.1,17.2,26.8,16.9z"></path><path d="M31.5,10.3c0,0-0.7,0.2-1.7,0.2c-2.3,0-5.6-0.8-8.4-4.9c-0.6-0.8-2-0.8-2.6,0c-3.2,4.6-7.2,4.9-8.4,4.9c-0.8,0-1.3-0.1-1.7-0.2c-1-0.3-2.1,0.5-2.1,1.5v8.7c0,12.5,12.5,16.2,13,16.3c0.1,0,0.3,0.1,0.4,0.1s0.3,0,0.4-0.1c0.5-0.1,13-3.8,13-16.3v-8.7C33.5,10.9,32.5,10.1,31.5,10.3z M32.2,20.6c0,11.5-11.5,14.9-12,15c0,0,0,0-0.1,0H20c-0.5-0.1-12-3.6-12-15v-8.7c0-0.2,0.1-0.2,0.3-0.2l0,0c0.6,0.2,1.3,0.3,2.1,0.3c1.3,0,6-0.4,9.5-5.5c0.1-0.1,0.3-0.1,0.4,0c3.1,4.5,6.9,5.5,9.5,5.5c1.3,0,2.1-0.2,2.2-0.2c0.1,0,0.2,0.1,0.2,0.2V20.6z"></path></svg>
