<svg xmlns="http://www.w3.org/2000/svg" viewBox="0 0 100 100"><path fill="#556080" d="M90 67.2H10c-5.5 0-10-4.5-10-10V42.7c0-5.5 4.5-10 10-10h80c5.5 0 10 4.5 10 10v14.5c0 5.5-4.5 10-10 10z"></path><path fill="#D3D3D3" d="M25.1 45l-4.4 2.2v-5.8c0-1-.8-1.7-1.7-1.7-1 0-1.7.8-1.7 1.7v5.8L12.8 45c-.9-.4-1.9-.1-2.3.8-.4.9-.1 1.9.8 2.3l5 2.5-3.9 5.2c-.6.8-.4 1.8.3 2.4.3.2.7.3 1 .3.5 0 1-.2 1.4-.7l3.8-5.1 3.8 5.1c.3.5.9.7 1.4.7.4 0 .7-.1 1-.3.8-.6.9-1.7.3-2.4l-3.9-5.2 5-2.5c.9-.4 1.2-1.5.8-2.3-.3-.9-1.4-1.2-2.2-.8zm20.7 0l-4.4 2.2v-5.8c0-1-.8-1.7-1.7-1.7-1 0-1.7.8-1.7 1.7v5.8L33.5 45c-.9-.4-1.9-.1-2.3.8-.4.9-.1 1.9.8 2.3l5 2.5-3.9 5.2c-.6.8-.4 1.8.3 2.4.3.2.7.3 1 .3.5 0 1-.2 1.4-.7l3.8-5.1 3.8 5.1c.3.5.9.7 1.4.7.4 0 .7-.1 1-.3.8-.6.9-1.7.3-2.4l-3.9-5.2 5-2.5c.9-.4 1.2-1.5.8-2.3-.3-.9-1.4-1.2-2.2-.8zm20.7 0l-4.4 2.2v-5.8c0-1-.8-1.7-1.7-1.7-1 0-1.7.8-1.7 1.7v5.8L54.2 45c-.9-.4-1.9-.1-2.3.8-.4.9-.1 1.9.8 2.3l5 2.5-3.9 5.2c-.6.8-.4 1.8.3 2.4.3.2.7.3 1 .3.5 0 1-.2 1.4-.7l3.8-5.1 3.8 5.1c.3.5.9.7 1.4.7.4 0 .7-.1 1-.3.8-.6.9-1.7.3-2.4L63 50.6l5-2.5c.9-.4 1.2-1.5.8-2.3-.4-.9-1.5-1.2-2.3-.8zm23 .8c-.5-.9-1.5-1.2-2.3-.8l-4.4 2.2v-5.8c0-1-.8-1.7-1.7-1.7-1 0-1.7.8-1.7 1.7v5.8L74.9 45c-.9-.4-1.9-.1-2.3.8-.4.9-.1 1.9.8 2.3l5 2.5-3.9 5.2c-.6.8-.4 1.8.3 2.4.3.2.7.3 1 .3.5 0 1-.2 1.4-.7l3.8-5.1 3.8 5.1c.3.5.9.7 1.4.7.4 0 .7-.1 1-.3.8-.6.9-1.7.3-2.4l-3.9-5.2 5-2.5c1-.4 1.3-1.5.9-2.3z"></path></svg>
