<svg xmlns="http://www.w3.org/2000/svg" viewBox="0 0 40.2 40.2"><path d="M15.5,11.3h9c1.1,0,1.8-0.5,2.2-0.9c0.5-0.5,0.7-1.2,0.7-2c0-1.4-1-2.9-2.9-2.9h-1.1V5.3c0-1.5-1.3-2.8-2.9-2.8h-1.1c-1.6,0-2.9,1.3-2.9,2.8v0.2h-1.1c-1.9,0-2.9,1.4-2.9,2.9C12.6,9.9,13.6,11.3,15.5,11.3z M15.5,7h1.9c0.4,0,0.7-0.3,0.7-0.7v-1c0-0.7,0.6-1.3,1.4-1.3h1.1C21.4,4,22,4.6,22,5.3v1C22,6.7,22.4,7,22.8,7h1.8c1,0,1.4,0.8,1.4,1.4c0,0.4-0.1,0.7-0.4,1S25,9.8,24.5,9.8h-9c-0.5,0-0.8-0.1-1.1-0.4c-0.2-0.2-0.3-0.6-0.3-1C14.1,7.9,14.4,7,15.5,7z"></path><path d="M32.6,6.9h-3c-0.4,0-0.7,0.3-0.7,0.7c0,0.4,0.3,0.7,0.7,0.7h2.2v27.9H8.3V8.4h2.2c0.4,0,0.7-0.3,0.7-0.7S10.9,7,10.5,7H7.6C7.2,7,6.9,7.3,6.9,7.7V37c0,0.4,0.3,0.7,0.7,0.7h25c0.4,0,0.7-0.3,0.7-0.7V7.6C33.3,7.2,33,6.9,32.6,6.9z"></path><path d="M26.4,17.4l-9.1,11L14.2,25c-0.3-0.3-0.7-0.3-1,0s-0.3,0.7,0,1l3.7,4.1c0.1,0.2,0.3,0.2,0.5,0.2l0,0c0.2,0,0.4-0.1,0.5-0.3l9.6-11.7c0.3-0.3,0.2-0.8-0.1-1C27.1,17.1,26.7,17.1,26.4,17.4z"></path><path d="M20.1,6.5c0.2,0,0.4-0.1,0.5-0.2s0.2-0.3,0.2-0.5s-0.1-0.4-0.2-0.5c-0.3-0.3-0.8-0.3-1,0c-0.1,0.1-0.2,0.3-0.2,0.5s0.1,0.4,0.2,0.5S19.9,6.5,20.1,6.5z"></path></svg>
