<svg xmlns="http://www.w3.org/2000/svg" viewBox="0 0 16 16"><path fill="#231F20" d="M15,7.7l-3.9-2.5c-0.2-0.1-0.5-0.1-0.7,0.2c-0.1,0.2-0.1,0.5,0.2,0.7l3.2,2L10.6,10c-0.2,0.1-0.3,0.4-0.2,0.7c0.1,0.2,0.3,0.2,0.4,0.2c0.1,0,0.2,0,0.3-0.1L15,8.6c0.2-0.1,0.2-0.3,0.2-0.4C15.3,8,15.2,7.8,15,7.7z"></path><path fill="#231F20" d="M5.5,10.1L2.3,8l3.2-1.9C5.7,6,5.8,5.7,5.7,5.4C5.5,5.2,5.2,5.1,5,5.2L1,7.6C0.9,7.7,0.8,7.8,0.8,8c0,0.2,0.1,0.3,0.2,0.4L5,10.9C5,11,5.1,11,5.2,11c0.2,0,0.3-0.1,0.4-0.2C5.8,10.5,5.7,10.2,5.5,10.1z"></path><path fill="#231F20" d="M9.4,3.7C9.1,3.6,8.8,3.8,8.7,4.1l-2.3,7.5c-0.1,0.3,0.1,0.7,0.4,0.8c0.1,0,0.1,0,0.2,0c0.3,0,0.5-0.2,0.6-0.4l2.3-7.5C9.9,4.1,9.7,3.8,9.4,3.7z"></path></svg>
