<svg xmlns="http://www.w3.org/2000/svg" viewBox="0 0 40.2 40.2"><path d="M35.1,19.5h-0.7c-0.3-7.4-6.3-13.3-13.7-13.7V5.2c0-0.4-0.3-0.7-0.7-0.7c-0.4,0-0.7,0.3-0.7,0.7v0.7C12.1,6.2,6.1,12.1,5.8,19.5H5.1c-0.4,0-0.7,0.3-0.7,0.7c0,0.4,0.3,0.7,0.7,0.7h0.7c0.3,7.4,6.3,13.3,13.7,13.7v0.7c0,0.4,0.3,0.7,0.7,0.7c0.4,0,0.7-0.3,0.7-0.7v-0.7c7.4-0.3,13.3-6.3,13.7-13.7h0.7c0.4,0,0.7-0.3,0.7-0.7C35.7,19.8,35.4,19.5,35.1,19.5z M20.7,33.2v-1.7c0-0.4-0.3-0.7-0.7-0.7c-0.4,0-0.7,0.3-0.7,0.7v1.7c-6.7-0.3-12-5.7-12.4-12.4h1.7c0.4,0,0.7-0.3,0.7-0.7c0-0.4-0.3-0.7-0.7-0.7H7.1c0.3-6.7,5.7-12,12.4-12.4v1.7c0,0.4,0.3,0.7,0.7,0.7c0.4,0,0.7-0.3,0.7-0.7V7.2c6.7,0.3,12,5.7,12.3,12.4h-1.7c-0.4,0-0.7,0.3-0.7,0.7c0,0.4,0.3,0.7,0.7,0.7h1.7C32.8,27.5,27.4,32.8,20.7,33.2z"></path><path d="M20.1,18.6c-0.9,0-1.6,0.7-1.6,1.6s0.7,1.6,1.6,1.6s1.6-0.7,1.6-1.6C21.7,19.3,21,18.6,20.1,18.6z M19.8,20.2c0-0.2,0.1-0.3,0.3-0.3c0.2,0,0.3,0.1,0.3,0.3C20.4,20.5,19.8,20.5,19.8,20.2z"></path></svg>
