<svg xmlns="http://www.w3.org/2000/svg" viewBox="0 0 16 16" fill="#5a5a5a"><path fill="#F1C9A5" d="M7.9,9.9C7.5,9,4.8,8.5,4.8,8.5S2,9,1.6,9.9C1.3,11,1,12.4,1,12.4h7.5C8.5,12.4,8.3,10.9,7.9,9.9z"></path><path fill="#E4B692" d="M4.8,8.5c0,0,2.8,0.5,3.2,1.3c0.4,1,0.6,2.5,0.6,2.5H4.8V8.5z"></path><path fill="#F1C9A5" d="M4,6.9h1.5v2.5H4L4,6.9z"></path><path fill="#E4B692" d="M4.8,6.9h0.8v2.5H4.8V6.9z"></path><path opacity="0.1" fill="#DDAC8C" enable-background="new" d="M4,8.1c0.1,0.4,0.7,0.6,1.1,0.6c0.1,0,0.3,0,0.4-0.1V6.9H4 C4,6.9,4,8.1,4,8.1z"></path><path fill="#F1C9A5" d="M6.7,5.3c0-1.6-0.9-2.5-1.9-2.5S2.8,3.8,2.8,5.3c0,2.1,0.9,2.8,1.9,2.8C5.8,8.1,6.7,7.3,6.7,5.3z"></path><path fill="#E4B692" d="M6.4,6.4C6,6.4,5.8,6,5.9,5.6c0.1-0.4,0.4-0.7,0.7-0.7c0.3,0,0.6,0.4,0.5,0.8C7.1,6.1,6.7,6.4,6.4,6.4z"></path><path fill="#F1C9A5" d="M2.4,5.7C2.3,5.3,2.6,4.9,2.9,4.8c0.3,0,0.7,0.3,0.7,0.7C3.7,6,3.5,6.3,3.1,6.4C2.8,6.4,2.5,6.1,2.4,5.7z"></path><path fill="#E4B692" d="M6.7,5.3c0-1.6-0.9-2.5-1.9-2.5v5.3C5.8,8.1,6.7,7.3,6.7,5.3z"></path><path fill="#4A4A4A" d="M6.5,6.6C6.4,6.9,6.2,7.3,5.9,7.3c-0.4,0-0.7-0.3-1.1-0.3S4,7.3,3.6,7.3C3.3,7.3,3.2,6.9,3,6.6L3,6.1v0.7 c0,0,0.2,0.8,0.4,1c0.2,0.2,1,0.6,1.4,0.6c0.4,0,1.1-0.4,1.4-0.6c0.3-0.2,0.4-1,0.4-1V6.1L6.5,6.6z"></path><path fill="#DADADA" d="M7.9,9.9C7.7,9.4,6.6,9,5.8,8.8c0,0.6-0.5,1-1.1,1s-1-0.4-1.1-1C2.9,9,1.8,9.4,1.6,9.9C1.3,11,1,12.4,1,12.4 h7.5C8.5,12.4,8.3,10.9,7.9,9.9z"></path><path fill="#00B7A3" d="M1.1,12C1,12.3,1,12.4,1,12.4h7.5c0,0,0-0.2-0.1-0.4H1.1z M1.2,11.6h7.2c0-0.1,0-0.3-0.1-0.4H1.2 C1.2,11.3,1.2,11.5,1.2,11.6z M1.3,10.8h6.9c0-0.1-0.1-0.3-0.1-0.4H1.5C1.4,10.5,1.4,10.6,1.3,10.8z M4.7,9.8C4.5,9.8,4.2,9.7,4,9.5 H1.9C1.8,9.6,1.6,9.8,1.6,9.9c0,0,0,0,0,0.1H8c0,0,0,0,0-0.1C7.9,9.8,7.8,9.6,7.6,9.5H5.5C5.3,9.7,5,9.8,4.7,9.8z M2.7,9.1h1 c0-0.1-0.1-0.2-0.1-0.3C3.4,8.9,3,9,2.7,9.1z M5.7,9.1h1C6.5,9,6.1,8.9,5.8,8.8C5.8,8.9,5.8,9,5.7,9.1z"></path><path fill="#00B7A3" d="M3.4,8.9C3.5,9.5,4,10,4.8,10S6,9.5,6.1,8.9C6,8.8,5.9,8.8,5.8,8.8c0,0.6-0.5,1-1.1,1s-1-0.4-1.1-1 C3.6,8.8,3.5,8.8,3.4,8.9z"></path><path fill="#4A4A4A" d="M2.7,5.2c0,0,2-0.4,3-1.2C6,4.6,6.2,5.3,6.7,5.3C6.9,4,6.3,2.8,5,2.8S2.8,3.5,2.7,5.2z"></path><path fill="#F1C9A5" d="M13.6,10.8c-0.5-0.9-3.4-1.4-3.4-1.4s-2.9,0.5-3.4,1.4c-0.3,1.2-0.6,2.7-0.6,2.7h8 C14.2,13.5,14,11.8,13.6,10.8z"></path><path fill="#E4B692" d="M10.2,9.3c0,0,2.9,0.5,3.4,1.4c0.4,1.1,0.6,2.7,0.6,2.7h-4V9.3z"></path><path fill="#F1C9A5" d="M9.4,7.6H11v2.7H9.4V7.6z"></path><path fill="#E4B692" d="M10.2,7.6H11v2.7h-0.8V7.6z"></path><path opacity="0.1" fill="#DDAC8C" enable-background="new" d="M9.4,8.8c0.1,0.4,0.7,0.7,1.2,0.7c0.2,0,0.3,0,0.5-0.1V7.6H9.4 V8.8z"></path><path fill="#F1C9A5" d="M12.2,5.9c0-1.7-0.9-2.6-2.1-2.6s-2.1,1-2.1,2.6s0.9,3,2.1,3S12.2,7.6,12.2,5.9z"></path><path fill="#E4B692" d="M11.9,7c-0.4,0-0.6-0.5-0.6-1s0.4-0.8,0.8-0.8c0.4,0,0.6,0.5,0.6,1C12.6,6.7,12.3,7.1,11.9,7z"></path><path fill="#F1C9A5" d="M7.7,6.3c-0.1-0.5,0.2-0.9,0.6-1c0.4,0,0.7,0.3,0.8,0.8C9.1,6.6,8.8,7,8.4,7C8.1,7.1,7.7,6.7,7.7,6.3z"></path><path fill="#E4B692" d="M12.2,5.9c0-1.7-0.9-2.6-2.1-2.6v5.6C11.3,8.9,12.2,7.6,12.2,5.9z"></path><path fill="#4A4A4A" d="M9.2,8.2c0,0-0.9-0.7-0.7-1.7c0.2-1,0.7-1.1,0.7-1.5c0.8,1,1.5,1.7,2.9,1.3c0.4,0.2-0.1,1.4-0.7,2 C13,7.4,15,4,11,2.7C6.9,1.4,5.7,8,9.2,8.2z"></path><path fill="#00B7A3" d="M10.2,4.3c1.1,0,1.9,0.8,2.1,1.8c0-0.1,0-0.2,0-0.4c0-1.2-1-2.2-2.2-2.2C9,3.6,8,4.5,8,5.7C8,5.8,8,6,8,6.1 C8.2,5.1,9.1,4.3,10.2,4.3z M8.6,9.7c0.3,0.2,1,0.5,1.6,0.5c0.8,0,1.8-0.4,1.8-0.4l-0.1,0c-0.3-0.1-0.7-0.2-0.9-0.3 c-0.8,0.5-1.6,0-1.6,0C9.1,9.6,8.9,9.6,8.6,9.7z"></path><path fill="#DADADA" d="M13.6,10.8c-0.2-0.3-0.6-0.5-1.1-0.8c-0.3,1-1.2,1.7-2.3,1.7S8.2,11,7.9,10c-0.5,0.2-1,0.5-1.1,0.8 c-0.3,1.2-0.6,2.7-0.6,2.7h8C14.2,13.5,14,11.8,13.6,10.8z"></path><path fill="#00B7A3" d="M14.8,9.2c-0.4-0.2-1.1,0.2-1.6,0.1c-0.5,0-0.8,0.3-1.1,0.2c-0.6-0.1-0.7,0.1-0.7,0.1s-0.1-0.3,0.5-0.2 c0.6,0.1,1-0.2,1.2-0.4C13.3,8.8,14,8.9,14,8.9l-0.3-0.4c-0.2,0-0.6,0-0.8,0.3c-0.2,0.3-0.4,0.4-1,0.3C11.3,9.1,11,9.5,11,9.5 L12,9.8c0,0,0.2,0.1,0.5,0.1s0.5-0.2,0.9-0.2c0.5,0,1-0.2,1.6,0C15,9.7,14.8,9.2,14.8,9.2z"></path></svg>
