<svg xmlns="http://www.w3.org/2000/svg" viewBox="0 0 16 16"><path fill="#F1C8A4" d="M9.3,10.7c-0.5-1-3.8-1.6-3.8-1.6s-3.3,0.6-3.8,1.6C1.3,12,1,13.7,1,13.7h9C10,13.7,9.8,11.9,9.3,10.7z"></path><path fill="#E3B590" d="M5.5,9.1c0,0,3.3,0.6,3.8,1.6c0.5,1.2,0.7,3,0.7,3H5.5V9.1z"></path><path fill="#F1C8A4" d="M4.6,7.1h1.8v3H4.6V7.1z"></path><path fill="#E3B590" d="M5.5,7.1h0.9v3H5.5V7.1z"></path><path opacity="0.1" fill="#DCAB8B" enable-background="new" d="M4.6,8.5C4.7,9,5.4,9.2,5.9,9.2c0.2,0,0.3,0,0.5-0.1v-2H4.6 C4.6,7.1,4.6,8.5,4.6,8.5z"></path><path fill="#F1C8A4" d="M7.8,5.2c0-1.9-1-2.9-2.3-2.9S3.2,3.4,3.2,5.2c0,2.5,1,3.4,2.3,3.4S7.8,7.7,7.8,5.2z"></path><path fill="#E3B590" d="M7.5,6.5C6.5,5.8,6.6,5.2,7.7,4.7C8.6,5.4,8.5,6,7.5,6.5C7,6.5,7.9,6.6,7.5,6.5z"></path><path fill="#F1C8A4" d="M2.7,5.7c-0.1-0.5,0.2-1,0.6-1c1.1,0.5,1.2,1.1,0.3,1.9C3.1,6.6,2.7,6.2,2.7,5.7z"></path><path fill="#E3B590" d="M7.8,5.2c0-1.9-1-2.9-2.3-2.9v6.3C6.8,8.6,7.8,7.7,7.8,5.2z"></path><path fill="#4B4A4B" d="M7.6,6.8C7.4,7.1,7.2,7.6,6.8,7.6C6.4,7.6,6,7.2,5.5,7.2S4.6,7.6,4.1,7.6c-0.4,0-0.6-0.4-0.7-0.8L3.3,6.1 v0.8c0,0,0.2,0.9,0.5,1.2C4.1,8.4,5,8.8,5.5,8.8c0.5,0,1.4-0.4,1.6-0.7c0.3-0.2,0.5-1.2,0.5-1.2V6.6l-0.1,0L7.6,6.8z"></path><path fill="#DAD9D8" d="M9.3,10.7c-0.3-0.6-1.5-1-2.5-1.3c0,0.7-0.6,1.2-1.3,1.2s-1.2-0.5-1.3-1.2c-1,0.3-2.2,0.7-2.5,1.3 C1.3,12,1,13.7,1,13.7h9C10,13.7,9.8,11.9,9.3,10.7z"></path><path fill="#01B5A1" d="M1.1,13.2C1,13.5,1,13.7,1,13.7h9c0,0,0-0.2-0.1-0.5H1.1z M1.2,12.7h8.6c0-0.2-0.1-0.3-0.1-0.5H1.3 C1.3,12.4,1.2,12.6,1.2,12.7z M1.4,11.8h8.2c0-0.2-0.1-0.3-0.1-0.5h-8C1.5,11.4,1.5,11.6,1.4,11.8z M5.5,10.6 c-0.3,0-0.6-0.1-0.9-0.3H2.1c-0.2,0.1-0.3,0.3-0.4,0.4c0,0,0,0.1,0,0.1h7.7c0,0,0-0.1,0-0.1c-0.1-0.1-0.2-0.3-0.4-0.4H6.3 C6.1,10.5,5.8,10.6,5.5,10.6z M3,9.8h1.3c0-0.1-0.1-0.2-0.1-0.4C3.8,9.5,3.4,9.6,3,9.8z M6.7,9.8h1.3C7.5,9.6,7.1,9.5,6.8,9.4 C6.8,9.5,6.7,9.7,6.7,9.8z"></path><path fill="#01B5A1" d="M3.8,9.5c0.1,0.8,0.8,1.4,1.6,1.4S7,10.3,7.1,9.5C7,9.5,6.9,9.4,6.8,9.4c0,0.7-0.6,1.2-1.3,1.2 s-1.2-0.5-1.3-1.2C4.1,9.4,4,9.5,3.8,9.5z"></path><path fill="#4B4A4B" d="M3.1,5c0,0,2.3-0.5,3.6-1.5C7,4.3,7.2,5.2,7.8,5.2c0.3-1.6-0.5-2.9-2-2.9S3.1,3,3.1,5z"></path><path fill="#FFF" d="M10.4,10.8c-4,0-4-6.2,0-6.2C14.5,4.6,14.5,10.8,10.4,10.8z"></path><path fill="#176581" d="M14.8,11.3l-1.4-1.4l-0.2,0.2l-0.8-0.8c-0.1,0.1-0.2,0.3-0.4,0.4l0.8,0.8l-0.2,0.2l1.4,1.4 c0.2,0.2,0.5,0.2,0.7,0C15.1,11.8,15.1,11.5,14.8,11.3z"></path><path fill="#176581" d="M10.4,5.1c3.4,0,3.3,5.2,0,5.2C7.1,10.3,7.1,5.1,10.4,5.1z"></path><circle fill="#DAD9D8" cx="10.4" cy="7.7" r="2.1"></circle></svg>
