<svg xmlns="http://www.w3.org/2000/svg" viewBox="0 0 16 16"><path d="M3.2,7.7c0.4,0,1-0.1,1.4-0.5C4.7,7,4.7,7,4.7,6.9c0.4,0.8,1.2,1.3,1.8,1.3c0.7,0,1.4-0.5,1.8-1.3 C8.2,7,8.3,7,8.3,7.1c0.3,0.4,0.8,0.5,1.4,0.5c0.4,0,1.1-0.1,1.1-0.3c0,0,0-0.1-0.1-0.1h-0.3C10.1,7.3,10,7,9.7,6.5h0.1 c0.3,0,0.5-0.1,0.7-0.1s0.3-0.1,0.3-0.4c0-0.1-0.1-0.1-0.3-0.1c-0.4,0-1-1.4-1.2-2.6V3.1C9,1.9,7.9,1,6.6,1S4.1,1.9,3.8,3.1v0.1 C3.6,4.3,3,5.8,2.6,5.8C2.3,5.7,2.2,5.8,2.2,6c0,0.1,0.5,0.5,1,0.5h0.1C3,6.9,2.8,7.3,2.6,7.3H2.5c0,0-0.3,0-0.3,0.1 C2.1,7.5,2.9,7.7,3.2,7.7z M1.3,15h10.3c0.1-0.4,0.3-0.8,0.3-1c0.4-2.2-0.3-3.4-0.8-4.1c-0.5-0.7-1.4-1-2-1H8.6l-2.2,5l-2-5H4.1 c-0.8,0-1.5,0.4-2.2,0.9c-0.5,0.7-1.2,1.8-0.8,4.1C1.1,14.3,1.3,14.6,1.3,15z"></path><path fill="#FFFFFF" stroke="#FFFFFF" stroke-width="0.659" stroke-miterlimit="10" d="M14,12c-0.2,0-0.5-0.1-0.6-0.3L11,9.2L11.2,9 c0.4-0.2,0.7-0.5,0.8-0.9l0.2-0.3l2.4,2.5c0.2,0.2,0.3,0.4,0.3,0.6s-0.1,0.5-0.3,0.6l-0.2,0.2C14.4,11.9,14.2,12,14,12z"></path><path d="M14.9,10.9l-2.3-2.3c-0.2,0.4-0.6,0.8-1,1l2.3,2.3c0.2,0.2,0.6,0.2,0.8,0l0.2-0.2C15,11.5,15,11.2,14.9,10.9 z"></path><path fill="#FFFFFF" stroke="#FFFFFF" stroke-width="0.659" stroke-miterlimit="10" d="M9.9,9.9C8.4,9.9,7,8.6,7,7s1.3-3,2.9-3 s2.9,1.3,2.9,3C12.9,8.5,11.5,9.9,9.9,9.9z"></path><path d="M12.5,7c0-1.5-1.2-2.6-2.6-2.6S7.4,5.5,7.4,7S8.6,9.6,10,9.6C11.4,9.5,12.5,8.4,12.5,7z M9.9,8.9 C8.9,8.9,8,8,8,7s0.9-2,2-2s2,0.9,2,2S11,8.9,9.9,8.9z"></path></svg>
