<svg xmlns="http://www.w3.org/2000/svg" viewBox="0 0 44 44"><path fill="#FFFFFF" d="M36.1,21.7c0,9.7-7.8,17.5-17.5,17.5c-9.7,0-17.5-7.8-17.5-17.5C1.1,12,8.9,4.2,18.6,4.2 C28.2,4.2,36.1,12,36.1,21.7"></path><path fill="#E8E8E8" d="M18.6,39.7c-9.9,0-18-8.1-18-18c0-9.9,8.1-18,18-18s18,8.1,18,18C36.6,31.6,28.5,39.7,18.6,39.7z M18.6,4.7 c-9.4,0-17,7.6-17,17s7.6,17,17,17c9.4,0,17-7.6,17-17S27.9,4.7,18.6,4.7z"></path><path fill="#A5A5A5" d="M18.6,9.3c3.4,0,6.1,2.8,6.1,6.2c0,3.4-2.7,6.2-6.1,6.2c-3.4,0-6.1-2.8-6.1-6.2C12.4,12,15.2,9.3,18.6,9.3"></path><path fill="#D1D1D1" d="M25.8,26.7c-1-1.8-7.2-3-7.2-3s-6.2,1.1-7.2,3c-0.7,2.5-1.3,5.8-1.3,5.8h8.5h8.5 C27.1,32.4,26.7,29,25.8,26.7"></path><path fill="#C0C0C0" d="M18.6,23.7c0,0,6.2,1.1,7.2,3c0.9,2.3,1.3,5.8,1.3,5.8h-8.5V23.7z"></path><path fill="#D1D1D1" d="M22.9,16.4c0-3.5-1.9-5.5-4.3-5.5s-4.3,2-4.3,5.5c0,3.5,1.9,6.4,4.3,6.4S22.9,19.9,22.9,16.4"></path><path fill="#C0C0C0" d="M22.3,18.8c-0.8-0.1-1.3-1-1.2-2c0.1-1,0.9-1.8,1.7-1.7c0.8,0.1,1.3,1,1.2,2C23.8,18.2,23,18.9,22.3,18.8"></path><path fill="#D1D1D1" d="M13.3,17.1c-0.1-1,0.4-1.9,1.2-2c0.8-0.1,1.5,0.7,1.7,1.7c0.1,1-0.4,1.9-1.2,2 C14.1,18.9,13.4,18.2,13.3,17.1"></path><path fill="#C0C0C0" d="M22.9,16.4c0-3.5-1.9-5.5-4.3-5.5v11.9C21,22.8,22.9,19.9,22.9,16.4"></path><path fill="#DADADA" d="M25.8,26.7c-0.3-0.6-1.2-1.1-2.3-1.6c-0.5,2.2-2.5,3.8-4.9,3.8c-2.4,0-4.3-1.6-4.9-3.8c-1.1,0.4-2,1-2.3,1.6 c-0.7,2.5-1.3,5.8-1.3,5.8h8.5h8.5C27.1,32.4,26.7,29,25.8,26.7"></path><path fill="#A5A5A5" d="M18.6,10.2c0,0-5.9,0.4-4.8,5.6c0,0,5.6-1,6.5-3.2c0.9,2.2,3.2,3.2,3.2,3.2C24.5,10.7,18.6,10.2,18.6,10.2"></path><path fill="#A5A5A5" d="M13.8,18.6c0,0-2.1,0.3-3.6,3.1c0.8,0.2,1.2,0.4,2,0.4c0.3,0.8,1.2,1.1,1.2,1.1s1.5-1.4,1.2-3.5"></path><path fill="#A5A5A5" d="M23.4,18.6c0,0,2.1,0.3,3.6,3.1c-0.8,0.2-1.2,0.4-2,0.4c-0.3,0.8-1.2,1.1-1.2,1.1s-1.5-1.4-1.2-3.5"></path><path fill="#FFFFFF" d="M43.9,10.8c0,5.5-4.5,10-10,10c-5.5,0-10-4.5-10-10c0-5.5,4.5-10,10-10C39.5,0.8,43.9,5.3,43.9,10.8"></path><path fill="#E8E8E8" d="M33.9,21.3c-5.8,0-10.5-4.7-10.5-10.5S28.2,0.3,33.9,0.3s10.5,4.7,10.5,10.5S39.7,21.3,33.9,21.3z M33.9,1.3 c-5.2,0-9.5,4.3-9.5,9.5s4.3,9.5,9.5,9.5s9.5-4.3,9.5-9.5S39.2,1.3,33.9,1.3z"></path><path fill="#D3D3D3" d="M33,13.4c0-0.4,0-0.7,0.1-1c0-0.3,0.1-0.5,0.2-0.7c0.1-0.2,0.2-0.4,0.4-0.6c0.2-0.2,0.4-0.4,0.6-0.7 c0.2-0.2,0.3-0.4,0.5-0.5c0.2-0.2,0.3-0.3,0.4-0.5c0.1-0.2,0.2-0.4,0.3-0.6s0.1-0.4,0.1-0.7c0-0.5-0.1-1-0.4-1.3 c-0.3-0.3-0.7-0.5-1.2-0.5c-0.2,0-0.4,0-0.7,0.1c-0.2,0.1-0.4,0.2-0.6,0.3c-0.2,0.1-0.3,0.3-0.4,0.5c-0.1,0.2-0.1,0.4-0.1,0.7 h-1.4c0-0.4,0.1-0.8,0.3-1.2c0.2-0.3,0.4-0.6,0.7-0.9c0.3-0.2,0.6-0.4,1-0.5c0.4-0.1,0.8-0.2,1.2-0.2c0.5,0,0.9,0.1,1.3,0.2 s0.7,0.3,1,0.6c0.3,0.3,0.5,0.6,0.6,0.9s0.2,0.8,0.2,1.2c0,0.4-0.1,0.7-0.2,1c-0.1,0.3-0.3,0.6-0.4,0.9c-0.2,0.3-0.4,0.5-0.6,0.8 c-0.2,0.2-0.5,0.5-0.7,0.7c-0.3,0.3-0.5,0.6-0.6,0.9c-0.1,0.3-0.1,0.7-0.1,1.1H33z M32.9,15.8c0-0.2,0.1-0.4,0.2-0.6 s0.4-0.2,0.6-0.2s0.5,0.1,0.6,0.2c0.1,0.2,0.2,0.4,0.2,0.6c0,0.2-0.1,0.4-0.2,0.6c-0.1,0.2-0.4,0.2-0.6,0.2s-0.5-0.1-0.6-0.2 S32.9,16.1,32.9,15.8z"></path><circle fill="#F9F9F9" cx="18.6" cy="21.7" r="17.5"></circle><rect x="16.9" y="20" fill="#D1D1D1" width="3.4" height="5.7"></rect><rect x="18.6" y="20" fill="#C0C0C0" width="1.7" height="5.7"></rect></svg>
