<svg xmlns="http://www.w3.org/2000/svg" viewBox="0 0 13 13"><g fill="#5a5a5a"><path d="M8.67801 8.77549c-2.251-.89-2.64-1.266-2.707-1.369v-.266a2.921 2.921 0 00.577-1.089.94.94 0 00.159-1.208v-.853a1.982 1.982 0 00-3.958 0v.854a.941.941 0 00.159 1.208 2.911 2.911 0 00.577 1.089v.266c-.074.117-.486.49-2.707 1.368a.555.555 0 00-.344.513v1.044a.545.545 0 00.539.55h7.508a.546.546 0 00.54-.55v-1.044a.554.554 0 00-.343-.513zm-.162 1.557a.041.041 0 01-.033.044h-7.508a.04.04 0 01-.033-.044l.024-1.086c2.492-.986 2.922-1.406 3.016-1.712a.262.262 0 00.01-.073v-.417a.254.254 0 00-.07-.175 2.4 2.4 0 01-.547-1.029.251.251 0 00-.1-.139.425.425 0 01-.169-.285.433.433 0 01.092-.332.253.253 0 00.055-.157v-.935c0-.9.509-1.371 1.473-1.371s1.473.461 1.473 1.371v.934a.25.25 0 00.055.157.432.432 0 01.091.333.421.421 0 01-.168.285.256.256 0 00-.1.139 2.4 2.4 0 01-.547 1.028.254.254 0 00-.07.175v.417a.26.26 0 00.011.074c.094.307.525.728 3.04 1.754l.005 1.044z" /><path d="M12.22901 8.91449a9.746 9.746 0 00-1.674-.428 4.865 4.865 0 01-.877-.211v-.232a2.877 2.877 0 001.624-.445.255.255 0 00.093-.218.252.252 0 00-.129-.2 4.216 4.216 0 01-.546-2.076 2.32 2.32 0 00-1.325-2.11 2.048 2.048 0 00-2.215.232.253.253 0 00.317.394 1.551 1.551 0 011.679-.17 1.827 1.827 0 011.038 1.674 6.092 6.092 0 00.525 2.2 3.572 3.572 0 01-1.315.215.253.253 0 00-.253.253v.546a.239.239 0 00.012.076c.108.343.573.431 1.276.565a8.409 8.409 0 011.6.421l-.018.971h-2.216a.253.253 0 100 .506h2.216a.525.525 0 00.525-.525v-.953a.527.527 0 00-.337-.485z" /></g></svg>
