<svg xmlns="http://www.w3.org/2000/svg" viewBox="0 0 16 16"> x="0" y="0"<path fill="none" d="M0 0h16v16H0z"></path><path transform="rotate(90 8.013 8.023)" fill="none" d="M1.2 1.2h13.6v13.6H1.2z"></path><path d="M11.7 6.9c0-2-1.6-3.7-3.7-3.7-2 0-3.7 1.6-3.7 3.7 0 1 .4 1.9 1.1 2.6 1.4 1.4 1.4 2.6 1.4 2.6v1.2c0 .7.5 1.2 1.2 1.2s1.2-.5 1.2-1.2v-1.2s0-1.2 1.4-2.6c.7-.7 1.1-1.6 1.1-2.6z" fill="#fff"></path><path fill="#5a5a5a" d="M12 6.9c0-2.2-1.8-4-4-4s-4 1.8-4 4C4 8 4.4 9 5.2 9.7c.9.9 1.2 1.8 1.3 2.1-.1 0-.1.1-.1.2s.1.1.1.1v.6c-.1 0-.1.1-.1.2s.1.1.1.1v.1c0 .9.7 1.5 1.5 1.5.7 0 1.2-.4 1.5-1.1.1 0 .2-.1.2-.2s-.1-.1-.1-.2v-.6c.1 0 .2-.1.1-.2 0-.1-.1-.1-.1-.2v-.3s0-.1.1-.3c0 0 .1-.1.1-.2.1-.4.5-1.1 1.2-1.8.6-.5 1-1.5 1-2.6zm-3.1 5.2v.4l-1.8.3v-.6l1.8-.3v.2zm0 1.3l-1.7.2c-.1-.1-.1-.3-.1-.4V13l1.8-.3v.7zm-.9.8c-.2 0-.3-.1-.5-.1l1.2-.2c-.2.2-.4.3-.7.3zm1-2.7l-2 .3c0-.5-.3-1.5-1.4-2.5-.6-.6-1-1.5-1-2.4C4.6 5 6.1 3.5 8 3.5s3.4 1.5 3.4 3.4c0 .9-.3 1.7-1 2.4-.9.8-1.2 1.6-1.4 2.2zM13.3 7.2h-.5c-.2 0-.3-.1-.3-.3s.1-.3.3-.3h.5c.2 0 .3.1.3.3s-.1.3-.3.3zM3.2 7.2h-.5c-.2 0-.3-.1-.3-.3s.1-.3.3-.3h.5c.2 0 .3.1.3.3s-.1.3-.3.3zM8 2.4c-.2 0-.3-.1-.3-.3v-.6c0-.2.1-.3.3-.3.2 0 .3.1.3.3V2c0 .2-.1.4-.3.4zM11.5 3.7c-.1 0-.2 0-.2-.1-.1-.1-.1-.3 0-.4l.4-.4c.1-.1.3-.1.4 0s.1.3 0 .4l-.4.4c-.1.1-.2.1-.2.1zM4.2 11c-.1 0-.2 0-.2-.1-.1-.1-.1-.3 0-.4l.4-.4c.1-.1.3-.1.4 0s.1.3 0 .4l-.4.4c-.1.1-.1.1-.2.1zM11.9 11c-.1 0-.2 0-.2-.1l-.4-.4c-.1-.1-.1-.3 0-.4s.3-.1.4 0l.4.4c.1.1.1.3 0 .4-.1.1-.2.1-.2.1zM4.6 3.8c-.1 0-.2 0-.2-.1l-.5-.4c-.1-.1-.1-.3 0-.4.1-.1.3-.1.4 0l.4.4c.3.1.3.3.1.4 0 .1-.1.1-.2.1z"></path></svg>
