<svg xmlns="http://www.w3.org/2000/svg" viewBox="0 0 16 16" fill="#5a5a5a"><path d="M 7.7,1.7 C 7.8,1.6 7.9,1.5 8,1.5 c 0.1,0 0.2,0.1 0.3,0.2 l 2.5,3.5 c 0.1,0.1 0.1,0.3 0,0.4 0,0.1 -0.1,0.2 -0.3,0.2 l -1.6,0 0,4.6 c 0,0.5 -0.4,0.9 -0.9,0.9 -0.5,0 -0.9,-0.4 -0.9,-0.9 l 0,-4.6 -1.6,0 C 5.3,5.8 5.2,5.7 5.1,5.6 5,5.5 5,5.3 5.1,5.2 L 7.7,1.7 Z m 6.5,6.8 c -0.4,0 -0.8,0.3 -0.8,0.8 l 0,3.7 -10.8,0 0,-3.7 C 2.6,8.9 2.3,8.5 1.8,8.5 1.3,8.5 1,8.9 1,9.3 l 0,4.4 c 0,0.4 0.3,0.8 0.8,0.8 l 12.4,0 c 0.4,0 0.8,-0.3 0.8,-0.8 L 15,9.3 C 15,8.9 14.7,8.5 14.2,8.5 Z"></path></svg>
