<svg xmlns="http://www.w3.org/2000/svg" viewBox="0 0 55 55"><path fill="#F29C1F" d="M44.4,19.1h-1.2c-0.1-1.8-0.9-3.5-2-4.8l0.7-0.7c0.2-0.2,0.2-0.6,0-0.8c-0.2-0.2-0.6-0.2-0.8,0l-0.7,0.7 c-1.3-1.1-3-1.9-4.8-2v-1.2c0-0.3-0.3-0.6-0.6-0.6c-0.3,0-0.6,0.3-0.6,0.6v1.2c-1.8,0.1-3.5,0.9-4.8,2l-0.7-0.7 c-0.2-0.2-0.6-0.2-0.8,0s-0.2,0.6,0,0.8l0.7,0.7c-1.1,1.3-1.9,3-2,4.8h-1.2c-0.3,0-0.6,0.3-0.6,0.6s0.3,0.6,0.6,0.6h1.2 c0.1,1.8,0.9,3.5,2,4.8L28,25.7c-0.2,0.2-0.2,0.6,0,0.8c0.1,0.1,0.3,0.2,0.4,0.2c0.2,0,0.3-0.1,0.4-0.2l0.7-0.7 c1.3,1.1,3,1.9,4.8,2v1.2c0,0.3,0.3,0.6,0.6,0.6c0.3,0,0.6-0.3,0.6-0.6v-1.2c1.8-0.1,3.5-0.9,4.8-2l0.7,0.7 c0.1,0.1,0.3,0.2,0.4,0.2c0.2,0,0.3-0.1,0.4-0.2c0.2-0.2,0.2-0.6,0-0.8l-0.7-0.7c1.1-1.3,1.9-3,2-4.8h1.2c0.3,0,0.6-0.3,0.6-0.6 S44.7,19.1,44.4,19.1z M34.9,26.7c-3.9,0-7.1-3.2-7.1-7.1s3.2-7.1,7.1-7.1s7.1,3.2,7.1,7.1S38.8,26.7,34.9,26.7z"></path><path fill="#F29C1F" d="M34.9,17.3c-1.3,0-2.4,1.1-2.4,2.4c0,1.3,1.1,2.4,2.4,2.4c1.3,0,2.4-1.1,2.4-2.4 C37.3,18.4,36.2,17.3,34.9,17.3z M34.9,20.9c-0.6,0-1.2-0.5-1.2-1.2c0-0.6,0.5-1.2,1.2-1.2c0.6,0,1.2,0.5,1.2,1.2 C36.1,20.3,35.6,20.9,34.9,20.9z"></path><path fill="#535D73" d="M31.6,38l-0.9-0.4c0.4-1.2,0.7-2.4,0.7-3.8c0-1.1-0.2-2.3-0.5-3.3l0.7-0.3c0.3-0.1,0.5-0.5,0.3-0.8 c-0.1-0.3-0.5-0.5-0.8-0.3l-0.7,0.3c-1-2.2-2.7-4-4.8-5l0.4-0.9c0.1-0.3,0-0.6-0.3-0.8c-0.3-0.1-0.6,0-0.8,0.3l-0.4,0.9 c-1.2-0.4-2.4-0.7-3.8-0.7c-1.1,0-2.3,0.2-3.3,0.5L17.2,23c-0.1-0.3-0.5-0.5-0.8-0.3c-0.3,0.1-0.5,0.5-0.3,0.8l0.3,0.7 c-2.2,1-4,2.7-5,4.8l-0.9-0.4c-0.3-0.1-0.6,0-0.8,0.3c-0.1,0.3,0,0.6,0.3,0.8l0.9,0.4c-0.4,1.2-0.7,2.4-0.7,3.8 c0,1.1,0.2,2.3,0.5,3.3L10,37.4c-0.3,0.1-0.5,0.5-0.3,0.8c0.1,0.2,0.3,0.4,0.5,0.4c0.1,0,0.1,0,0.2,0l0.7-0.3c1,2.2,2.7,4,4.8,5 l-0.4,0.9c-0.1,0.3,0,0.6,0.3,0.8c0.1,0,0.2,0.1,0.2,0.1c0.2,0,0.4-0.1,0.5-0.3l0.4-0.9c1.2,0.4,2.4,0.7,3.8,0.7 c1.1,0,2.3-0.2,3.3-0.5l0.3,0.7c0.1,0.2,0.3,0.4,0.5,0.4c0.1,0,0.1,0,0.2,0c0.3-0.1,0.5-0.5,0.3-0.8l-0.3-0.7c2.2-1,4-2.7,5-4.8 l0.9,0.4c0.1,0,0.2,0.1,0.2,0.1c0.2,0,0.4-0.1,0.5-0.3C32.1,38.5,31.9,38.1,31.6,38z M20.8,24.4c1.2,0,2.3,0.2,3.3,0.6l-2.9,6.5 c-0.1,0-0.3,0-0.4,0c-1.3,0-2.4,1.1-2.4,2.4c0,0.1,0,0.2,0,0.3l-6.7,2.6c-0.3-0.9-0.4-1.9-0.4-2.9C11.4,28.6,15.6,24.4,20.8,24.4z M19.7,34.2L19.7,34.2C19.7,34.2,19.7,34.2,19.7,34.2c-0.1-0.1-0.1-0.3-0.1-0.4c0-0.6,0.5-1.2,1.2-1.2c0.2,0,0.3,0,0.5,0.1 c0,0,0,0,0,0c0,0,0,0,0,0c0.4,0.2,0.7,0.6,0.7,1.1c0,0.6-0.5,1.2-1.2,1.2C20.3,35,19.9,34.7,19.7,34.2z M12.3,37.8l6.6-2.6 c0.4,0.6,1.1,1,1.9,1c0.1,0,0.2,0,0.3,0l2.6,6.7c-0.9,0.3-1.9,0.4-2.9,0.4C17,43.2,13.7,41,12.3,37.8z M24.8,42.4l-2.6-6.6 c0.6-0.4,1-1.1,1-1.9c0-0.7-0.4-1.4-0.9-1.8l2.9-6.5c3,1.6,5.1,4.7,5.1,8.4C30.2,37.6,28,40.9,24.8,42.4z"></path></svg>
