<svg xmlns="http://www.w3.org/2000/svg" viewBox="0 0 11 11"><path d="M216.023,321.417a.367.367,0,0,0-.132-.047.971.971,0,0,0-.157-.012h-.367V322h.367a.971.971,0,0,0,.157-.012.365.365,0,0,0,.132-.046.253.253,0,0,0,.092-.1.413.413,0,0,0,0-.331A.256.256,0,0,0,216.023,321.417Z" transform="translate(-206.495 -315.083)"/><path d="M202.369,315.312h-5.424a.479.479,0,0,0-.478.479v3.163a.478.478,0,0,0,.478.479h5.424a.479.479,0,0,0,.479-.479v-3.163A.479.479,0,0,0,202.369,315.312Zm-3.231,3.159h-1.811V318.1l1.153-1.378h-1.062v-.4h1.691v.373l-1.153,1.378h1.183Zm.749,0h-.472v-2.149h.472Zm2.087-1.2a.6.6,0,0,1-.129.219.64.64,0,0,1-.23.155.9.9,0,0,1-.343.059h-.5v.77H200.3v-2.149h.969a.891.891,0,0,1,.343.059.636.636,0,0,1,.23.155.6.6,0,0,1,.129.221.823.823,0,0,1,0,.51Z" transform="translate(-191.903 -310.415)"/><path d="M184.112,304.282a.367.367,0,0,1-.367.367h-6.017a.367.367,0,0,1-.367-.367v-8.475a.367.367,0,0,1,.367-.367h1.107l.1.888h-.7a.114.114,0,1,0,0,.228h.727l.078.666h-.611a.114.114,0,1,0,0,.228h.638l.078.666h-.51a.114.114,0,1,0,0,.228h.537l.079.675h-.443a.114.114,0,0,0,0,.228h.47l.2,1.667.186-1.667h.481a.114.114,0,0,0,0-.228h-.456l.075-.675h.578a.114.114,0,1,0,0-.228h-.552l.074-.666h.7a.114.114,0,1,0,0-.228h-.677l.074-.666h.771a.114.114,0,0,0,0-.228h-.745l.1-.888h1.585v2.375a.162.162,0,0,0,.162.161h2.258l.017.019v1.218h.684v-1.352a.342.342,0,0,0-.091-.232l-2.552-2.763a.342.342,0,0,0-.251-.11h-4.173a1.052,1.052,0,0,0-1.05,1.051v8.475a1.052,1.052,0,0,0,1.05,1.05h6.017a1.052,1.052,0,0,0,1.051-1.05v-.493h-.684ZM182,295.708l1.8,1.946H182Z" transform="translate(-176.624 -294.545)"/></svg>
