<svg xmlns="http://www.w3.org/2000/svg" viewBox="0 0 16 16"><path opacity=".5" fill="#DAE2E6" d="M2.1 15c-.6 0-1-.5-1-1V2.1c0-.6.5-1 1-1H14c.6 0 1 .5 1 1V14c0 .6-.5 1-1 1H2.1z"/><path opacity=".5" fill="#DAE2E6" d="M13.9 1.6c.3 0 .5.2.5.5V14c0 .3-.2.5-.5.5H2.1c-.3 0-.5-.2-.5-.5V2.1c0-.3.2-.5.5-.5h11.8m0-1.1H2.1C1.2.5.5 1.2.5 2.1V14c0 .9.7 1.6 1.6 1.6H14c.9 0 1.6-.7 1.6-1.6V2.1c-.1-.9-.8-1.6-1.7-1.6z"/><path opacity=".8" fill="#AAAFB3" d="M11.2 8.6H5c-.3 0-.5-.2-.5-.5V8c0-.3.2-.5.5-.5h6.1c.3 0 .5.2.5.5v.2c0 .2-.2.4-.4.4z"/></svg>