<svg xmlns="http://www.w3.org/2000/svg" viewBox="0 0 16 16"><path fill="#231f20" d="M4.6 4.3h10.1c.2 0 .3-.2.3-.3 0-.2-.2-.3-.3-.3H4.6c-.2 0-.3.2-.3.3 0 .1.1.3.3.3zm10.1 3.4H4.6c-.2 0-.3.1-.3.3 0 .2.2.3.3.3h10.1c.2 0 .3-.1.3-.3 0-.2-.1-.3-.3-.3zm0 4H4.6c-.2 0-.3.2-.3.3 0 .2.2.3.3.3h10.1c.2 0 .3-.2.3-.3 0-.1-.1-.3-.3-.3zM1.9 3c-.5 0-.9.4-.9.9s.4.9.9.9.9-.4.9-.9-.4-.9-.9-.9zm0 1.2c-.1 0-.2-.1-.2-.2s.1-.2.2-.2.2.1.2.2-.1.2-.2.2zm0 2.9c-.5 0-.9.4-.9.9s.4.9.9.9.9-.4.9-.9-.4-.9-.9-.9zm0 1.1c-.2 0-.3-.1-.3-.2s.1-.2.2-.2.3.1.3.2-.1.2-.2.2zm0 2.9c-.5 0-.9.4-.9.9 0 .6.4 1 .9 1s.9-.4.9-.9c0-.6-.4-1-.9-1zm0 1.2c-.1 0-.2-.1-.2-.2s.1-.2.2-.2.2.1.2.2-.1.2-.2.2z"/></svg>