<?xml version="1.0" encoding="utf-8"?>
<!-- Generator: Adobe Illustrator 23.0.4, SVG Export Plug-In . SVG Version: 6.00 Build 0)  -->
<svg version="1.1" id="Layer_1" xmlns="http://www.w3.org/2000/svg" xmlns:xlink="http://www.w3.org/1999/xlink" x="0px" y="0px"
	 viewBox="0 0 16 16" style="enable-background:new 0 0 16 16;" xml:space="preserve">
<style type="text/css">
	.st0{display:none;}
	.st1{display:inline;}
	.st2{fill:#6D6E71;}
	.st3{fill:none;}
	.st4{fill:#5A5A5A;}
</style>
<title>Artboard 24 copy 2</title>
<g id="_12px_Guide" class="st0">
	<g id="Cross-3" class="st1">
		<path class="st2" d="M14.5,1.9h-13C1.2,1.9,1,2.1,1,2.3l0,0v11.2C1,13.8,1.2,14,1.5,14l0,0h13c0.3,0,0.5-0.2,0.5-0.5V2.4
			C15,2.1,14.8,1.9,14.5,1.9z M2,13.1V3.7h12v9.4L2,13.1z"/>
		<path class="st2" d="M3.1,5H13c0.2,0,0.3,0.1,0.3,0.3v1.1c0,0.2-0.1,0.3-0.3,0.3H3.1c-0.2,0-0.3-0.1-0.3-0.3V5.3
			C2.8,5.1,2.9,5,3.1,5z"/>
		<path class="st2" d="M7.3,7.4H3c-0.2,0-0.3,0.1-0.3,0.3v3.9c0,0.2,0.1,0.3,0.3,0.3l0,0h4.3c0.2,0,0.3-0.1,0.3-0.3l0,0V7.7
			C7.6,7.6,7.5,7.4,7.3,7.4z M7,11.3H3.3V8H7V11.3z"/>
		<path class="st2" d="M12.9,7.4H8.7c-0.2,0-0.3,0.1-0.3,0.3v3.9c0,0.2,0.1,0.3,0.3,0.3l0,0h4.2c0.2,0,0.3-0.1,0.3-0.3l0,0V7.7
			C13.2,7.6,13.1,7.4,12.9,7.4z M12.6,11.3H9V8h3.7L12.6,11.3z"/>
		<rect y="0" class="st3" width="16" height="16"/>
		<rect x="1" y="1" class="st3" width="14" height="14"/>
	</g>
</g>
<rect class="st3" width="16" height="16"/>
<rect x="1" y="1" transform="matrix(-1.836970e-16 1 -1 -1.836970e-16 16 -9.077183e-13)" class="st3" width="14" height="14"/>
<g id="Group_26_7_" transform="translate(3870.035 4816.713)">
	<g id="Group_25_7_" transform="translate(-3794.636 -4661.597)">
		<path id="Path_1_7_" class="st4" d="M-61.3-143.7h-12.3c-0.5,0.1-0.9,0.6-0.8,1.1c-0.1,0.5,0.3,1,0.8,1.1h12.3
			c0.5-0.1,0.9-0.6,0.8-1.1C-60.3-143.2-60.7-143.6-61.3-143.7z"/>
		<path id="Path_2_7_" class="st4" d="M-61.3-148.2h-12.3c-0.5,0.1-0.9,0.6-0.8,1.1c-0.1,0.5,0.3,1,0.8,1.1h12.3
			c0.5-0.1,0.9-0.6,0.8-1.1C-60.3-147.6-60.7-148.1-61.3-148.2z"/>
		<path id="Path_3_7_" class="st4" d="M-73.5-150.5h12.3c0.5-0.1,0.9-0.6,0.8-1.1c0.1-0.5-0.3-1-0.8-1.1h-12.3
			c-0.5,0.1-0.9,0.6-0.8,1.1C-74.4-151.1-74.1-150.6-73.5-150.5z"/>
	</g>
</g>
</svg>
