<svg xmlns="http://www.w3.org/2000/svg" viewBox="0 0 16 16"><g fill="#505359"><path d="m13.436 4.813-3.4-3.7c-.1-.1-.2-.1-.3-.1h-5.5c-.8 0-1.4.6-1.4 1.4v11.2c0 .8.6 1.4 1.4 1.4h8c.8 0 1.4-.6 1.4-1.4v-8.5c-.1-.1-.2-.2-.2-.3zm-1.2 0h-2.3v-2.5l2.3 2.5zm.4 8.8c0 .3-.2.5-.5.5h-8c-.3 0-.5-.2-.5-.5v-11.2c0-.3.2-.5.5-.5h5.3v3.1c0 .1.1.2.2.2h2.9l.1 8.4z"/><path d="M10.736 11.313h-5.3c-.1 0-.2.1-.2.2s.1.2.2.2h5.3c.1 0 .2-.1.2-.2 0-.2-.1-.2-.2-.2zm0-2.3h-5.3c-.1 0-.2.1-.2.2s.1.2.2.2h5.3c.1 0 .2-.1.2-.2s-.1-.2-.2-.2zm0-2.4h-5.3c-.1 0-.2.1-.2.2s.1.2.2.2h5.3c.1 0 .2-.1.2-.2s-.1-.2-.2-.2z"/></g><path fill="none" d="M0 0h16v16H0z"/><path fill="none" d="M15 1v14H1V1z"/></svg>