<?xml version="1.0" encoding="utf-8"?>
<!-- Generator: Adobe Illustrator 23.0.4, SVG Export Plug-In . SVG Version: 6.00 Build 0)  -->
<svg version="1.1" id="Layer_1" xmlns="http://www.w3.org/2000/svg" xmlns:xlink="http://www.w3.org/1999/xlink" x="0px" y="0px"
	 viewBox="0 0 16 16" style="enable-background:new 0 0 16 16;" xml:space="preserve">
<style type="text/css">
	.st0{display:none;}
	.st1{display:inline;}
	.st2{fill:#6D6E71;}
	.st3{fill:none;}
	.st4{fill:#5A5A5A;}
</style>
<title>Artboard 24 copy 2</title>
<g id="_12px_Guide" class="st0">
	<g id="Cross-3" class="st1">
		<path class="st2" d="M14.5,1.9h-13C1.2,1.9,1,2.1,1,2.3l0,0v11.2C1,13.8,1.2,14,1.5,14l0,0h13c0.3,0,0.5-0.2,0.5-0.5V2.4
			C15,2.1,14.8,1.9,14.5,1.9z M2,13.1V3.7h12v9.4L2,13.1z"/>
		<path class="st2" d="M3.1,5H13c0.2,0,0.3,0.1,0.3,0.3v1.1c0,0.2-0.1,0.3-0.3,0.3H3.1c-0.2,0-0.3-0.1-0.3-0.3V5.3
			C2.8,5.1,2.9,5,3.1,5z"/>
		<path class="st2" d="M7.3,7.4H3c-0.2,0-0.3,0.1-0.3,0.3v3.9c0,0.2,0.1,0.3,0.3,0.3l0,0h4.3c0.2,0,0.3-0.1,0.3-0.3l0,0V7.7
			C7.6,7.6,7.5,7.4,7.3,7.4z M7,11.3H3.3V8H7V11.3z"/>
		<path class="st2" d="M12.9,7.4H8.7c-0.2,0-0.3,0.1-0.3,0.3v3.9c0,0.2,0.1,0.3,0.3,0.3l0,0h4.2c0.2,0,0.3-0.1,0.3-0.3l0,0V7.7
			C13.2,7.6,13.1,7.4,12.9,7.4z M12.6,11.3H9V8h3.7L12.6,11.3z"/>
		<rect y="0" class="st3" width="16" height="16"/>
		<rect x="1" y="1" class="st3" width="14" height="14"/>
	</g>
</g>
<g id="Group_28_21_" transform="translate(3872.636 4818.713)">
	<g id="Group_27_21_">
		<path id="Path_4_21_" class="st4" d="M-3859.2-4813.9l-3.4-3.7c-0.1-0.1-0.2-0.1-0.3-0.1h-5.5c-0.8,0-1.4,0.6-1.4,1.4v11.2
			c0,0.8,0.6,1.4,1.4,1.4h8c0.8,0,1.4-0.6,1.4-1.4v-8.5C-3859.1-4813.7-3859.2-4813.8-3859.2-4813.9z M-3860.4-4813.9h-2.3v-2.5
			L-3860.4-4813.9z M-3860-4805.1c0,0.3-0.2,0.5-0.5,0.5h-8c-0.3,0-0.5-0.2-0.5-0.5v-11.2c0-0.3,0.2-0.5,0.5-0.5h5.3v3.1
			c0,0.1,0.1,0.2,0.2,0.2h2.9l0,0L-3860-4805.1z"/>
		<path id="Path_5_21_" class="st4" d="M-3861.9-4807.4h-5.3c-0.1,0-0.2,0.1-0.2,0.2c0,0.1,0.1,0.2,0.2,0.2h5.3
			c0.1,0,0.2-0.1,0.2-0.2C-3861.7-4807.4-3861.8-4807.4-3861.9-4807.4z"/>
		<path id="Path_6_21_" class="st4" d="M-3861.9-4809.7h-5.3c-0.1,0-0.2,0.1-0.2,0.2c0,0.1,0.1,0.2,0.2,0.2h5.3
			c0.1,0,0.2-0.1,0.2-0.2S-3861.8-4809.7-3861.9-4809.7z"/>
		<path id="Path_7_21_" class="st4" d="M-3861.9-4812.1h-5.3c-0.1,0-0.2,0.1-0.2,0.2c0,0.1,0.1,0.2,0.2,0.2h5.3
			c0.1,0,0.2-0.1,0.2-0.2c0,0,0,0,0,0C-3861.7-4812-3861.8-4812.1-3861.9-4812.1z"/>
	</g>
</g>
<rect y="0" class="st3" width="16" height="16"/>
<rect x="1" y="1" transform="matrix(-1.836970e-16 1 -1 -1.836970e-16 16.0002 1.862516e-04)" class="st3" width="14" height="14"/>
</svg>
