<svg xmlns="http://www.w3.org/2000/svg" viewBox="0 0 16 16"><path d="M1.8 4.7v2c0 .3.2.5.5.5s.5-.2.5-.5V4.1c0-.2-.1-.3-.2-.4-.2-.1-.3-.1-.5-.1l-.6.3c-.2.1-.3.3-.3.6.1.2.4.3.6.2zm1.4 7.2h-.6l.4-.4c.5-.4.7-1 .5-1.5-.1-.4-.5-.7-1-.8-.5 0-1 .3-1.4.8-.1.2-.1.5.1.6.2.1.5.1.6-.1.1-.2.3-.3.5-.3.1 0 .2.1.2.2s-.1.3-.3.5L1.1 12c-.1.2-.2.4-.1.5.1.2.2.3.4.3h1.7c.3 0 .5-.2.5-.5 0-.2-.2-.4-.4-.4zm2.2-7.2h9.3c.2 0 .3-.1.3-.3s-.1-.3-.3-.3H5.4c-.2 0-.3.1-.3.3s.1.3.3.3zm9.3 3.1H5.4c-.2 0-.3.2-.3.4s.1.3.3.3h9.3c.2 0 .3-.1.3-.3s-.1-.4-.3-.4zm0 3.8H5.4c-.2 0-.3.1-.3.3s.1.3.3.3h9.3c.2 0 .3-.1.3-.3s-.1-.3-.3-.3z"/></svg>