<svg version="1.1" xmlns="http://www.w3.org/2000/svg">
  <symbol id="checklist-incomplete" viewBox="0 0 16 16"><path d="M3.1 2.3c0-.4.3-.8.8-.8h5.7l3.2 2.8v9.4c0 .4-.3.8-.8.8H3.9c-.4 0-.8-.3-.8-.8V2.3z"/><path fill="#fff" d="M9.6 1.5v2c0 .4.3.8.8.8h2.4L9.6 1.5zm-4 8.5l-.8-.7V9c.1-.1.2-.1.3 0l.4.5.9-1.1c.1-.1.2-.1.3 0 .1.1.1.2 0 .3.1 0-1.1 1.3-1.1 1.3zm0 2.6l-.7-.7c-.1-.1-.1-.2 0-.3.1-.1.2-.1.3 0l.4.5.9-1.1c.1-.1.2-.1.3 0 .1.1.1.2 0 .3l-1.2 1.3zM6 6.5l.6-.5c.1-.1.1-.2 0-.3-.1-.1-.2-.1-.2 0l-.6.5-.6-.6h-.3c-.1.1-.1.3 0 .4l.6.6-.6.5c-.1.1-.1.2 0 .2.1.1.2.1.3 0l.6-.6.6.6s.1.1.2.1.1 0 .2-.1 0-.2 0-.3c-.1.1-.8-.5-.8-.5zm4.9-.3h-3c-.1 0-.2-.1-.2-.2s.1-.2.2-.2H11c.1 0 .2.1.2.2-.1.1-.2.2-.3.2zm-1.3 1H7.8c-.1 0-.1-.1-.1-.2v-.1c0-.1.1-.1.1-.1h1.8c.1 0 .1.1.1.1V7c.1.1 0 .2-.1.2zm1.3 1.6h-3c-.1 0-.2-.1-.2-.2s.1-.2.2-.2H11c.1 0 .2.1.2.2-.1.1-.2.2-.3.2zm-1.3 1H7.8c-.1 0-.1-.1-.1-.1v-.2c0-.1.1-.1.1-.1h1.8c.1 0 .1.1.1.1v.1c.1.1 0 .2-.1.2zm1.3 1.6h-3c-.1 0-.2-.1-.2-.2s.1-.2.2-.2H11c.1 0 .2.1.2.2-.1.1-.2.2-.3.2zm-1.3 1H7.8c-.1 0-.1-.1-.1-.1v-.1c0-.1.1-.1.1-.1h1.8c.1 0 .1.1.1.1v.1c.1 0 0 .1-.1.1z"/></symbol>
  <symbol id="search" viewBox="0 0 16 16"><path d="M14.8 12.8l-3.5-3.5c.9-1.6 1.1-3.6 0-5.6C10.5 2 8.7 1 6.8 1 4.1 1 1.7 2.8 1.1 5.4c-.7 3.6 2 6.7 5.4 6.7 1 0 2-.3 2.8-.8l3.4 3.4.1.1c.3.3.7.3.9 0l1.1-1.1c.3-.2.3-.7 0-.9zm-8.3-2.1c-2.9 0-5-2.9-3.7-5.9.6-1.5 2.2-2.4 3.7-2.4 1.1 0 2.1.4 2.9 1.2.8.8 1.2 1.8 1.2 2.9 0 1.1-.4 2.1-1.2 2.9-.7.9-1.8 1.3-2.9 1.3z"/></symbol>
  <symbol id="cancel" viewBox="0 0 16 16"><path d="M4.1 4.1c-2.2 2.2-2.2 5.7 0 7.9s5.7 2.2 7.9 0 2.2-5.7 0-7.9-5.9-2.3-7.9 0zm5.2 3.8l2.1 2.1-1.4 1.4-2-2.1-2.1 2.1L4.5 10l2.1-2.1-2.1-2.1 1.4-1.4L8 6.6l2.1-2.1 1.4 1.4-2.2 2z"/></symbol>
  <symbol id="list" viewBox="0 0 16 16"><path d="M14.4 13H5.6c-.3 0-.6.2-.6.5s.3.5.6.5h8.8c.3 0 .6-.2.6-.5s-.3-.5-.6-.5zm0-5H5.6c-.3 0-.6.2-.6.5s.3.5.6.5h8.8c.3 0 .6-.2.6-.5s-.3-.5-.6-.5zM5.6 4h8.8c.3 0 .6-.2.6-.5s-.3-.5-.6-.5H5.6c-.3 0-.6.2-.6.5s.3.5.6.5zM3.2 2H1.6c-.3 0-.6.3-.6.6v1.6c0 .4.3.6.6.6h1.6c.3 0 .6-.3.6-.6V2.6c0-.3-.3-.6-.6-.6zm0 5H1.6c-.3 0-.6.3-.6.6v1.6c0 .4.3.6.6.6h1.6c.3 0 .6-.3.6-.6V7.6c0-.3-.3-.6-.6-.6zm0 5H1.6c-.3 0-.6.3-.6.6v1.6c0 .4.3.6.6.6h1.6c.3 0 .6-.3.6-.6v-1.6c0-.3-.3-.6-.6-.6z" fill="#5A5A5A"/></symbol>
  <symbol id="calendar" viewBox="0 0 50 50"><path d="M40.5 4h-3.7v3.3c0 1.3-1 2.3-2.3 2.3-1.3 0-2.3-1-2.3-2.3V4H17.8v3.3c0 1.3-1 2.3-2.3 2.3s-2.3-1-2.3-2.3V4H9.5C7 4 5 6 5 8.5v35.9c0 2.5 2 4.4 4.5 4.4h31c2.5 0 4.5-2 4.5-4.4V8.5C45 6 43 4 40.5 4zm1.6 40.3c0 .9-.7 1.6-1.6 1.6h-31c-.9 0-1.6-.7-1.6-1.6V15.1H42v29.2z" fill="#838383"/><path d="M15.5 8.2c.5 0 .9-.4.9-.8V2c0-.5-.4-.8-.9-.8s-.9.4-.9.8v5.3c.1.5.4.9.9.9zm19 0c.5 0 .9-.4.9-.8V2c0-.5-.4-.8-.9-.8s-.9.4-.9.8v5.3c0 .5.4.9.9.9zM37 20h3v3h-3zm-4.5 0h3v3h-3zM28 20h3v3h-3zm-4.5 0h3v3h-3zM19 20h3v3h-3zm18 6h3v3h-3zm-4.5 0h3v3h-3zM28 26h3v3h-3zm-4.5 0h3v3h-3zM19 26h3v3h-3zm-4.5 0h3v3h-3zM10 26h3v3h-3zm27 6h3v3h-3zm-4.5 0h3v3h-3zM28 32h3v3h-3zm-4.5 0h3v3h-3zM19 32h3v3h-3zm-4.5 0h3v3h-3zM10 32h3v3h-3zm18 6h3v3h-3zm-4.5 0h3v3h-3zM19 38h3v3h-3zm-4.5 0h3v3h-3zM10 38h3v3h-3z" fill="#838383"/></symbol>
  <symbol id="arrow-bracket" viewBox="0 0 16 16"><path d="M11 3L8.1 8l2.9 5H8.4L5 8.1v-.2L8.4 3H11z"/></symbol>
  <symbol id="help" viewBox="0 0 10 10"><path d="M5 .6c2.4 0 4.4 2 4.4 4.4 0 2.4-2 4.4-4.4 4.4C2.6 9.4.6 7.4.6 5 .6 2.6 2.6.6 5 .6M5 0C2.2 0 0 2.2 0 5c0 2.7 2.3 5 5 5s5-2.3 5-5-2.3-5-5-5z"/><path d="M4.5 6.2c0-1 .7-1.3 1.1-2 .3-.3.2-.7 0-1-.4-.2-.7-.2-1.1 0-.1.1-.1.3-.1.4h-.9c0-2.7 5.2-1.1 2.7 1.3l-.5.5c-.1.2-.3.5-.3.8h-.9zm0 1.2c0-.8 1.2-.7 1.1 0 0 .6-1.1.7-1.1 0z"/></symbol>
</svg>
